<?xml version="1.0" encoding="UTF-8" standalone="no"?>
<!DOCTYPE svg PUBLIC "-//W3C//DTD SVG 1.1//EN" "http://www.w3.org/Graphics/SVG/1.1/DTD/svg11.dtd">
<svg width="100%" height="100%" viewBox="0 0 384 512" version="1.1" xmlns="http://www.w3.org/2000/svg" xmlns:xlink="http://www.w3.org/1999/xlink" xml:space="preserve" xmlns:serif="http://www.serif.com/" style="fill-rule:evenodd;clip-rule:evenodd;stroke-linejoin:round;stroke-miterlimit:2;">
    <path d="M320,0L64,0C37.5,0 16,21.5 16,48L16,464C16,490.5 37.5,512 64,512L320,512C346.5,512 368,490.5 368,464L368,48C368,21.5 346.5,0 320,0ZM240,447.1C240,456.8 232.8,464 224,464L159.1,464C151.2,464 144,456.8 144,448C144,439.2 151.2,432 160,432L224,432C232.8,432 240,439.2 240,447.1Z" style="fill:rgb(29,78,216);fill-rule:nonzero;"/>
</svg>
