<?xml version="1.0" encoding="UTF-8" standalone="no"?>
<!DOCTYPE svg PUBLIC "-//W3C//DTD SVG 1.1//EN" "http://www.w3.org/Graphics/SVG/1.1/DTD/svg11.dtd">
<svg width="100%" height="100%" viewBox="0 0 500 500" version="1.1" xmlns="http://www.w3.org/2000/svg" xmlns:xlink="http://www.w3.org/1999/xlink" xml:space="preserve" xmlns:serif="http://www.serif.com/" style="fill-rule:evenodd;clip-rule:evenodd;stroke-linejoin:round;stroke-miterlimit:2;">
    <g id="freepik--background-complete--inject-298">
        <rect x="416.78" y="398.49" width="33.12" height="0.25" style="fill:rgb(235,235,235);"/>
        <rect x="322.53" y="401.21" width="8.69" height="0.25" style="fill:rgb(235,235,235);"/>
        <rect x="396.59" y="389.21" width="19.19" height="0.25" style="fill:rgb(235,235,235);"/>
        <rect x="52.46" y="390.89" width="43.19" height="0.25" style="fill:rgb(235,235,235);"/>
        <rect x="104.56" y="390.89" width="6.33" height="0.25" style="fill:rgb(235,235,235);"/>
        <rect x="131.47" y="395.11" width="93.68" height="0.25" style="fill:rgb(235,235,235);"/>
        <path d="M237,337.8L43.92,337.8C40.788,337.8 38.21,335.222 38.21,332.09L38.21,60.66C38.237,57.547 40.806,55 43.92,55L237,55C240.132,55 242.71,57.578 242.71,60.71L242.71,332.09C242.71,335.222 240.132,337.8 237,337.8ZM43.92,55.2C40.927,55.205 38.465,57.667 38.46,60.66L38.46,332.09C38.465,335.083 40.927,337.545 43.92,337.55L237,337.55C239.993,337.545 242.455,335.083 242.46,332.09L242.46,60.66C242.455,57.667 239.993,55.205 237,55.2L43.92,55.2Z" style="fill:rgb(235,235,235);fill-rule:nonzero;"/>
        <path d="M453.31,337.8L260.21,337.8C257.08,337.795 254.505,335.22 254.5,332.09L254.5,60.66C254.533,57.549 257.098,55.005 260.21,55L453.31,55C456.416,55.011 458.973,57.554 459,60.66L459,332.09C459,335.215 456.435,337.789 453.31,337.8ZM260.21,55.2C257.217,55.205 254.755,57.667 254.75,60.66L254.75,332.09C254.755,335.083 257.217,337.545 260.21,337.55L453.31,337.55C456.303,337.545 458.765,335.083 458.77,332.09L458.77,60.66C458.765,57.667 456.303,55.205 453.31,55.2L260.21,55.2Z" style="fill:rgb(235,235,235);fill-rule:nonzero;"/>
        <rect x="0" y="382.4" width="500" height="0.25" style="fill:rgb(235,235,235);"/>
        <path d="M428.78,140.85L428.78,146.85C432.551,147.175 436.127,148.676 439,151.14L443.27,146.87C439.249,143.301 434.146,141.181 428.78,140.85Z" style="fill:rgb(240,240,240);fill-rule:nonzero;"/>
        <path d="M425.86,182.91C417.071,182.197 410.023,175.149 409.31,166.36L403.31,166.36C404.016,178.465 413.758,188.245 425.86,189L425.86,182.91Z" style="fill:rgb(230,230,230);fill-rule:nonzero;"/>
        <path d="M409.31,163.45C410.026,154.66 417.071,147.612 425.86,146.89L425.86,140.89C413.76,141.632 404.007,151.39 403.27,163.49L409.31,163.45Z" style="fill:rgb(235,235,235);fill-rule:nonzero;"/>
        <path d="M445.36,148.93L441.09,153.2C443.871,156.466 445.399,160.618 445.399,164.908C445.399,174.272 438.115,182.163 428.78,182.91L428.78,188.91C441.418,188.138 451.401,177.527 451.401,164.865C451.401,158.989 449.251,153.312 445.36,148.91L445.36,148.93Z" style="fill:rgb(224,224,224);fill-rule:nonzero;"/>
        <path d="M245.87,153.75L250.31,153.75C251.819,153.75 253.06,154.991 253.06,156.5L253.06,285.59L243.11,285.59L243.11,156.5C243.11,154.991 244.351,153.75 245.86,153.75C245.863,153.75 245.867,153.75 245.87,153.75Z" style="fill:rgb(230,230,230);fill-rule:nonzero;"/>
        <path d="M248.93,153.75L246.19,153.75C244.504,153.75 243.115,155.134 243.11,156.82L243.11,285.59L245.85,285.59L245.85,156.82C245.855,155.134 247.244,153.75 248.93,153.75Z" style="fill:rgb(240,240,240);fill-rule:nonzero;"/>
        <rect x="240.29" y="277.08" width="15.66" height="105.57" style="fill:rgb(235,235,235);"/>
        <path d="M234.72,378.38L261.52,378.38C263.616,378.38 265.34,380.104 265.34,382.2L265.34,382.64L230.9,382.64L230.9,382.2C230.9,380.104 232.624,378.38 234.72,378.38Z" style="fill:rgb(230,230,230);fill-rule:nonzero;"/>
        <path d="M396.42,330.5L421.67,330.5C426.172,330.495 429.875,326.792 429.88,322.29L429.88,285.37C429.88,284.547 429.203,283.87 428.38,283.87C427.557,283.87 426.88,284.547 426.88,285.37L426.88,322.29C426.88,325.148 424.528,327.5 421.67,327.5L396.42,327.5L396.42,330.5Z" style="fill:rgb(224,224,224);fill-rule:nonzero;"/>
        <path d="M389.2,365.88L389.2,331.5L387.2,330.87C384.935,330.157 383.383,328.044 383.38,325.67L402.43,325.67C402.43,328.045 400.877,330.16 398.61,330.87L396.61,331.5L396.61,365.88L412.42,373L412.42,376L392.89,369.17L373.36,376L373.36,373L389.2,365.88Z" style="fill:rgb(224,224,224);fill-rule:nonzero;"/>
        <path d="M368,327.5L417.81,327.5C420.778,327.5 423.22,325.058 423.22,322.09C423.215,319.126 420.774,316.69 417.81,316.69L368,316.69C365.038,316.69 362.6,319.128 362.6,322.09C362.6,322.093 362.6,322.097 362.6,322.1C362.6,325.062 365.038,327.5 368,327.5Z" style="fill:rgb(240,240,240);fill-rule:nonzero;"/>
        <path d="M426.58,298.36L429.27,259.92C429.475,256.97 427.22,254.372 424.27,254.16C421.316,253.95 418.712,256.206 418.5,259.16L415.81,297.6C415.605,300.552 417.859,303.153 420.81,303.37C423.766,303.575 426.368,301.315 426.58,298.36Z" style="fill:rgb(235,235,235);fill-rule:nonzero;"/>
        <path d="M409,378.11C409,379.986 410.544,381.53 412.42,381.53C414.296,381.53 415.84,379.986 415.84,378.11C415.84,376.234 414.296,374.69 412.42,374.69C410.544,374.69 409,376.234 409,378.11Z" style="fill:rgb(224,224,224);fill-rule:nonzero;"/>
        <path d="M369.94,378.11C369.94,379.986 371.484,381.53 373.36,381.53C375.236,381.53 376.78,379.986 376.78,378.11C376.78,376.234 375.236,374.69 373.36,374.69C371.484,374.69 369.94,376.234 369.94,378.11Z" style="fill:rgb(224,224,224);fill-rule:nonzero;"/>
        <path d="M100.37,330.5L75.12,330.5C70.614,330.5 66.905,326.796 66.9,322.29L66.9,285.37C66.9,284.547 67.577,283.87 68.4,283.87C69.223,283.87 69.9,284.547 69.9,285.37L69.9,322.29C69.905,325.15 72.26,327.5 75.12,327.5L100.37,327.5L100.37,330.5Z" style="fill:rgb(224,224,224);fill-rule:nonzero;"/>
        <path d="M107.59,365.88L107.59,331.5L109.59,330.87C111.853,330.156 113.401,328.043 113.4,325.67L94.4,325.67C94.403,328.044 95.955,330.157 98.22,330.87L100.22,331.5L100.22,365.88L84.37,373L84.37,376L103.9,369.17L123.43,376L123.43,373L107.59,365.88Z" style="fill:rgb(224,224,224);fill-rule:nonzero;"/>
        <path d="M128.8,327.5L79,327.5C76.036,327.495 73.6,325.054 73.6,322.09C73.6,319.128 76.038,316.69 79,316.69L128.8,316.69C131.764,316.69 134.205,319.126 134.21,322.09C134.21,325.058 131.768,327.5 128.8,327.5Z" style="fill:rgb(240,240,240);fill-rule:nonzero;"/>
        <path d="M70.2,298.36L67.51,259.92C67.305,256.97 69.56,254.372 72.51,254.16C75.464,253.95 78.068,256.206 78.28,259.16L81,297.61C81.205,300.562 78.951,303.163 76,303.38C75.866,303.39 75.731,303.395 75.597,303.395C72.77,303.395 70.396,301.18 70.2,298.36Z" style="fill:rgb(235,235,235);fill-rule:nonzero;"/>
        <path d="M87.78,378.11C87.78,379.986 86.236,381.53 84.36,381.53C82.484,381.53 80.94,379.986 80.94,378.11C80.94,376.234 82.484,374.69 84.36,374.69L84.37,374.69C86.241,374.69 87.78,376.229 87.78,378.1C87.78,378.103 87.78,378.107 87.78,378.11Z" style="fill:rgb(224,224,224);fill-rule:nonzero;"/>
        <path d="M126.84,378.11C126.84,379.986 125.296,381.53 123.42,381.53C121.544,381.53 120,379.986 120,378.11C120,376.234 121.544,374.69 123.42,374.69L123.43,374.69C125.301,374.69 126.84,376.229 126.84,378.1C126.84,378.103 126.84,378.107 126.84,378.11Z" style="fill:rgb(224,224,224);fill-rule:nonzero;"/>
        <path d="M207.68,382.65L188.18,382.65L186.18,345.67L209.68,345.67L207.68,382.65Z" style="fill:rgb(235,235,235);fill-rule:nonzero;"/>
        <path d="M192.68,382.65L184.68,382.65L184.68,381L192.68,380L192.68,382.65Z" style="fill:rgb(224,224,224);fill-rule:nonzero;"/>
        <path d="M189.15,342.67L206.71,342.67C208.356,342.67 209.71,344.024 209.71,345.67L186.17,345.67C186.17,344.024 187.524,342.67 189.17,342.67L189.15,342.67Z" style="fill:rgb(224,224,224);fill-rule:nonzero;"/>
        <path d="M167.68,286.74L136.46,286.74L136.46,283L167.68,281L167.68,286.74Z" style="fill:rgb(224,224,224);fill-rule:nonzero;"/>
        <rect x="121.51" y="290.55" width="92.33" height="12.78" style="fill:rgb(240,240,240);"/>
        <rect x="102.7" y="286.74" width="130.28" height="7.62" style="fill:rgb(250,250,250);"/>
        <path d="M220.88,382.65L226.76,382.65L216.58,294.36L209.68,294.36L220.88,382.65Z" style="fill:rgb(230,230,230);fill-rule:nonzero;"/>
        <path d="M126,294.36L119.1,294.36L108.91,382.65L114.8,382.65L126,294.36Z" style="fill:rgb(230,230,230);fill-rule:nonzero;"/>
        <path d="M199.29,284.84C196.623,271.6 193.957,258.353 191.29,245.1C190.91,243.21 188.01,244.01 188.39,245.9L196,283.74L179.5,283.74C178.677,283.74 178,284.417 178,285.24C178,286.063 178.677,286.74 179.5,286.74L197.83,286.74C198.659,286.734 199.338,286.049 199.338,285.22C199.338,285.092 199.322,284.964 199.29,284.84Z" style="fill:rgb(224,224,224);fill-rule:nonzero;"/>
        <path d="M180.61,274.18L185.75,200.7C189.606,203.451 191.758,208.025 191.42,212.75L187.91,263C187.592,267.739 184.821,271.983 180.61,274.18Z" style="fill:rgb(250,250,250);fill-rule:nonzero;"/>
        <path d="M223.56,268.28C223.56,266.679 222.261,265.38 220.66,265.38L212.3,265.38C210.699,265.38 209.4,266.679 209.4,268.28L209.4,283.84C209.4,285.441 210.699,286.74 212.3,286.74L220.66,286.74C222.261,286.74 223.56,285.441 223.56,283.84L223.56,268.28Z" style="fill:rgb(245,245,245);"/>
        <path d="M215,257.43C212.79,257.43 211,257.98 211,258.65C211,259.32 212.8,258.41 215,258.41C215.283,258.395 215.567,258.395 215.85,258.41L215.85,263.25L217.11,263.25L217.11,258.6C218.25,258.81 219.01,259.04 219.01,258.6C219,258 217.21,257.43 215,257.43Z" style="fill:rgb(224,224,224);fill-rule:nonzero;"/>
        <rect x="214.23" y="261.73" width="4.51" height="4.51" style="fill:rgb(240,240,240);"/>
        <g transform="matrix(-1,-7.65714e-16,7.65714e-16,-1,658.22,593.89)">
            <rect x="282.94" y="290.55" width="92.33" height="12.78" style="fill:rgb(240,240,240);"/>
        </g>
        <g transform="matrix(-1,-7.65714e-16,7.65714e-16,-1,657.89,581.11)">
            <rect x="263.8" y="286.74" width="130.28" height="7.62" style="fill:rgb(250,250,250);"/>
        </g>
        <path d="M275.91,382.65L270.02,382.65L280.2,294.36L287.1,294.36L275.91,382.65Z" style="fill:rgb(230,230,230);fill-rule:nonzero;"/>
        <path d="M370.79,294.36L377.69,294.36L387.87,382.65L381.98,382.65L370.79,294.36Z" style="fill:rgb(230,230,230);fill-rule:nonzero;"/>
        <path d="M348.63,286.74L379.84,286.74L379.84,283L348.63,281L348.63,286.74Z" style="fill:rgb(38,50,56);fill-rule:nonzero;"/>
        <path d="M348.63,286.74L379.84,286.74L379.84,283L348.63,281L348.63,286.74Z" style="fill:white;fill-opacity:0.6;fill-rule:nonzero;"/>
        <path d="M285.84,219.67L285.84,286.74L290.18,286.74L291.18,280.79C291.554,278.624 293.452,277.027 295.65,277.03L336,277.03C338.198,277.027 340.096,278.624 340.47,280.79L341.47,286.74L345.8,286.74L345.8,219.67L285.84,219.67Z" style="fill:rgb(250,250,250);fill-rule:nonzero;"/>
        <path d="M305.25,284.84C307.917,271.6 310.583,258.353 313.25,245.1C313.63,243.21 316.52,244.01 316.14,245.9L308.52,283.74L325,283.74C325.823,283.74 326.5,284.417 326.5,285.24C326.5,286.063 325.823,286.74 325,286.74L306.69,286.74C305.868,286.723 305.202,286.042 305.202,285.22C305.202,285.092 305.218,284.964 305.25,284.84Z" style="fill:rgb(224,224,224);fill-rule:nonzero;"/>
        <path d="M323.92,274.18L318.78,200.7C314.929,203.455 312.778,208.026 313.11,212.75L316.62,263C316.942,267.738 319.712,271.98 323.92,274.18Z" style="fill:rgb(224,224,224);fill-rule:nonzero;"/>
        <path d="M245.49,74.85L239.46,74.85L239.46,106.33L245.49,106.31L245.49,74.85Z" style="fill:rgb(235,235,235);fill-rule:nonzero;"/>
        <path d="M227.71,81.38L227.71,106.29C227.931,106.33 228.155,106.35 228.38,106.35L233.74,106.35L233.74,81.35L227.71,81.38Z" style="fill:rgb(230,230,230);fill-rule:nonzero;"/>
        <path d="M263.86,71.58L263.86,106.28L269.24,106.28C269.458,106.276 269.675,106.256 269.89,106.22L269.89,71.58L263.86,71.58Z" style="fill:rgb(240,240,240);fill-rule:nonzero;"/>
        <path d="M257.84,87.8L251.81,87.8L251.81,106.3L257.84,106.29L257.84,87.8Z" style="fill:rgb(224,224,224);fill-rule:nonzero;"/>
        <path d="M71.82,140.63L71.82,164.52L80.68,186.71C89.272,182.795 94.811,174.184 94.811,164.743C94.811,151.933 84.615,141.24 71.82,140.63Z" style="fill:rgb(224,224,224);fill-rule:nonzero;"/>
        <path d="M69.73,164.22L69.73,140.63C57.325,141.219 47.437,151.581 47.43,164L47.43,165.76C47.43,165.767 47.43,165.773 47.43,165.78C47.43,178.611 57.989,189.17 70.82,189.17C73.427,189.17 76.016,188.734 78.48,187.88L69.73,164.22Z" style="fill:rgb(240,240,240);fill-rule:nonzero;"/>
    </g>
    <g id="freepik--Shadow--inject-298">
        <ellipse id="freepik--path--inject-298" cx="245.18" cy="412.39" rx="193.89" ry="11.32" style="fill:rgb(245,245,245);"/>
    </g>
    <g id="freepik--Board--inject-298">
        <path d="M224.68,407.12L243.4,388.4L262.12,407.12C262.604,407.601 263.258,407.87 263.94,407.87C263.942,407.87 263.944,407.87 263.945,407.87C265.355,407.87 266.515,406.71 266.515,405.3C266.515,404.617 266.243,403.962 265.76,403.48L243.4,381.12L221,403.48C220.517,403.962 220.245,404.617 220.245,405.3C220.245,406.71 221.405,407.87 222.815,407.87C222.816,407.87 222.818,407.87 222.82,407.87C223.515,407.881 224.187,407.61 224.68,407.12Z" style="fill:rgb(64,123,255);fill-rule:nonzero;"/>
        <path d="M244.03,381.76L242.77,381.76L237.03,387.49L237.03,394.5L237.3,394.5L243.4,388.4L249.5,394.5L249.77,394.5L249.77,387.49L244.03,381.76Z" style="fill-opacity:0.2;fill-rule:nonzero;"/>
        <path d="M239.57,323.37L247.23,323.37L247.23,404.87C247.23,406.516 245.876,407.87 244.23,407.87L242.57,407.87C240.924,407.87 239.57,406.516 239.57,404.87L239.57,323.37Z" style="fill:rgb(64,123,255);fill-rule:nonzero;"/>
        <rect x="239.57" y="323.37" width="7.66" height="30.03" style="fill-opacity:0.2;"/>
        <path d="M379.74,342.63L107.06,342.63C101.492,342.619 96.915,338.038 96.91,332.47L96.91,120.93L389.91,120.93L389.91,332.47C389.905,338.045 385.315,342.63 379.74,342.63ZM100.34,124.36L100.34,332.47C100.34,336.158 103.372,339.195 107.06,339.2L379.74,339.2C383.428,339.195 386.46,336.158 386.46,332.47L386.46,124.36L100.34,124.36Z" style="fill:rgb(64,123,255);fill-rule:nonzero;"/>
        <g opacity="0.8">
            <path d="M379.74,342.63L107.06,342.63C101.492,342.619 96.915,338.038 96.91,332.47L96.91,120.93L389.91,120.93L389.91,332.47C389.905,338.045 385.315,342.63 379.74,342.63ZM100.34,124.36L100.34,332.47C100.34,336.158 103.372,339.195 107.06,339.2L379.74,339.2C383.428,339.195 386.46,336.158 386.46,332.47L386.46,124.36L100.34,124.36Z" style="fill:white;fill-rule:nonzero;"/>
        </g>
        <path d="M100.34,124.36L100.34,332.47C100.34,336.158 103.372,339.195 107.06,339.2L379.74,339.2C383.428,339.195 386.46,336.158 386.46,332.47L386.46,124.36L100.34,124.36Z" style="fill:white;fill-rule:nonzero;"/>
        <g transform="matrix(2.32217,0,0,2.32217,-240.697,-154.324)">
            <path d="M178.482,139.713L180.855,139.414C180.918,139.746 181.023,139.981 181.172,140.117C181.32,140.254 181.502,140.322 181.717,140.322C182.1,140.322 182.398,140.129 182.613,139.742C182.769,139.457 182.887,138.854 182.965,137.932C182.68,138.225 182.387,138.44 182.086,138.576C181.785,138.713 181.437,138.781 181.043,138.781C180.273,138.781 179.624,138.508 179.095,137.961C178.565,137.414 178.301,136.723 178.301,135.887C178.301,135.317 178.436,134.797 178.705,134.328C178.975,133.859 179.346,133.505 179.818,133.265C180.291,133.025 180.885,132.904 181.6,132.904C182.459,132.904 183.148,133.052 183.668,133.347C184.187,133.642 184.602,134.11 184.913,134.753C185.224,135.396 185.379,136.244 185.379,137.299C185.379,138.85 185.053,139.985 184.4,140.706C183.748,141.427 182.844,141.787 181.687,141.787C181.004,141.787 180.465,141.708 180.07,141.55C179.676,141.392 179.348,141.16 179.086,140.856C178.824,140.551 178.623,140.17 178.482,139.713ZM182.877,135.881C182.877,135.416 182.76,135.052 182.525,134.788C182.291,134.525 182.006,134.393 181.67,134.393C181.353,134.393 181.091,134.512 180.882,134.75C180.673,134.988 180.568,135.346 180.568,135.822C180.568,136.303 180.677,136.67 180.894,136.924C181.11,137.178 181.381,137.305 181.705,137.305C182.041,137.305 182.32,137.182 182.543,136.936C182.766,136.69 182.877,136.338 182.877,135.881Z" style="fill:rgb(64,123,255);fill-rule:nonzero;"/>
            <path d="M186.381,137.311C186.381,135.678 186.675,134.535 187.263,133.883C187.851,133.231 188.746,132.904 189.949,132.904C190.527,132.904 191.002,132.976 191.373,133.118C191.744,133.261 192.047,133.446 192.281,133.675C192.516,133.903 192.7,134.144 192.835,134.396C192.97,134.648 193.078,134.942 193.16,135.277C193.32,135.918 193.4,136.586 193.4,137.281C193.4,138.84 193.137,139.981 192.609,140.703C192.082,141.426 191.174,141.787 189.885,141.787C189.162,141.787 188.578,141.672 188.133,141.442C187.687,141.211 187.322,140.873 187.037,140.428C186.83,140.111 186.669,139.679 186.554,139.13C186.438,138.581 186.381,137.975 186.381,137.311ZM188.748,137.317C188.748,138.41 188.845,139.157 189.038,139.558C189.231,139.958 189.512,140.158 189.879,140.158C190.121,140.158 190.331,140.073 190.509,139.903C190.686,139.733 190.817,139.465 190.901,139.098C190.985,138.731 191.027,138.158 191.027,137.381C191.027,136.24 190.931,135.474 190.737,135.081C190.544,134.689 190.254,134.492 189.867,134.492C189.473,134.492 189.187,134.692 189.012,135.093C188.836,135.493 188.748,136.234 188.748,137.317Z" style="fill:rgb(64,123,255);fill-rule:nonzero;"/>
            <path d="M201.768,132.904L203.004,132.904L198.041,142.08L196.816,142.08L201.768,132.904ZM194.473,135.16C194.473,134.762 194.56,134.383 194.733,134.024C194.907,133.664 195.173,133.388 195.53,133.194C195.888,133.001 196.311,132.904 196.799,132.904C197.518,132.904 198.084,133.109 198.498,133.52C198.912,133.93 199.119,134.477 199.119,135.16C199.119,135.848 198.912,136.397 198.498,136.807C198.084,137.217 197.518,137.422 196.799,137.422C196.311,137.422 195.888,137.325 195.53,137.132C195.173,136.939 194.907,136.662 194.733,136.303C194.56,135.943 194.473,135.563 194.473,135.16ZM196.119,135.172C196.119,135.656 196.197,136.008 196.353,136.227C196.455,136.371 196.603,136.443 196.799,136.443C196.994,136.443 197.141,136.371 197.238,136.227C197.394,136.008 197.473,135.656 197.473,135.172C197.473,134.692 197.394,134.34 197.238,134.117C197.141,133.977 196.994,133.906 196.799,133.906C196.603,133.906 196.455,133.977 196.353,134.117C196.197,134.336 196.119,134.688 196.119,135.172ZM200.666,139.807C200.666,139.404 200.752,139.025 200.924,138.667C201.096,138.31 201.361,138.033 201.721,137.838C202.08,137.643 202.502,137.545 202.986,137.545C203.709,137.545 204.277,137.751 204.691,138.163C205.105,138.575 205.312,139.123 205.312,139.807C205.312,140.49 205.105,141.038 204.691,141.45C204.277,141.862 203.709,142.068 202.986,142.068C202.502,142.068 202.08,141.971 201.721,141.775C201.361,141.58 201.096,141.304 200.924,140.946C200.752,140.589 200.666,140.209 200.666,139.807ZM202.312,139.818C202.312,140.303 202.391,140.654 202.547,140.873C202.644,141.014 202.791,141.084 202.986,141.084C203.182,141.084 203.33,141.014 203.432,140.873C203.588,140.654 203.666,140.303 203.666,139.818C203.666,139.334 203.588,138.981 203.432,138.758C203.33,138.617 203.182,138.547 202.986,138.547C202.791,138.547 202.644,138.619 202.547,138.764C202.391,138.983 202.312,139.334 202.312,139.818Z" style="fill:rgb(64,123,255);fill-rule:nonzero;"/>
        </g>
        <rect x="90.29" y="118.79" width="306.22" height="7.72" style="fill:rgb(64,123,255);"/>
        <rect x="90.29" y="118.79" width="306.22" height="3.86" style="fill:white;fill-opacity:0.5;"/>
        <path d="M127.54,302.3C127.54,302.3 298.19,299.12 350.75,150.4L348.94,302.64L127.54,302.3Z" style="fill:rgb(64,123,255);fill-rule:nonzero;"/>
        <g opacity="0.7">
            <path d="M127.54,302.3C127.54,302.3 298.19,299.12 350.75,150.4L348.94,302.64L127.54,302.3Z" style="fill:white;fill-rule:nonzero;"/>
        </g>
        <path d="M128.86,303.16C128.852,303.16 128.843,303.16 128.835,303.16C128.286,303.16 127.835,302.709 127.835,302.16C127.835,301.621 128.271,301.173 128.81,301.16C137.09,300.77 180.72,297.78 227.7,277.3C287.7,251.12 328.62,208.3 349.22,150C349.382,149.643 349.739,149.412 350.131,149.412C350.68,149.412 351.131,149.863 351.131,150.412C351.131,150.495 351.121,150.579 351.1,150.66C339.75,182.81 321.93,210.66 298.1,233.49C278.72,252.08 255.29,267.43 228.46,279.13C181.16,299.76 137.2,302.77 128.87,303.13L128.86,303.16Z" style="fill:rgb(64,123,255);fill-rule:nonzero;"/>
        <path d="M137.76,312.52C137.211,312.52 136.76,312.069 136.76,311.52L136.76,303.21C136.76,302.661 137.211,302.21 137.76,302.21C138.309,302.21 138.76,302.661 138.76,303.21L138.76,311.52C138.76,312.069 138.309,312.52 137.76,312.52Z" style="fill:rgb(64,123,255);fill-rule:nonzero;"/>
        <path d="M172.47,312.56C171.921,312.56 171.47,312.109 171.47,311.56L171.47,303.25C171.47,302.701 171.921,302.25 172.47,302.25C173.019,302.25 173.47,302.701 173.47,303.25L173.47,311.56C173.47,312.109 173.019,312.56 172.47,312.56Z" style="fill:rgb(64,123,255);fill-rule:nonzero;"/>
        <path d="M207.18,312.59C206.631,312.59 206.18,312.139 206.18,311.59L206.18,303.28C206.18,302.731 206.631,302.28 207.18,302.28C207.729,302.28 208.18,302.731 208.18,303.28L208.18,311.59C208.18,312.139 207.729,312.59 207.18,312.59Z" style="fill:rgb(64,123,255);fill-rule:nonzero;"/>
        <path d="M241.89,312.62C241.341,312.62 240.89,312.169 240.89,311.62L240.89,303.31C240.89,302.761 241.341,302.31 241.89,302.31C242.439,302.31 242.89,302.761 242.89,303.31L242.89,311.62C242.89,312.169 242.439,312.62 241.89,312.62Z" style="fill:rgb(64,123,255);fill-rule:nonzero;"/>
        <path d="M276.6,312.65C276.051,312.65 275.6,312.199 275.6,311.65L275.6,303.35C275.6,302.801 276.051,302.35 276.6,302.35C277.149,302.35 277.6,302.801 277.6,303.35L277.6,311.65C277.6,312.199 277.149,312.65 276.6,312.65Z" style="fill:rgb(64,123,255);fill-rule:nonzero;"/>
        <path d="M311.3,312.69C310.751,312.69 310.3,312.239 310.3,311.69L310.3,303.38C310.3,302.831 310.751,302.38 311.3,302.38C311.849,302.38 312.3,302.831 312.3,303.38L312.3,311.69C312.3,312.239 311.849,312.69 311.3,312.69Z" style="fill:rgb(64,123,255);fill-rule:nonzero;"/>
        <path d="M346,312.72C345.451,312.72 345,312.269 345,311.72L345,303.41C345,302.861 345.451,302.41 346,302.41C346.549,302.41 347,302.861 347,303.41L347,311.72C347,312.269 346.549,312.72 346,312.72Z" style="fill:rgb(64,123,255);fill-rule:nonzero;"/>
        <path d="M128,159.65L123.52,159.65C122.971,159.65 122.52,159.199 122.52,158.65C122.52,158.101 122.971,157.65 123.52,157.65L128,157.65C128.549,157.65 129,158.101 129,158.65C129,159.199 128.549,159.65 128,159.65Z" style="fill:rgb(64,123,255);fill-rule:nonzero;"/>
        <path d="M128,181.42L123.52,181.42C122.971,181.42 122.52,180.969 122.52,180.42C122.52,179.871 122.971,179.42 123.52,179.42L128,179.42C128.549,179.42 129,179.871 129,180.42C129,180.969 128.549,181.42 128,181.42Z" style="fill:rgb(64,123,255);fill-rule:nonzero;"/>
        <path d="M128,203.2L123.52,203.2C122.971,203.2 122.52,202.749 122.52,202.2C122.52,201.651 122.971,201.2 123.52,201.2L128,201.2C128.549,201.2 129,201.651 129,202.2C129,202.749 128.549,203.2 128,203.2Z" style="fill:rgb(64,123,255);fill-rule:nonzero;"/>
        <path d="M128,225L123.52,225C122.971,225 122.52,224.549 122.52,224C122.52,223.451 122.971,223 123.52,223L128,223C128.549,223 129,223.451 129,224C129,224.549 128.549,225 128,225Z" style="fill:rgb(64,123,255);fill-rule:nonzero;"/>
        <path d="M128,246.75L123.52,246.75C122.971,246.75 122.52,246.299 122.52,245.75C122.52,245.201 122.971,244.75 123.52,244.75L128,244.75C128.549,244.75 129,245.201 129,245.75C129,246.299 128.549,246.75 128,246.75Z" style="fill:rgb(64,123,255);fill-rule:nonzero;"/>
        <path d="M128,268.53L123.52,268.53C122.971,268.53 122.52,268.079 122.52,267.53C122.52,266.981 122.971,266.53 123.52,266.53L128,266.53C128.549,266.53 129,266.981 129,267.53C129,268.079 128.549,268.53 128,268.53Z" style="fill:rgb(64,123,255);fill-rule:nonzero;"/>
        <path d="M128,290.3L123.52,290.3C122.971,290.3 122.52,289.849 122.52,289.3C122.52,288.751 122.971,288.3 123.52,288.3L128,288.3C128.549,288.3 129,288.751 129,289.3C129,289.849 128.549,290.3 128,290.3Z" style="fill:rgb(64,123,255);fill-rule:nonzero;"/>
        <path d="M357.4,304.21L128.86,304.21C128.311,304.21 127.86,303.759 127.86,303.21L127.86,150.05C127.86,149.501 128.311,149.05 128.86,149.05C129.409,149.05 129.86,149.501 129.86,150.05L129.86,302.21L357.4,302.21C357.949,302.21 358.4,302.661 358.4,303.21C358.4,303.759 357.949,304.21 357.4,304.21Z" style="fill:rgb(64,123,255);fill-rule:nonzero;"/>
        <rect x="181.97" y="179.91" width="46.26" height="3.22" style="fill:rgb(64,123,255);"/>
        <rect x="174.22" y="187.66" width="54.01" height="3.22" style="fill:rgb(64,123,255);"/>
        <rect x="174.22" y="195.21" width="54.01" height="3.22" style="fill:rgb(64,123,255);"/>
        <rect x="174.22" y="202.76" width="42.08" height="3.22" style="fill:rgb(64,123,255);"/>
    </g>
    <g id="freepik--Plant--inject-298">
        <path d="M397.31,322.93C397.31,322.93 404.59,338.61 405.04,372.33L409.99,372.33C409.99,372.33 405.89,321.51 396.47,317.87C391.44,316 397.31,322.93 397.31,322.93Z" style="fill:rgb(64,123,255);fill-rule:nonzero;"/>
        <g opacity="0.1">
            <path d="M397.31,322.93C397.31,322.93 404.59,338.61 405.04,372.33L409.99,372.33C409.99,372.33 405.89,321.51 396.47,317.87C391.44,316 397.31,322.93 397.31,322.93Z" style="fill-rule:nonzero;"/>
        </g>
        <path d="M394.41,317.9C395.41,314.9 395.92,314.95 397.71,312.98C395.05,312.54 391.82,311.19 387.47,312.92C383.65,314.72 382.22,318.92 382.96,323.02C383.023,323.322 382.95,323.637 382.76,323.88C382.557,324.131 382.251,324.278 381.928,324.278C381.566,324.278 381.227,324.094 381.03,323.79C379.336,321.037 379.158,317.602 380.56,314.69C377.15,315.77 373.22,317.55 371.12,320.45C368.82,323.62 369.59,331.09 372.28,334.21C372.509,334.484 372.509,334.886 372.28,335.16C372.141,335.348 371.92,335.459 371.685,335.459C371.498,335.459 371.317,335.388 371.18,335.26C369.821,334.209 368.712,332.87 367.93,331.34C367.11,329.56 366.74,327.46 367.79,325.81C363.45,326.47 359.79,335.65 360.23,335.55C360.84,338.8 363.77,341.76 365.23,343.07C365.746,343.534 365.863,344.304 365.51,344.9C365.245,345.345 364.764,345.619 364.246,345.619C363.909,345.619 363.582,345.503 363.32,345.29C361.76,344.02 359.4,341.86 358.74,340.02C357.3,341.02 357.35,343.47 357.38,345.23C357.46,350.85 361.69,354.92 365.02,359.04C369.332,360.621 374.002,360.968 378.5,360.04C381.768,359.272 384.615,357.268 386.44,354.45L386.44,354.38C383.38,353.71 380,352.84 376.88,352.13C376.282,352.001 375.879,351.426 375.96,350.82C376.057,350.193 376.64,349.749 377.27,349.82C381.38,350.31 384.57,351.24 388.79,351.68C391.07,349.68 394.73,342.22 394.06,342.42C390.45,342.2 384.32,342.62 380.91,341.12C380.423,340.883 380.212,340.291 380.44,339.8C380.64,339.446 381.037,339.247 381.44,339.3C386.054,340.213 390.791,340.315 395.44,339.6C398.19,335.87 400.17,332.99 400.49,330.21L389.6,329.21C389.111,329.181 388.725,328.771 388.725,328.282C388.725,327.818 389.071,327.422 389.53,327.36L389.59,327.36C394.03,326.84 399.24,328.43 402.8,325.9C402.8,325.9 407.51,321.33 405.93,318.66C402.22,320.71 394,319.25 394.41,317.9Z" style="fill:rgb(64,123,255);fill-rule:nonzero;"/>
        <path d="M412.85,324.34C409.575,330.146 407.153,336.393 405.66,342.89C400.66,365.4 400.79,372.04 400.79,372.04L396.61,372.18C396.61,372.18 404.75,329.08 411.46,323.02C418.17,316.96 412.85,324.34 412.85,324.34Z" style="fill:rgb(64,123,255);fill-rule:nonzero;"/>
        <path d="M412.85,324.34C409.575,330.146 407.153,336.393 405.66,342.89C400.66,365.4 400.79,372.04 400.79,372.04L396.61,372.18C396.61,372.18 404.75,329.08 411.46,323.02C418.17,316.96 412.85,324.34 412.85,324.34Z" style="fill-opacity:0.4;fill-rule:nonzero;"/>
        <path d="M414.41,319.63C412.9,318.44 412.65,318.63 411.05,318.16C412.35,317.16 413.67,315.58 416.58,315.16C419.066,314.986 421.384,316.489 422.24,318.83C422.314,318.999 422.455,319.13 422.63,319.19C422.708,319.221 422.79,319.237 422.874,319.237C423.209,319.237 423.493,318.982 423.53,318.65C423.543,316.753 422.533,314.989 420.89,314.04C423.08,313.59 425.78,313.33 427.89,314.14C430.15,315.04 432.11,318.93 431.65,321.25C431.61,321.454 431.731,321.658 431.93,321.72C432.177,321.816 432.459,321.695 432.56,321.45C432.964,320.55 433.143,319.565 433.08,318.58C433.043,317.428 432.4,316.377 431.39,315.82C433.95,314.9 438.87,318.35 438.59,318.43C439.3,320.21 438.65,322.51 438.27,323.57C438.132,323.965 438.325,324.405 438.71,324.57C438.847,324.643 438.999,324.681 439.154,324.681C439.522,324.681 439.858,324.465 440.01,324.13C440.599,322.914 440.878,321.57 440.82,320.22C441.92,320.3 442.67,321.51 443.22,322.38C444.96,325.17 443.97,328.38 443.48,331.38C441.579,333.436 439.162,334.945 436.48,335.75C434.459,336.311 432.304,336.148 430.39,335.29C431.83,334.08 433.39,332.67 434.86,331.42C435.007,331.3 435.092,331.121 435.092,330.932C435.092,330.776 435.034,330.626 434.93,330.51C434.668,330.24 434.249,330.19 433.93,330.39C431.86,331.82 430.43,333.2 428.28,334.63C426.39,334.3 422.04,331.7 422.47,331.63C424.36,330.48 427.81,328.92 429.19,327.19C429.261,327.099 429.299,326.986 429.299,326.871C429.299,326.678 429.191,326.5 429.02,326.41C428.796,326.279 428.513,326.299 428.31,326.46C426.058,328.262 423.524,329.681 420.81,330.66C418.13,329.66 416.14,328.77 415.08,327.5L420.65,323.84C420.814,323.743 420.915,323.566 420.915,323.375C420.915,323.079 420.671,322.835 420.375,322.835C420.278,322.835 420.183,322.861 420.1,322.91C417.52,323.91 415.2,326.23 412.47,326.01C412.47,326.01 408.47,325.13 408.47,323.36C411.07,323.27 415.08,320.16 414.41,319.63Z" style="fill:rgb(64,123,255);fill-rule:nonzero;"/>
        <path d="M414.41,319.63C412.9,318.44 412.65,318.63 411.05,318.16C412.35,317.16 413.67,315.58 416.58,315.16C419.066,314.986 421.384,316.489 422.24,318.83C422.314,318.999 422.455,319.13 422.63,319.19C422.708,319.221 422.79,319.237 422.874,319.237C423.209,319.237 423.493,318.982 423.53,318.65C423.543,316.753 422.533,314.989 420.89,314.04C423.08,313.59 425.78,313.33 427.89,314.14C430.15,315.04 432.11,318.93 431.65,321.25C431.61,321.454 431.731,321.658 431.93,321.72C432.177,321.816 432.459,321.695 432.56,321.45C432.964,320.55 433.143,319.565 433.08,318.58C433.043,317.428 432.4,316.377 431.39,315.82C433.95,314.9 438.87,318.35 438.59,318.43C439.3,320.21 438.65,322.51 438.27,323.57C438.132,323.965 438.325,324.405 438.71,324.57C438.847,324.643 438.999,324.681 439.154,324.681C439.522,324.681 439.858,324.465 440.01,324.13C440.599,322.914 440.878,321.57 440.82,320.22C441.92,320.3 442.67,321.51 443.22,322.38C444.96,325.17 443.97,328.38 443.48,331.38C441.579,333.436 439.162,334.945 436.48,335.75C434.459,336.311 432.304,336.148 430.39,335.29C431.83,334.08 433.39,332.67 434.86,331.42C435.007,331.3 435.092,331.121 435.092,330.932C435.092,330.776 435.034,330.626 434.93,330.51C434.668,330.24 434.249,330.19 433.93,330.39C431.86,331.82 430.43,333.2 428.28,334.63C426.39,334.3 422.04,331.7 422.47,331.63C424.36,330.48 427.81,328.92 429.19,327.19C429.261,327.099 429.299,326.986 429.299,326.871C429.299,326.678 429.191,326.5 429.02,326.41C428.796,326.279 428.513,326.299 428.31,326.46C426.058,328.262 423.524,329.681 420.81,330.66C418.13,329.66 416.14,328.77 415.08,327.5L420.65,323.84C420.814,323.743 420.915,323.566 420.915,323.375C420.915,323.079 420.671,322.835 420.375,322.835C420.278,322.835 420.183,322.861 420.1,322.91C417.52,323.91 415.2,326.23 412.47,326.01C412.47,326.01 408.47,325.13 408.47,323.36C411.07,323.27 415.08,320.16 414.41,319.63Z" style="fill:white;fill-opacity:0.2;fill-rule:nonzero;"/>
        <path d="M409.26,331.92C409.26,331.92 401.1,343.81 398.9,355C396.7,366.19 396.52,371 396.52,371L391.57,371.05C391.57,371.05 400.33,337.05 407.86,330.33C415.39,323.61 409.26,331.92 409.26,331.92Z" style="fill:rgb(64,123,255);fill-rule:nonzero;"/>
        <path d="M409.26,331.92C409.26,331.92 401.1,343.81 398.9,355C396.7,366.19 396.52,371 396.52,371L391.57,371.05C391.57,371.05 400.33,337.05 407.86,330.33C415.39,323.61 409.26,331.92 409.26,331.92Z" style="fill-opacity:0.2;fill-rule:nonzero;"/>
        <path d="M409.58,330.87C409.08,328.29 408.66,328.29 407.41,326.48C409.63,326.41 412.41,325.65 415.8,327.54C418.73,329.43 419.45,333 418.39,336.3C418.31,336.543 418.34,336.81 418.47,337.03C418.63,337.29 418.914,337.45 419.22,337.45C419.478,337.45 419.723,337.336 419.89,337.14C421.575,335.073 422.092,332.283 421.26,329.75C423.93,331.01 426.96,332.88 428.36,335.48C429.9,338.33 428.46,344.36 425.92,346.62C425.697,346.811 425.642,347.137 425.79,347.39C425.9,347.583 426.106,347.703 426.328,347.703C426.45,347.703 426.569,347.667 426.67,347.6C427.898,346.886 428.954,345.91 429.76,344.74C430.743,343.455 431.014,341.757 430.48,340.23C433.95,341.23 435.97,349.15 435.61,349.02C434.75,351.61 432.04,353.72 430.69,354.63C430.217,354.955 430.04,355.575 430.27,356.1C430.461,356.543 430.899,356.832 431.382,356.832C431.607,356.832 431.828,356.769 432.02,356.65C433.43,355.78 435.6,354.27 436.34,352.83C437.41,353.83 437.1,355.83 436.89,357.24C436.21,361.83 432.31,364.71 429.14,367.72C425.437,368.542 421.577,368.31 418,367.05C415.409,366.071 413.296,364.124 412.11,361.62L412.11,361.55C414.69,361.33 417.55,361 420.18,360.75C420.686,360.694 421.073,360.259 421.07,359.75C421.07,359.201 420.619,358.75 420.07,358.75C416.65,358.7 413.94,359.12 410.44,359.02C408.79,357.11 406.6,350.63 407.12,350.86C410.12,351.08 415.12,352.09 418.03,351.23C418.365,351.127 418.595,350.816 418.595,350.465C418.595,350.385 418.583,350.306 418.56,350.23C418.445,349.903 418.126,349.69 417.78,349.71C413.902,349.954 410.011,349.525 406.28,348.44C404.43,345.09 403.12,342.52 403.16,340.2L412.16,340.53C412.162,340.53 412.163,340.53 412.165,340.53C412.588,340.53 412.935,340.182 412.935,339.76C412.935,339.43 412.723,339.135 412.41,339.03C408.83,338.11 404.41,338.86 401.76,336.39C401.76,336.39 398.39,332.15 399.98,330.13C402.88,332.32 409.81,332 409.58,330.87Z" style="fill:rgb(64,123,255);fill-rule:nonzero;"/>
        <path d="M409.58,330.87C409.08,328.29 408.66,328.29 407.41,326.48C409.63,326.41 412.41,325.65 415.8,327.54C418.73,329.43 419.45,333 418.39,336.3C418.31,336.543 418.34,336.81 418.47,337.03C418.63,337.29 418.914,337.45 419.22,337.45C419.478,337.45 419.723,337.336 419.89,337.14C421.575,335.073 422.092,332.283 421.26,329.75C423.93,331.01 426.96,332.88 428.36,335.48C429.9,338.33 428.46,344.36 425.92,346.62C425.697,346.811 425.642,347.137 425.79,347.39C425.9,347.583 426.106,347.703 426.328,347.703C426.45,347.703 426.569,347.667 426.67,347.6C427.898,346.886 428.954,345.91 429.76,344.74C430.743,343.455 431.014,341.757 430.48,340.23C433.95,341.23 435.97,349.15 435.61,349.02C434.75,351.61 432.04,353.72 430.69,354.63C430.217,354.955 430.04,355.575 430.27,356.1C430.461,356.543 430.899,356.832 431.382,356.832C431.607,356.832 431.828,356.769 432.02,356.65C433.43,355.78 435.6,354.27 436.34,352.83C437.41,353.83 437.1,355.83 436.89,357.24C436.21,361.83 432.31,364.71 429.14,367.72C425.437,368.542 421.577,368.31 418,367.05C415.409,366.071 413.296,364.124 412.11,361.62L412.11,361.55C414.69,361.33 417.55,361 420.18,360.75C420.686,360.694 421.073,360.259 421.07,359.75C421.07,359.201 420.619,358.75 420.07,358.75C416.65,358.7 413.94,359.12 410.44,359.02C408.79,357.11 406.6,350.63 407.12,350.86C410.12,351.08 415.12,352.09 418.03,351.23C418.365,351.127 418.595,350.816 418.595,350.465C418.595,350.385 418.583,350.306 418.56,350.23C418.445,349.903 418.126,349.69 417.78,349.71C413.902,349.954 410.011,349.525 406.28,348.44C404.43,345.09 403.12,342.52 403.16,340.2L412.16,340.53C412.162,340.53 412.163,340.53 412.165,340.53C412.588,340.53 412.935,340.182 412.935,339.76C412.935,339.43 412.723,339.135 412.41,339.03C408.83,338.11 404.41,338.86 401.76,336.39C401.76,336.39 398.39,332.15 399.98,330.13C402.88,332.32 409.81,332 409.58,330.87Z" style="fill-opacity:0.1;fill-rule:nonzero;"/>
        <path d="M393.16,408L410.32,408C416.382,407.997 421.676,403.755 423,397.84L429.47,368.91L374,368.91L380.47,397.84C381.795,403.759 387.095,408.002 393.16,408Z" style="fill:rgb(64,123,255);fill-rule:nonzero;"/>
        <g opacity="0.3">
            <path d="M393.16,408L410.32,408C416.382,407.997 421.676,403.755 423,397.84L429.47,368.91L374,368.91L380.47,397.84C381.795,403.759 387.095,408.002 393.16,408Z" style="fill-rule:nonzero;"/>
        </g>
        <path d="M394.41,317.9C395.41,314.9 395.92,314.95 397.71,312.98C395.05,312.54 391.82,311.19 387.47,312.92C383.65,314.72 382.22,318.92 382.96,323.02C383.023,323.322 382.95,323.637 382.76,323.88C382.557,324.131 382.251,324.278 381.928,324.278C381.566,324.278 381.227,324.094 381.03,323.79C379.336,321.037 379.158,317.602 380.56,314.69C377.15,315.77 373.22,317.55 371.12,320.45C368.82,323.62 369.59,331.09 372.28,334.21C372.509,334.484 372.509,334.886 372.28,335.16C372.141,335.348 371.92,335.459 371.685,335.459C371.498,335.459 371.317,335.388 371.18,335.26C369.821,334.209 368.712,332.87 367.93,331.34C367.11,329.56 366.74,327.46 367.79,325.81C363.45,326.47 359.79,335.65 360.23,335.55C360.84,338.8 363.77,341.76 365.23,343.07C365.746,343.534 365.863,344.304 365.51,344.9C365.245,345.345 364.764,345.619 364.246,345.619C363.909,345.619 363.582,345.503 363.32,345.29C361.76,344.02 359.4,341.86 358.74,340.02C357.3,341.02 357.35,343.47 357.38,345.23C357.46,350.85 361.69,354.92 365.02,359.04C369.332,360.621 374.002,360.968 378.5,360.04C381.768,359.272 384.615,357.268 386.44,354.45L386.44,354.38C383.38,353.71 380,352.84 376.88,352.13C376.282,352.001 375.879,351.426 375.96,350.82C376.057,350.193 376.64,349.749 377.27,349.82C381.38,350.31 384.57,351.24 388.79,351.68C391.07,349.68 394.73,342.22 394.06,342.42C390.45,342.2 384.32,342.62 380.91,341.12C380.423,340.883 380.212,340.291 380.44,339.8C380.64,339.446 381.037,339.247 381.44,339.3C386.054,340.213 390.791,340.315 395.44,339.6C398.19,335.87 400.17,332.99 400.49,330.21L389.6,329.21C389.111,329.181 388.725,328.771 388.725,328.282C388.725,327.818 389.071,327.422 389.53,327.36L389.59,327.36C394.03,326.84 399.24,328.43 402.8,325.9C402.8,325.9 407.51,321.33 405.93,318.66C402.22,320.71 394,319.25 394.41,317.9Z" style="fill:white;fill-opacity:0.1;fill-rule:nonzero;"/>
    </g>
    <g id="freepik--character-2--inject-298">
        <g id="freepik--Character--inject-166--inject-298">
            <path d="M364.16,228.55C363.65,228.93 363.28,229.21 362.83,229.55C362.38,229.89 361.98,230.14 361.55,230.43C360.69,231 359.81,231.53 358.92,232.06C357.119,233.118 355.259,234.073 353.35,234.92C351.357,235.812 349.293,236.538 347.18,237.09C346.049,237.391 344.9,237.619 343.74,237.77C343.15,237.84 342.53,237.87 341.9,237.92L340.28,237.92L339.62,237.87C338.089,237.687 336.606,237.215 335.25,236.48C334.146,235.89 333.104,235.19 332.14,234.39C330.459,232.977 328.93,231.392 327.58,229.66C325.07,226.436 322.958,222.92 321.29,219.19L325.9,216.32C328.305,219.036 330.859,221.617 333.55,224.05C334.771,225.165 336.09,226.169 337.49,227.05C338.055,227.401 338.655,227.693 339.28,227.92C339.639,228.063 340.024,228.128 340.41,228.11L340.51,228.11L340.98,228.04C341.31,227.98 341.64,227.92 341.98,227.82C342.67,227.65 343.39,227.43 344.12,227.18C345.668,226.604 347.181,225.936 348.65,225.18C350.17,224.39 351.7,223.55 353.2,222.63C353.93,222.21 354.69,221.7 355.44,221.23L356.54,220.51L359.54,218.51L364.16,228.55Z" style="fill:rgb(64,123,255);fill-rule:nonzero;"/>
            <path d="M364.16,228.55C363.65,228.93 363.28,229.21 362.83,229.55C362.38,229.89 361.98,230.14 361.55,230.43C360.69,231 359.81,231.53 358.92,232.06C357.119,233.118 355.259,234.073 353.35,234.92C351.357,235.812 349.293,236.538 347.18,237.09C346.049,237.391 344.9,237.619 343.74,237.77C343.15,237.84 342.53,237.87 341.9,237.92L340.28,237.92L339.62,237.87C338.089,237.687 336.606,237.215 335.25,236.48C334.146,235.89 333.104,235.19 332.14,234.39C330.459,232.977 328.93,231.392 327.58,229.66C325.07,226.436 322.958,222.92 321.29,219.19L325.9,216.32C328.305,219.036 330.859,221.617 333.55,224.05C334.771,225.165 336.09,226.169 337.49,227.05C338.055,227.401 338.655,227.693 339.28,227.92C339.639,228.063 340.024,228.128 340.41,228.11L340.51,228.11L340.98,228.04C341.31,227.98 341.64,227.92 341.98,227.82C342.67,227.65 343.39,227.43 344.12,227.18C345.668,226.604 347.181,225.936 348.65,225.18C350.17,224.39 351.7,223.55 353.2,222.63C353.93,222.21 354.69,221.7 355.44,221.23L356.54,220.51L359.54,218.51L364.16,228.55Z" style="fill-opacity:0.2;fill-rule:nonzero;"/>
            <path d="M323.38,219.58L319.06,217.51L322.54,212.14C322.54,212.14 326.19,215.14 326.54,218.21L323.38,219.58Z" style="fill:rgb(255,139,123);fill-rule:nonzero;"/>
            <path d="M314.38,214.02L317.3,210.7L322.55,212.15L319.06,217.51L314.38,214.02Z" style="fill:rgb(255,139,123);fill-rule:nonzero;"/>
            <path d="M405.62,410.08C406.082,408.976 406.731,407.961 407.54,407.08C408.349,406.199 410.79,401.49 408.28,391.78L412.75,387.85C413.969,387.859 415.137,388.339 416.01,389.19C416.58,389.816 417.101,390.485 417.57,391.19C419.21,394 422.8,400.45 422.8,400.45L422.13,400.82C420.95,398.911 419.661,397.071 418.27,395.31C416.8,393.66 416.83,396.6 417.37,399.09C417.91,401.58 416.31,405.52 412.05,408.09C407.12,411.17 404.93,412.14 405.62,410.08Z" style="fill:rgb(38,50,56);fill-rule:nonzero;"/>
            <path d="M413.81,396.78C413.81,398.43 414.92,401.34 413.45,403.51C412.126,405.539 409.951,406.861 407.54,407.1C405.129,407.339 410.08,402.75 408.94,395.05C408.775,393.956 408.554,392.872 408.28,391.8C408.006,390.728 412.16,388.93 413.94,388.53L414.88,391.09C414.726,392.788 414.391,394.464 413.88,396.09C413.812,396.313 413.788,396.548 413.81,396.78Z" style="fill:rgb(255,139,123);fill-rule:nonzero;"/>
            <path d="M414.88,391.09C414.726,392.788 414.391,394.464 413.88,396.09C413.802,396.311 413.768,396.546 413.78,396.78L410.12,398.33L408.91,395.05L404.61,383.36L411.02,380.64L413.91,388.53L414.88,391.09Z" style="fill:rgb(255,139,123);fill-rule:nonzero;"/>
            <path d="M411.05,380.65L404.64,383.36L406.83,389.3L406.91,389.3C409.304,389.413 411.633,388.482 413.29,386.75L411.05,380.65Z" style="fill-opacity:0.2;fill-rule:nonzero;"/>
            <path d="M356.8,406.42C357.782,405.775 358.863,405.295 360,405C361.137,404.705 365.75,402.05 368.86,392.51L374.86,391.3C375.92,391.819 376.72,392.753 377.07,393.88C377.12,394.927 377.1,395.976 377.01,397.02C376.91,400.29 376.37,408.76 376.37,408.76L375.6,408.76C375.655,406.158 375.575,403.554 375.36,400.96C375.01,398.78 373.45,401.26 372.56,403.66C371.67,406.06 368.21,408.49 363.22,408.38C357.43,408.13 355.08,407.76 356.8,406.42Z" style="fill:rgb(38,50,56);fill-rule:nonzero;"/>
            <path d="M373.93,396C373.254,397.176 372.377,398.225 371.34,399.1C370.14,400.01 369.74,403.9 366.94,405.1C364.731,406.112 362.179,406.075 360,405C357.821,403.925 364.33,402.78 367.52,395.94C368.25,394.356 368.46,392.581 368.12,390.87L366,379.76L373.28,378.81L375.12,392.07C375.246,393.484 374.819,394.893 373.93,396Z" style="fill:rgb(255,139,123);fill-rule:nonzero;"/>
            <path d="M365.38,375.55L367.06,385.31L367.69,385.46C369.878,385.957 372.177,385.482 373.99,384.16L372.75,374.71L365.38,375.55Z" style="fill-opacity:0.2;fill-rule:nonzero;"/>
            <path d="M389.66,223.3C389.655,223.022 389.635,222.745 389.6,222.47C389.093,217.904 385.189,214.409 380.595,214.409C380.246,214.409 379.897,214.43 379.55,214.47L379.39,214.47C378.78,214.54 378.15,214.63 377.53,214.72C373.298,215.275 369.111,216.131 365,217.28C364.3,217.47 363.58,217.7 362.88,217.93C361.93,218.25 360.98,218.58 360.08,218.93C355.846,220.486 353.378,224.97 354.33,229.38C355.745,237.189 358.271,244.756 361.83,251.85C363.01,254.19 363.19,258.93 364.19,261.85L391.75,256.27L391.75,256.32C390.45,247.64 389.89,232.91 389.66,223.3Z" style="fill:rgb(38,50,56);fill-rule:nonzero;"/>
            <path d="M364.21,261.79C364.21,261.79 362.68,296.99 361.31,324.01C360.23,345.5 364.42,382.21 364.42,382.21C368.222,383.179 372.256,382.618 375.65,380.65C375.81,382.38 377.31,346.85 375.65,326.39C383.39,296.46 394.74,268.17 386.36,257.15L364.21,261.79Z" style="fill:rgb(38,50,56);fill-rule:nonzero;"/>
            <path d="M377.32,282.45L388.69,276C387.15,286.67 382.98,300.08 378.93,314.39C375.77,303 374.3,291.13 377.32,282.45Z" style="fill-opacity:0.3;fill-rule:nonzero;"/>
            <path d="M369.15,262.65C369.15,262.65 376.69,289.92 381.55,316.05C383.66,334.83 403.87,386.17 403.87,386.17L407.35,385.51C409.001,385.19 410.532,384.418 411.77,383.28L412.94,382.21C412.94,382.21 406.94,345 401.15,330.51C401.29,300.23 401.85,267.6 390.47,257.44L369.15,262.65Z" style="fill:rgb(38,50,56);fill-rule:nonzero;"/>
            <path d="M378.13,214.51C378.13,214.51 375.24,246.74 382.55,288.62C394.55,287.9 401.96,284.57 401.96,284.57C401.96,284.57 399.5,261.86 392.1,250.28C390.83,242.16 391.97,224.84 391.21,218.52C390.928,216.249 389.138,214.438 386.87,214.13C383.952,213.92 381.019,214.047 378.13,214.51Z" style="fill:rgb(64,123,255);fill-rule:nonzero;"/>
            <path d="M378.13,214.51C378.13,214.51 375.24,246.74 382.55,288.62C394.55,287.9 401.96,284.57 401.96,284.57C401.96,284.57 399.5,261.86 392.1,250.28C390.83,242.16 391.97,224.84 391.21,218.52C390.928,216.249 389.138,214.438 386.87,214.13C383.952,213.92 381.019,214.047 378.13,214.51Z" style="fill-opacity:0.1;fill-rule:nonzero;"/>
            <path d="M364.89,216.84C364.89,216.84 363.32,232.11 373.14,289.41C369.25,291.47 360.94,290.76 360.94,290.76C360.94,290.76 361.08,271.68 362.38,256.44C363.01,249.03 357.64,247.93 354.61,239.74C353.12,230.26 354.02,222.55 355.36,221.46C357.53,219.71 361.09,217.32 364.89,216.84Z" style="fill:rgb(64,123,255);fill-rule:nonzero;"/>
            <path d="M364.89,216.84C364.89,216.84 363.32,232.11 373.14,289.41C369.25,291.47 360.94,290.76 360.94,290.76C360.94,290.76 361.08,271.68 362.38,256.44C363.01,249.03 357.64,247.93 354.61,239.74C353.12,230.26 354.02,222.55 355.36,221.46C357.53,219.71 361.09,217.32 364.89,216.84Z" style="fill-opacity:0.1;fill-rule:nonzero;"/>
            <path d="M378,214.42C378,214.42 377.44,227.61 377.64,237.26C378.64,230.43 381.06,223.9 380.99,221.74C380.293,221.37 379.625,220.949 378.99,220.48C379.76,219.851 380.599,219.31 381.49,218.87C381.609,217.253 381.633,215.63 381.56,214.01C379.63,214.18 378,214.42 378,214.42Z" style="fill:white;fill-opacity:0.7;fill-rule:nonzero;"/>
            <path d="M365,216.72C364.802,224.351 365.136,231.986 366,239.57C363.87,233.48 361.12,227.66 361.37,225.37C362.48,224.44 363.46,223.37 363.46,223.37C362.753,222.929 361.975,222.614 361.16,222.44C361.19,220.737 361.32,219.038 361.55,217.35C363.44,217 365,216.72 365,216.72Z" style="fill:white;fill-opacity:0.7;fill-rule:nonzero;"/>
            <path d="M388,219.12C386.135,222.41 387.206,226.642 390.41,228.65L390.47,228.65C392.47,229.88 394.37,231.12 396.23,232.39C398.09,233.66 399.91,234.98 401.56,236.29C402.335,236.917 403.076,237.585 403.78,238.29C404.061,238.563 404.328,238.85 404.58,239.15C404.79,239.39 404.89,239.57 404.86,239.45L404.6,238.08C404.7,238.946 404.521,239.822 404.09,240.58C403.468,241.893 402.704,243.134 401.81,244.28C400.831,245.588 399.78,246.84 398.66,248.03C397.55,249.27 396.3,250.51 395.16,251.66L398.11,256.21C399.842,255.41 401.513,254.484 403.11,253.44C404.748,252.388 406.303,251.211 407.76,249.92C409.364,248.528 410.783,246.935 411.98,245.18C412.753,244.015 413.372,242.754 413.82,241.43C414.244,240.161 414.447,238.828 414.42,237.49L414.42,236.94L414.18,236.23C413.883,235.358 413.487,234.522 413,233.74C412.491,232.932 411.923,232.163 411.3,231.44C410.391,230.379 409.416,229.377 408.38,228.44C406.497,226.709 404.517,225.086 402.45,223.58C400.45,222.09 398.4,220.7 396.34,219.37C394.28,218.04 392.22,216.78 390,215.56L388,219.12Z" style="fill:rgb(64,123,255);fill-rule:nonzero;"/>
            <path d="M398.61,251.79C396.434,251.048 394.063,251.112 391.93,251.97L394.45,259.6L398.38,256.19L398.61,251.79Z" style="fill:rgb(255,139,123);fill-rule:nonzero;"/>
            <path d="M394.45,259.6L391.93,251.97L388.06,256.24L391.32,261.51L394.45,259.6Z" style="fill:rgb(255,139,123);fill-rule:nonzero;"/>
        </g>
        <path d="M361.27,213.75C359.684,204.345 361.014,194.677 365.08,186.05C369.84,176.05 389.71,183.05 386.71,199.83C384.94,209.72 380.71,208.04 388.18,214.65C392.49,218.45 379.78,219.44 378.73,216.9C378.73,216.9 374.19,217.33 371.04,214.78C371,214.78 362.07,218.93 361.27,213.75Z" style="fill:rgb(38,50,56);fill-rule:nonzero;"/>
        <path d="M369,223.71C373.33,224.41 376.11,218.87 377.2,216.13L376.71,216.13C375.47,212.68 376.35,207.07 377.16,203.75L369.16,210.04C369.65,212.6 369.73,215.26 367.36,216.68C366.88,216.76 366.36,216.86 365.93,216.96C365.4,219.5 365.35,223.13 369,223.71Z" style="fill:rgb(255,139,123);fill-rule:nonzero;"/>
        <path d="M373.72,206.33L369,210.05C369.159,210.794 369.26,211.55 369.3,212.31C371.04,212.13 373.71,210.69 373.97,208.88C374.037,208.022 373.953,207.159 373.72,206.33Z" style="fill-opacity:0.2;fill-rule:nonzero;"/>
        <path d="M381.41,197.85C378.86,204.15 377.92,206.85 373.57,209.09C367.02,212.43 359.83,207.93 360.44,200.99C360.99,194.74 365.06,185.48 372.21,184.99C372.421,184.976 372.633,184.968 372.845,184.968C377.936,184.968 382.125,189.157 382.125,194.248C382.125,195.474 381.882,196.688 381.41,197.82L381.41,197.85Z" style="fill:rgb(255,139,123);fill-rule:nonzero;"/>
        <path d="M366.4,195.83C365.532,196.872 364.522,197.788 363.4,198.55C363.8,199.127 364.44,199.495 365.14,199.55L366.4,195.83Z" style="fill:rgb(216,91,91);fill-rule:nonzero;"/>
        <path d="M373,194.91C373.045,194.925 373.095,194.925 373.14,194.91C373.239,194.871 373.304,194.775 373.304,194.668C373.304,194.631 373.296,194.594 373.28,194.56C372.889,193.612 372.06,192.91 371.06,192.68C371.045,192.678 371.03,192.676 371.015,192.676C370.865,192.676 370.741,192.8 370.741,192.95C370.741,193.083 370.839,193.198 370.97,193.22C371.793,193.421 372.471,194.005 372.79,194.79C372.837,194.861 372.915,194.905 373,194.91Z" style="fill:rgb(38,50,56);fill-rule:nonzero;"/>
        <path d="M363.17,191C363.216,191.01 363.264,191.01 363.31,191C364.085,190.667 364.973,190.723 365.7,191.15C365.746,191.184 365.803,191.203 365.86,191.203C365.947,191.203 366.029,191.161 366.08,191.09C366.161,190.966 366.13,190.797 366.01,190.71C365.131,190.175 364.046,190.097 363.1,190.5C362.994,190.535 362.923,190.635 362.923,190.747C362.923,190.778 362.929,190.81 362.94,190.84C362.977,190.938 363.066,191.008 363.17,191.02L363.17,191Z" style="fill:rgb(38,50,56);fill-rule:nonzero;"/>
        <path d="M370.39,196.2C370.22,196.72 369.8,197.05 369.45,196.94C369.1,196.83 368.97,196.31 369.16,195.78C369.35,195.25 369.75,194.93 370.09,195.04C370.43,195.15 370.57,195.67 370.39,196.2Z" style="fill:rgb(38,50,56);fill-rule:nonzero;"/>
        <path d="M364.47,194.22C364.29,194.74 363.87,195.07 363.53,194.96C363.19,194.85 363.05,194.33 363.23,193.81C363.41,193.29 363.82,192.95 364.16,193.07C364.5,193.19 364.65,193.69 364.47,194.22Z" style="fill:rgb(38,50,56);fill-rule:nonzero;"/>
        <path d="M364.3,193.14L363.17,192.36C363.17,192.36 363.49,193.56 364.3,193.14Z" style="fill:rgb(38,50,56);fill-rule:nonzero;"/>
        <path d="M370.23,195.12L369.09,194.34C369.09,194.34 369.41,195.54 370.23,195.12Z" style="fill:rgb(38,50,56);fill-rule:nonzero;"/>
        <path d="M369.05,203.29C369.392,203.197 369.727,203.076 370.05,202.93C370.142,202.885 370.186,202.776 370.15,202.68C370.105,202.588 369.996,202.544 369.9,202.58C368.412,203.279 366.677,203.231 365.23,202.45C365.198,202.428 365.159,202.416 365.12,202.416C365.013,202.416 364.926,202.503 364.926,202.61C364.926,202.674 364.957,202.734 365.01,202.77C366.24,203.455 367.687,203.641 369.05,203.29Z" style="fill:rgb(38,50,56);fill-rule:nonzero;"/>
        <path d="M369.91,187C369.91,187 367.72,188.81 369.02,190.56C370.32,192.31 374.35,191.56 375.12,194.91C375.89,198.26 374.43,200.85 376.86,201.91C379.29,202.97 381.62,199.65 381.62,199.65C381.62,199.65 385.45,191.85 380.72,187.65C375.99,183.45 370.49,181.98 367.2,183.88C363.91,185.78 362.07,187.15 363.29,187.97C364.51,188.79 366.41,189.38 367.23,188.56C367.954,187.792 368.885,187.25 369.91,187Z" style="fill:rgb(38,50,56);fill-rule:nonzero;"/>
        <path d="M381.23,203.44C380.466,204.499 379.316,205.217 378.03,205.44C376.31,205.72 375.64,204.14 376.27,202.61C376.84,201.25 378.42,199.44 380.08,199.85C381.263,200.187 381.961,201.435 381.63,202.62C381.559,202.92 381.423,203.2 381.23,203.44Z" style="fill:rgb(255,139,123);fill-rule:nonzero;"/>
        <path d="M364.9,217.07C365.501,216.705 366.198,216.531 366.9,216.57C367.602,216.609 364.96,222.73 369.38,223.08C373.8,223.43 377.13,215.87 377.13,215.87C377.744,215.637 378.432,215.704 378.99,216.05C379.548,216.396 375.49,224.81 369.4,224.56C363.31,224.31 364.9,217.07 364.9,217.07Z" style="fill:rgb(64,123,255);fill-rule:nonzero;"/>
        <path d="M364.9,217.07C365.501,216.705 366.198,216.531 366.9,216.57C367.602,216.609 364.96,222.73 369.38,223.08C373.8,223.43 377.13,215.87 377.13,215.87C377.744,215.637 378.432,215.704 378.99,216.05C379.548,216.396 375.49,224.81 369.4,224.56C363.31,224.31 364.9,217.07 364.9,217.07Z" style="fill:white;fill-opacity:0.7;fill-rule:nonzero;"/>
        <path d="M377.59,198.11L373.34,196.46C373.2,195.26 371.68,194.67 371.03,194.41C370.38,194.15 368.73,193.52 367.83,194.46L366.35,193.89C366.35,192.59 364.7,191.95 364.02,191.69C363.34,191.43 361.14,190.57 360.44,192.37C360.36,192.648 360.32,192.937 360.32,193.226C360.32,194.932 361.724,196.336 363.43,196.336C364.605,196.336 365.683,195.67 366.21,194.62C366.248,194.526 366.278,194.429 366.3,194.33L367.57,194.82C367.519,194.906 367.475,194.996 367.44,195.09C367.36,195.368 367.32,195.657 367.32,195.946C367.32,197.652 368.724,199.056 370.43,199.056C371.605,199.056 372.683,198.39 373.21,197.34C373.267,197.202 373.307,197.058 373.33,196.91L377.43,198.51C377.994,198.726 378.465,199.133 378.76,199.66L379.13,199.45C378.786,198.84 378.242,198.366 377.59,198.11ZM362.47,195.69C361.157,195.263 360.42,193.839 360.83,192.52C361.21,191.52 362.12,191.41 363.83,192.09C365.54,192.77 366.16,193.48 365.78,194.46C365.192,195.688 363.717,196.236 362.47,195.69ZM369.47,198.41C368.158,197.987 367.42,196.566 367.83,195.25C368.22,194.25 369.12,194.13 370.83,194.81C372.54,195.49 373.16,196.2 372.78,197.18C372.196,198.412 370.717,198.962 369.47,198.41Z" style="fill:rgb(38,50,56);fill-rule:nonzero;"/>
    </g>
    <g id="freepik--character-1--inject-298">
        <path d="M129,205.24C129,205.24 120.91,205.84 116.5,215.11C112.09,224.38 109.08,241.79 119.5,242.25C129.92,242.71 128.98,240.16 128.98,240.16L128.98,235.52L122.29,233.52C121.204,233.192 120.456,232.185 120.456,231.05C120.456,230.761 120.505,230.473 120.6,230.2L124.12,220.2L129,205.24Z" style="fill:rgb(64,123,255);fill-rule:nonzero;"/>
        <path d="M129,205.24C129,205.24 120.91,205.84 116.5,215.11C112.09,224.38 109.08,241.79 119.5,242.25C129.92,242.71 128.98,240.16 128.98,240.16L128.98,235.52L122.29,233.52C121.204,233.192 120.456,232.185 120.456,231.05C120.456,230.761 120.505,230.473 120.6,230.2L124.12,220.2L129,205.24Z" style="fill-opacity:0.2;fill-rule:nonzero;"/>
        <path d="M150.07,181.21C150.41,181.15 150.76,181.51 150.87,182.02C150.98,182.53 150.79,183.02 150.45,183.02C150.11,183.02 149.76,182.73 149.65,182.22C149.54,181.71 149.73,181.27 150.07,181.21Z" style="fill:rgb(38,50,56);fill-rule:nonzero;"/>
        <path d="M151.05,188C151.948,188.03 152.815,187.664 153.42,187C152.131,185.855 151.004,184.539 150.07,183.09L151.05,188Z" style="fill:rgb(236,131,126);fill-rule:nonzero;"/>
        <path d="M147.41,179.73C147.916,179.126 148.684,178.801 149.47,178.86C149.502,178.871 149.538,178.871 149.57,178.86C149.74,178.86 149.88,178.72 149.88,178.55C149.88,178.547 149.88,178.543 149.88,178.54C149.88,178.375 149.745,178.24 149.58,178.24C149.577,178.24 149.573,178.24 149.57,178.24C148.589,178.123 147.612,178.498 146.96,179.24C146.909,179.298 146.88,179.373 146.88,179.45C146.885,179.62 147.02,179.76 147.19,179.77C147.266,179.78 147.343,179.766 147.41,179.73Z" style="fill:rgb(38,50,56);fill-rule:nonzero;"/>
        <path d="M145.28,197.2C144.34,200.91 144.28,205.51 148.35,206.77C148.35,206.77 153.41,211.01 143.67,211.01C134.83,211.01 133.52,206.18 133.52,206.18C136.86,202.99 136.29,196.4 135.36,191.63L145.28,197.2Z" style="fill:rgb(255,194,188);fill-rule:nonzero;"/>
        <path d="M129.91,205.36C129.91,205.36 131.51,201.12 133.69,199.86C135.87,198.6 145.03,200.48 146.45,201.11C147.87,201.74 149.17,205.11 149.17,205.11L129.91,205.36Z" style="fill:rgb(64,123,255);fill-rule:nonzero;"/>
        <path d="M129.91,205.36C129.91,205.36 131.51,201.12 133.69,199.86C135.87,198.6 145.03,200.48 146.45,201.11C147.87,201.74 149.17,205.11 149.17,205.11L129.91,205.36Z" style="fill-opacity:0.2;fill-rule:nonzero;"/>
        <path d="M143.86,401.94C143.787,401.929 143.732,401.866 143.732,401.792C143.732,401.737 143.762,401.686 143.81,401.66C143.93,401.6 146.21,400.31 147.29,400.6C147.498,400.648 147.678,400.778 147.79,400.96C147.929,401.161 147.929,401.429 147.79,401.63C147.52,402.01 146.79,402.13 145.87,402.13C145.196,402.121 144.524,402.058 143.86,401.94ZM146.86,400.85C145.961,400.958 145.092,401.24 144.3,401.68C145.51,401.85 147.16,401.84 147.46,401.42C147.53,401.36 147.56,401.27 147.46,401.08C147.396,400.969 147.286,400.892 147.16,400.87C147.061,400.85 146.959,400.85 146.86,400.87L146.86,400.85Z" style="fill:rgb(64,123,255);fill-rule:nonzero;"/>
        <path d="M143.8,401.91C143.761,401.873 143.736,401.823 143.73,401.77C143.774,400.845 144.126,399.962 144.73,399.26C144.97,399.054 145.285,398.956 145.6,398.99C146.03,399.04 146.18,399.26 146.18,399.43C146.3,400.19 144.74,401.57 143.95,401.93L143.89,401.93C143.859,401.93 143.828,401.923 143.8,401.91ZM145.52,399.29C145.313,399.289 145.114,399.372 144.97,399.52C144.481,400.081 144.177,400.78 144.1,401.52C144.91,401.03 145.96,399.92 145.89,399.52C145.89,399.52 145.89,399.35 145.59,399.35L145.5,399.35L145.52,399.29Z" style="fill:rgb(64,123,255);fill-rule:nonzero;"/>
        <path d="M137.4,386.69L143.91,386.69L143.26,401.77L136.75,401.77L137.4,386.69Z" style="fill:rgb(255,194,188);fill-rule:nonzero;"/>
        <path d="M144.79,401.53C149.19,404.24 150.55,404.36 155.64,405.53C156.76,405.77 156.02,408.47 153.35,408.47C148.93,408.47 148.47,408.27 144.7,408.27C141.47,408.27 137.77,408.41 135.2,408.46C135.124,408.47 135.046,408.47 134.97,408.46C134.468,408.342 134.152,407.832 134.27,407.33L135.55,401.55C135.61,401.289 135.843,401.102 136.11,401.1L143.22,401.1C143.773,401.096 144.316,401.245 144.79,401.53Z" style="fill:rgb(38,50,56);fill-rule:nonzero;"/>
        <path d="M152.7,205.26C146.229,204.779 139.737,204.629 133.25,204.81C131.55,204.93 129.86,205.1 128.18,205.31C125.058,205.707 122.693,208.393 122.693,211.54C122.693,211.888 122.722,212.236 122.78,212.58C126.64,235.72 124.7,258.42 124.17,262.98L158.96,262.65C162.6,234.01 161.63,219.57 160.23,212.56C159.482,208.807 156.474,205.891 152.7,205.26Z" style="fill:rgb(64,123,255);fill-rule:nonzero;"/>
        <path d="M152.7,205.26C146.229,204.779 139.737,204.629 133.25,204.81C131.55,204.93 129.86,205.1 128.18,205.31C125.058,205.707 122.693,208.393 122.693,211.54C122.693,211.888 122.722,212.236 122.78,212.58C126.64,235.72 124.7,258.42 124.17,262.98L158.96,262.65C162.6,234.01 161.63,219.57 160.23,212.56C159.482,208.807 156.474,205.891 152.7,205.26Z" style="fill-opacity:0.1;fill-rule:nonzero;"/>
        <path d="M137.39,386.7L137.06,394.47L143.58,394.47L143.91,386.7L137.39,386.7Z" style="fill-opacity:0.2;fill-rule:nonzero;"/>
        <path d="M132.09,180.62C133.007,175.869 137.667,172.71 142.42,173.62C149.12,174.88 151.89,184.08 151.69,190.04C151.49,196.65 144.24,201.13 138.45,197.23C134.6,194.63 133.93,190.9 132.26,184.66C131.896,183.344 131.837,181.962 132.09,180.62Z" style="fill:rgb(255,194,188);fill-rule:nonzero;"/>
        <path d="M124.68,260.57C124.68,260.57 118.01,281.94 112.85,303.69C106.12,332 89.9,390 89.9,390L101.38,392.53C101.38,392.53 125.06,325.09 131.28,304.76C136.97,286.2 147.15,260.59 147.15,260.59L124.68,260.57Z" style="fill:rgb(38,50,56);fill-rule:nonzero;"/>
        <path d="M138.54,284.34C128.3,312.19 126.13,320.55 125.98,321.09C127.22,304.14 132.32,285.23 138.54,284.34C139,284.27 138.12,284.21 138.54,284.34Z" style="fill-opacity:0.3;fill-rule:nonzero;"/>
        <path d="M136.6,260.57C136.6,260.57 135.84,284.26 135.36,306.37C134.91,326.66 135.36,392.97 135.36,392.97L146.36,392.97C146.36,392.97 154.83,325.32 157.07,304.69C159.24,284.87 159.47,260.57 159.47,260.57L136.6,260.57Z" style="fill:rgb(38,50,56);fill-rule:nonzero;"/>
        <path d="M133.73,389.07L134.1,393.15L147.51,393.15C147.51,393.15 148.18,388.57 148.13,388.57L133.73,389.07Z" style="fill:rgb(64,123,255);fill-rule:nonzero;"/>
        <path d="M89.58,401.87C89.558,401.928 89.502,401.966 89.44,401.966C89.378,401.966 89.322,401.928 89.3,401.87C89.24,401.76 87.96,399.47 88.3,398.39C88.352,398.186 88.481,398.01 88.66,397.9C88.864,397.759 89.136,397.759 89.34,397.9C89.71,398.18 89.82,398.95 89.82,399.82C89.798,400.509 89.718,401.195 89.58,401.87ZM88.52,398.82C88.611,399.717 88.88,400.587 89.31,401.38C89.49,400.17 89.49,398.53 89.07,398.22C89.07,398.15 88.93,398.12 88.73,398.22C88.616,398.286 88.539,398.4 88.52,398.53C88.5,398.626 88.5,398.724 88.52,398.82Z" style="fill:rgb(64,123,255);fill-rule:nonzero;"/>
        <path d="M89.57,401.93C89.538,401.974 89.484,401.997 89.43,401.99C88.509,401.943 87.629,401.591 86.93,400.99C86.728,400.748 86.634,400.433 86.67,400.12C86.67,399.7 86.93,399.56 87.11,399.56C87.85,399.44 89.24,401.01 89.59,401.79L89.59,401.85C89.592,401.878 89.585,401.906 89.57,401.93ZM87,400.22C87.011,400.419 87.089,400.609 87.22,400.76C87.782,401.248 88.48,401.552 89.22,401.63C88.74,400.82 87.64,399.76 87.22,399.83C87.22,399.83 87.05,399.83 87.05,400.13L87.05,400.22L87,400.22Z" style="fill:rgb(64,123,255);fill-rule:nonzero;"/>
        <path d="M92.42,389.37L98.77,389.85L95.84,402.32L89.48,401.87L92.42,389.37Z" style="fill:rgb(255,194,188);fill-rule:nonzero;"/>
        <path d="M92.5,389.02L91.21,394.51L97.56,394.96L98.86,389.46L92.5,389.02Z" style="fill-opacity:0.2;fill-rule:nonzero;"/>
        <path d="M88,401C86.29,403 85.38,404.07 80.41,405.64C79.31,405.98 80.29,408.64 82.96,408.37C87.36,407.98 84.96,407.99 88.68,407.65C91.89,407.37 95.59,407.19 98.15,407.01C98.236,407.02 98.324,407.02 98.41,407.01C98.885,406.829 99.15,406.312 99.02,405.82L97.23,400.16C97.151,399.907 96.903,399.744 96.64,399.77L89.56,400.4C88.982,400.387 88.421,400.603 88,401Z" style="fill:rgb(38,50,56);fill-rule:nonzero;"/>
        <path d="M88.53,387.85L88.46,392L102.27,393.48C102.27,393.48 103.45,389 103.4,389L88.53,387.85Z" style="fill:rgb(64,123,255);fill-rule:nonzero;"/>
        <path d="M134.24,172.28C137.54,171.01 138.03,170.71 139.96,167.74C141.03,166.08 140.88,164.63 144.13,164.1C144.549,164.029 144.973,163.993 145.398,163.993C149.539,163.993 152.948,167.401 152.948,171.543C152.948,174.18 151.566,176.633 149.31,178C147.61,179.05 150.13,176.51 148.31,177.28C146.49,178.05 146.87,177.17 146.76,179.17C146.67,180.7 147.6,182.08 148.2,183.5C148.8,184.92 148.94,186.83 147.69,187.73C148.04,186.56 145.19,189.73 145.3,190.97C145.6,194.35 142.6,197.45 139.25,197.91C131.87,198.91 127.02,190.35 124.89,184.46C122,176.62 126.45,175.27 134.24,172.28Z" style="fill:rgb(38,50,56);fill-rule:nonzero;"/>
        <path d="M146.3,181.92C148.15,182.48 149.09,185.23 149.16,186.97C149.22,188.89 147.93,190.09 146.27,188.79C145.018,187.786 144.129,186.398 143.74,184.84C143.31,183 144.45,181.35 146.3,181.92Z" style="fill:rgb(255,194,188);fill-rule:nonzero;"/>
        <path d="M152.79,205.79C156.692,205.581 160.29,207.985 161.59,211.67C163.44,216.37 167.12,226.81 169,232.19C169.215,232.813 169.806,233.234 170.465,233.234C171.042,233.234 171.573,232.912 171.84,232.4L174.35,227.67C174.35,227.67 178.06,228.37 179.45,231.61C180.84,234.85 172.45,243.69 168.09,243.67C163.19,243.67 156.83,231.67 155.09,226.2C152.981,219.616 152.199,212.678 152.79,205.79Z" style="fill:white;fill-opacity:0.1;fill-rule:nonzero;"/>
        <path d="M174.35,229.2L177.22,224.33C177.22,224.33 175.6,221.33 176.66,219.33C177.72,217.33 178.77,218.95 179.8,218.33C180.83,217.71 183.14,213.48 184.25,215.61C185.36,217.74 186.74,221.42 181.02,225.77L177.93,233.53L174.35,229.2Z" style="fill:rgb(255,194,188);fill-rule:nonzero;"/>
        <path d="M174.78,227.15C177.336,227.696 179.381,229.629 180.07,232.15L180.07,232.25C180.15,232.7 180.71,236.03 180.07,236.09C179.43,236.15 178.51,232.96 173.25,230.19C173.04,230.08 172.908,229.861 172.908,229.624C172.908,229.514 172.936,229.406 172.99,229.31L174.12,227.45C174.25,227.217 174.519,227.094 174.78,227.15Z" style="fill:rgb(64,123,255);fill-rule:nonzero;"/>
        <path d="M174.78,227.15C177.336,227.696 179.381,229.629 180.07,232.15L180.07,232.25C180.15,232.7 180.71,236.03 180.07,236.09C179.43,236.15 178.51,232.96 173.25,230.19C173.04,230.08 172.908,229.861 172.908,229.624C172.908,229.514 172.936,229.406 172.99,229.31L174.12,227.45C174.25,227.217 174.519,227.094 174.78,227.15Z" style="fill:rgb(64,123,255);fill-rule:nonzero;"/>
        <path d="M152.79,205.79C156.692,205.581 160.29,207.985 161.59,211.67C163.44,216.37 167.12,226.81 169,232.19C169.215,232.813 169.806,233.234 170.465,233.234C171.042,233.234 171.573,232.912 171.84,232.4L174.35,227.67C174.35,227.67 178.06,228.37 179.45,231.61C180.84,234.85 172.45,243.69 168.09,243.67C163.19,243.67 156.83,231.67 155.09,226.2C152.981,219.616 152.199,212.678 152.79,205.79Z" style="fill:rgb(64,123,255);fill-rule:nonzero;"/>
        <path d="M152.79,205.79C156.692,205.581 160.29,207.985 161.59,211.67C163.44,216.37 167.12,226.81 169,232.19C169.215,232.813 169.806,233.234 170.465,233.234C171.042,233.234 171.573,232.912 171.84,232.4L174.35,227.67C174.35,227.67 178.06,228.37 179.45,231.61C180.84,234.85 172.45,243.69 168.09,243.67C163.19,243.67 156.83,231.67 155.09,226.2C152.981,219.616 152.199,212.678 152.79,205.79Z" style="fill:white;fill-opacity:0.1;fill-rule:nonzero;"/>
    </g>
</svg>
