<svg xmlns="http://www.w3.org/2000/svg" width="785.961" height="303.985"><defs/><defs><clipPath id="a" clipPathUnits="userSpaceOnUse"><path d="M0 227.989h589.471V0H0z"/></clipPath></defs><path fill="#2d5598" d="M571.52 211.335h-37.55V80.97h37.55zM371.396 180.364V80.97H333.85v99.394h-.003v30.97h88.916v-30.97zM510.907 80.97h-91.292v30.972h28.208v99.392h37.547v-99.392h25.537zM723.193 211.334l-46.104-70.996 40.918-59.368h-35.87l-22.446 32.57-21.152-32.57H594.89l42.33 65.178-44.925 65.186h35.867l26.457-38.39 24.93 38.39z"/><g clip-path="url(#a)" transform="matrix(1.33333 0 0 -1.33333 0 303.985)"><path fill="#2d5598" d="M193.638 103.269c13.344 4.728 30.266 13.989 38.025 31.55-6.975 19.622-26.016 33.73-48.473 33.73-28.362 0-51.353-22.464-51.353-50.174 0-.616.072-1.215.094-1.827 25.918-10.713 63.854.125 79.875 11.625a6.624 6.624 0 00-1.015 3.505c0 3.672 2.96 6.648 6.612 6.648s6.612-2.976 6.612-6.648c0-3.671-2.96-6.647-6.612-6.647-1.11 0-2.138.3-3.056.785-11.775-8.598-35.4-16.882-57.946-16.882-8.482 0-16.774 1.23-24.25 4a48.95 48.95 0 013.335-13.056c19.979-6.422 45.602-1.054 58.152 3.39"/><path fill="#2d5598" d="M175.16 79.07c-.7-2.919-3.296-5.097-6.414-5.097-3.65 0-6.61 2.98-6.61 6.648 0 3.672 2.96 6.65 6.61 6.65 2.994 0 5.494-2.014 6.308-4.758 19.176 2.523 45.453 10.906 59.457 36.475a49.068 49.068 0 01-1.399 10.97c-8.8-16.424-25.219-25.28-38.329-29.926-8.64-3.059-23.299-6.54-38.295-6.54-6.457 0-12.967.671-19.097 2.271 8.47-16.339 25.774-27.562 45.8-27.562 26.06 0 47.535 18.986 50.856 43.563-9.84-14.5-27.399-28.778-58.888-32.695M36.934 99.007l27.9 4.878c.624-4.543 1.892-8.007 3.807-10.386 3.114-3.846 7.565-5.772 13.353-5.772 4.318 0 7.643.98 9.982 2.952 2.338 1.97 3.504 4.248 3.504 6.848 0 2.465-1.11 4.669-3.337 6.617-2.226 1.946-7.389 3.782-15.49 5.513-13.265 2.899-22.725 6.749-28.377 11.552-5.7 4.8-8.546 10.922-8.546 18.36 0 4.89 1.455 9.509 4.373 13.856 2.914 4.348 7.3 7.763 13.152 10.254 5.853 2.486 13.878 3.729 24.07 3.729 12.51 0 22.045-2.26 28.613-6.78 6.565-4.522 9.475-7.012 11.692-16.6l-28.485-6.598c-.759 4.283-2.349 7.399-4.774 9.344-2.428 1.948-5.776 2.92-10.048 2.92-3.519 0-6.166-.724-7.947-2.175-1.78-1.45-2.67-3.211-2.67-5.286 0-1.515.734-2.877 2.203-4.09 1.424-1.253 4.806-2.422 10.15-3.502 13.218-2.77 22.69-5.57 28.41-8.403 5.717-2.834 9.88-6.35 12.486-10.544 2.602-4.197 3.905-8.891 3.905-14.081 0-6.1-1.736-11.725-5.208-16.872-3.47-5.145-8.325-9.051-14.557-11.712-6.23-2.66-14.088-3.99-23.567-3.99-16.65 0-28.178 3.115-34.587 9.344-6.412 6.23-8.02 11.156-10.007 20.624"/></g></svg>