<?xml version="1.0" encoding="UTF-8" standalone="no"?>
<!DOCTYPE svg PUBLIC "-//W3C//DTD SVG 1.1//EN" "http://www.w3.org/Graphics/SVG/1.1/DTD/svg11.dtd">
<svg width="100%" height="100%" viewBox="0 0 786 304" version="1.1" xmlns="http://www.w3.org/2000/svg" xmlns:xlink="http://www.w3.org/1999/xlink" xml:space="preserve" xmlns:serif="http://www.serif.com/" style="fill-rule:evenodd;clip-rule:evenodd;stroke-linejoin:round;stroke-miterlimit:2;">
    <g transform="matrix(1.33333,0,0,-1.33333,0,303.985)">
        <path d="M193.638,103.269C206.982,107.997 223.904,117.258 231.663,134.819C224.688,154.441 205.647,168.549 183.19,168.549C154.828,168.549 131.837,146.085 131.837,118.375C131.837,117.759 131.909,117.16 131.931,116.548C157.849,105.835 195.785,116.673 211.806,128.173C211.146,129.223 210.795,130.438 210.791,131.678C210.791,135.35 213.751,138.326 217.403,138.326C221.055,138.326 224.015,135.35 224.015,131.678C224.015,128.007 221.055,125.031 217.403,125.031C216.293,125.031 215.265,125.331 214.347,125.816C202.572,117.218 178.947,108.934 156.401,108.934C147.919,108.934 139.627,110.164 132.151,112.934C132.655,108.449 133.778,104.055 135.486,99.878C155.465,93.456 181.088,98.824 193.638,103.268" style="fill:rgb(59,130,246);fill-rule:nonzero;"/>
        <path d="M175.16,79.069C174.459,76.151 171.864,73.973 168.746,73.973C165.096,73.973 162.136,76.953 162.136,80.621C162.136,84.293 165.096,87.271 168.746,87.271C171.74,87.271 174.24,85.257 175.054,82.513C194.23,85.036 220.507,93.419 234.511,118.988C234.46,122.686 233.99,126.366 233.112,129.958C224.312,113.534 207.893,104.678 194.783,100.032C186.143,96.973 171.484,93.492 156.488,93.492C150.031,93.492 143.521,94.163 137.391,95.763C145.861,79.424 163.165,68.201 183.191,68.201C209.251,68.201 230.726,87.187 234.047,111.764C224.207,97.264 206.648,82.986 175.16,79.069Z" style="fill:rgb(59,130,246);"/>
        <g transform="matrix(11.5001,0,0,-11.5001,-1472.33,523.923)">
            <g transform="matrix(1,0,0,1,131.74,39.543)">
                <path d="M3.924,0.084C2.908,0.084 2.07,-0.154 1.41,-0.63C0.75,-1.106 0.392,-1.804 0.336,-2.724L3.168,-2.724C3.208,-2.236 3.424,-1.992 3.816,-1.992C3.96,-1.992 4.082,-2.026 4.182,-2.094C4.282,-2.162 4.332,-2.268 4.332,-2.412C4.332,-2.612 4.224,-2.774 4.008,-2.898C3.792,-3.022 3.456,-3.164 3,-3.324C2.456,-3.516 2.006,-3.704 1.65,-3.888C1.294,-4.072 0.988,-4.34 0.732,-4.692C0.476,-5.044 0.352,-5.496 0.36,-6.048C0.36,-6.6 0.502,-7.07 0.786,-7.458C1.07,-7.846 1.458,-8.14 1.95,-8.34C2.442,-8.54 2.996,-8.64 3.612,-8.64C4.652,-8.64 5.478,-8.4 6.09,-7.92C6.702,-7.44 7.024,-6.764 7.056,-5.892L4.188,-5.892C4.18,-6.132 4.12,-6.304 4.008,-6.408C3.896,-6.512 3.76,-6.564 3.6,-6.564C3.488,-6.564 3.396,-6.526 3.324,-6.45C3.252,-6.374 3.216,-6.268 3.216,-6.132C3.216,-5.94 3.322,-5.782 3.534,-5.658C3.746,-5.534 4.084,-5.384 4.548,-5.208C5.084,-5.008 5.526,-4.816 5.874,-4.632C6.222,-4.448 6.524,-4.192 6.78,-3.864C7.036,-3.536 7.164,-3.124 7.164,-2.628C7.164,-2.108 7.036,-1.642 6.78,-1.23C6.524,-0.818 6.152,-0.496 5.664,-0.264C5.176,-0.032 4.596,0.084 3.924,0.084Z" style="fill:rgb(59,130,246);fill-rule:nonzero;"/>
            </g>
            <g transform="matrix(1,0,0,1,139.24,39.543)">
                <path d="M4.74,0.084C3.94,0.084 3.206,-0.104 2.538,-0.48C1.87,-0.856 1.34,-1.376 0.948,-2.04C0.556,-2.704 0.36,-3.452 0.36,-4.284C0.36,-5.116 0.556,-5.864 0.948,-6.528C1.34,-7.192 1.87,-7.71 2.538,-8.082C3.206,-8.454 3.94,-8.64 4.74,-8.64C5.54,-8.64 6.272,-8.454 6.936,-8.082C7.6,-7.71 8.126,-7.192 8.514,-6.528C8.902,-5.864 9.096,-5.116 9.096,-4.284C9.096,-3.452 8.902,-2.704 8.514,-2.04C8.126,-1.376 7.598,-0.856 6.93,-0.48C6.262,-0.104 5.532,0.084 4.74,0.084ZM4.74,-2.4C5.268,-2.4 5.676,-2.57 5.964,-2.91C6.252,-3.25 6.396,-3.708 6.396,-4.284C6.396,-4.868 6.252,-5.33 5.964,-5.67C5.676,-6.01 5.268,-6.18 4.74,-6.18C4.204,-6.18 3.792,-6.01 3.504,-5.67C3.216,-5.33 3.072,-4.868 3.072,-4.284C3.072,-3.708 3.216,-3.25 3.504,-2.91C3.792,-2.57 4.204,-2.4 4.74,-2.4Z" style="fill:none;fill-rule:nonzero;"/>
            </g>
            <g transform="matrix(1,0,0,1,148.696,39.543)">
                <path d="M3.264,-2.016L5.832,-2.016L5.832,0L0.6,0L0.6,-8.496L3.264,-8.496L3.264,-2.016Z" style="fill:rgb(59,130,246);fill-rule:nonzero;"/>
                <path d="M13.344,-8.496L13.344,-6.384L11.088,-6.384L11.088,0L8.424,0L8.424,-6.384L6.192,-6.384L6.192,-8.496L13.344,-8.496Z" style="fill:rgb(59,130,246);fill-rule:nonzero;"/>
                <rect x="14.064" y="-8.496" width="2.664" height="8.496" style="fill:rgb(59,130,246);fill-rule:nonzero;"/>
                <path d="M23.34,0L21.78,-2.208L20.484,0L17.448,0L20.244,-4.38L17.328,-8.496L20.484,-8.496L21.984,-6.372L23.232,-8.496L26.268,-8.496L23.52,-4.2L26.496,0L23.34,0Z" style="fill:rgb(59,130,246);fill-rule:nonzero;"/>
            </g>
        </g>
    </g>
</svg>
