<?xml version="1.0" encoding="UTF-8" standalone="no"?>
<!DOCTYPE svg PUBLIC "-//W3C//DTD SVG 1.1//EN" "http://www.w3.org/Graphics/SVG/1.1/DTD/svg11.dtd">
<svg width="100%" height="100%" viewBox="0 0 24 24" version="1.1" xmlns="http://www.w3.org/2000/svg" xmlns:xlink="http://www.w3.org/1999/xlink" xml:space="preserve" xmlns:serif="http://www.serif.com/" style="fill-rule:evenodd;clip-rule:evenodd;stroke-linecap:round;stroke-linejoin:round;">
    <path d="M3,3L5,3L5.4,5M7,13L17,13L21,5L5.4,5M7,13L5.4,5M7,13L4.707,15.293C4.077,15.923 4.523,17 5.414,17L17,17M17,17C15.903,17 15,17.903 15,19C15,20.097 15.903,21 17,21C18.097,21 19,20.097 19,19C19,17.903 18.097,17 17,17ZM9,19C9,20.097 8.097,21 7,21C5.903,21 5,20.097 5,19C5,17.903 5.903,17 7,17C8.097,17 9,17.903 9,19Z" style="fill:none;fill-rule:nonzero;stroke:rgb(226,162,97);stroke-width:2px;"/>
</svg>
