<?xml version="1.0" encoding="UTF-8" standalone="no"?>
<!DOCTYPE svg PUBLIC "-//W3C//DTD SVG 1.1//EN" "http://www.w3.org/Graphics/SVG/1.1/DTD/svg11.dtd">
<svg width="100%" height="100%" viewBox="0 0 24 24" version="1.1" xmlns="http://www.w3.org/2000/svg" xmlns:xlink="http://www.w3.org/1999/xlink" xml:space="preserve" xmlns:serif="http://www.serif.com/" style="fill-rule:evenodd;clip-rule:evenodd;stroke-linecap:round;stroke-linejoin:round;">
    <path d="M4,6C4,4.903 4.903,4 6,4L8,4C9.097,4 10,4.903 10,6L10,8C10,9.097 9.097,10 8,10L6,10C4.903,10 4,9.097 4,8L4,6ZM14,6C14,4.903 14.903,4 16,4L18,4C19.097,4 20,4.903 20,6L20,8C20,9.097 19.097,10 18,10L16,10C14.903,10 14,9.097 14,8L14,6ZM4,16C4,14.903 4.903,14 6,14L8,14C9.097,14 10,14.903 10,16L10,18C10,19.097 9.097,20 8,20L6,20C4.903,20 4,19.097 4,18L4,16ZM14,16C14,14.903 14.903,14 16,14L18,14C19.097,14 20,14.903 20,16L20,18C20,19.097 19.097,20 18,20L16,20C14.903,20 14,19.097 14,18L14,16Z" style="fill:none;fill-rule:nonzero;stroke:rgb(226,162,97);stroke-width:2px;"/>
</svg>
