<?xml version="1.0" encoding="UTF-8" standalone="no"?>
<!DOCTYPE svg PUBLIC "-//W3C//DTD SVG 1.1//EN" "http://www.w3.org/Graphics/SVG/1.1/DTD/svg11.dtd">
<svg width="100%" height="100%" viewBox="0 0 20 20" version="1.1" xmlns="http://www.w3.org/2000/svg" xmlns:xlink="http://www.w3.org/1999/xlink" xml:space="preserve" xmlns:serif="http://www.serif.com/" style="fill-rule:evenodd;clip-rule:evenodd;stroke-linejoin:round;stroke-miterlimit:2;">
    <path d="M3,5C3,4.451 3.451,4 4,4L16,4C16.549,4 17,4.451 17,5C17,5.549 16.549,6 16,6L4,6C3.451,6 3,5.549 3,5ZM3,10C3,9.451 3.451,9 4,9L16,9C16.549,9 17,9.451 17,10C17,10.549 16.549,11 16,11L4,11C3.451,11 3,10.549 3,10ZM9,15C9,14.451 9.451,14 10,14L16,14C16.549,14 17,14.451 17,15C17,15.549 16.549,16 16,16L10,16C9.451,16 9,15.549 9,15Z" style="fill:white;"/>
</svg>
