<?xml version="1.0" encoding="UTF-8" standalone="no"?>
<!DOCTYPE svg PUBLIC "-//W3C//DTD SVG 1.1//EN" "http://www.w3.org/Graphics/SVG/1.1/DTD/svg11.dtd">
<svg width="100%" height="100%" viewBox="0 0 267 488" version="1.1" xmlns="http://www.w3.org/2000/svg" xmlns:xlink="http://www.w3.org/1999/xlink" xml:space="preserve" xmlns:serif="http://www.serif.com/" style="fill-rule:evenodd;clip-rule:evenodd;stroke-linejoin:round;stroke-miterlimit:2;">
    <g>
        <g>
            <g transform="matrix(1,0,0,1,28.3302,0.248502)">
                <path d="M83.823,100.714C83.823,100.714 91.677,95.811 105.354,95.141C111.683,94.831 119.238,95.422 127.832,97.797C127.857,97.804 127.884,97.79 127.891,97.765C127.898,97.74 127.884,97.713 127.859,97.706C119.298,94.974 111.711,94.087 105.325,94.149C91.157,94.285 82.85,99.093 82.85,99.093C82.402,99.362 82.257,99.943 82.525,100.39C82.794,100.838 83.375,100.983 83.823,100.714Z" style="fill:rgb(145,191,251);fill-opacity:0.54;"/>
            </g>
            <g transform="matrix(1,0,0,1,28.3302,0.248502)">
                <path d="M66.024,127.593C66.26,125.213 66.339,118.004 63.145,107.866C61.478,102.576 58.922,96.481 55.02,89.854C55.007,89.831 54.978,89.823 54.955,89.836C54.932,89.849 54.924,89.878 54.937,89.9C58.511,96.654 60.776,102.817 62.191,108.143C64.837,118.098 64.48,125.07 64.147,127.363C64.084,127.881 64.453,128.353 64.971,128.416C65.489,128.48 65.961,128.111 66.024,127.593Z" style="fill:rgb(145,191,251);fill-opacity:0.54;"/>
            </g>
            <g transform="matrix(1,0,0,1,28.3302,0.248502)">
                <path d="M8.776,399.459C8.776,399.459 5.334,300.401 34.238,204.348C46.93,162.17 65.855,120.571 94.061,88.202C117.417,62.379 137.652,46.228 157.968,37.001C175.127,29.208 192.34,26.354 211.532,26.761C211.607,26.763 211.669,26.704 211.671,26.63C211.673,26.555 211.614,26.493 211.54,26.491C187.699,25.725 166.848,30.023 145.288,42.484C128.744,52.047 111.784,66.419 92.741,87.017C63.953,119.337 44.418,161.043 31.165,203.405C1.002,299.818 3.402,399.616 3.402,399.616C3.445,401.099 4.685,402.268 6.168,402.224C7.651,402.181 8.819,400.942 8.776,399.459Z" style="fill:rgb(145,191,251);fill-opacity:0.54;"/>
            </g>
            <g transform="matrix(1,0,0,1,28.3302,0.248502)">
                <path d="M108.721,72.737C108.721,72.737 115.205,69.814 126.712,69.84C131.871,69.852 138.025,70.453 145.052,72.163C145.072,72.168 145.092,72.156 145.097,72.137C145.102,72.117 145.09,72.097 145.071,72.092C138.074,70.111 131.912,69.281 126.728,69.076C114.912,68.609 108.146,71.401 108.146,71.401C107.777,71.559 107.606,71.988 107.765,72.357C107.924,72.726 108.352,72.896 108.721,72.737Z" style="fill:rgb(145,191,251);fill-opacity:0.54;"/>
            </g>
            <g transform="matrix(1,0,0,1,28.3302,0.248502)">
                <path d="M47.672,164.517C47.672,164.517 56.276,159.452 67.747,157.159C74.308,155.848 81.794,155.442 89.154,157.385C89.18,157.392 89.206,157.377 89.213,157.352C89.22,157.327 89.206,157.301 89.181,157.294C81.829,155.024 74.252,155.132 67.573,156.182C55.751,158.04 46.746,162.868 46.746,162.868C46.291,163.123 46.129,163.7 46.385,164.155C46.64,164.61 47.217,164.772 47.672,164.517Z" style="fill:rgb(145,191,251);fill-opacity:0.54;"/>
            </g>
            <g transform="matrix(-0.448646,-0.89371,-0.89371,0.448646,240.208,138.802)">
                <path d="M46.746,162.868C46.746,162.868 55.751,158.04 67.573,156.182C74.252,155.132 81.829,155.024 89.181,157.294C89.206,157.301 89.22,157.327 89.213,157.352C89.206,157.377 89.18,157.392 89.154,157.385C81.794,155.442 74.308,155.848 67.747,157.159C56.276,159.452 47.672,164.517 47.672,164.517C47.217,164.772 46.64,164.61 46.385,164.155C46.129,163.7 46.291,163.123 46.746,162.868Z" style="fill:rgb(145,191,251);fill-opacity:0.54;"/>
            </g>
            <g transform="matrix(1,0,0,1,28.3302,0.248502)">
                <path d="M32.656,206.758C32.656,206.758 40.371,199.942 51.127,195.526C57.491,192.914 64.909,191.143 72.429,192.096C72.455,192.1 72.479,192.082 72.483,192.056C72.487,192.03 72.469,192.006 72.443,192.002C64.88,190.728 57.31,192.223 50.769,194.6C39.594,198.662 31.433,205.315 31.433,205.315C31.035,205.653 30.985,206.25 31.323,206.648C31.66,207.046 32.258,207.095 32.656,206.758Z" style="fill:rgb(145,191,251);fill-opacity:0.54;"/>
            </g>
            <g transform="matrix(0.998712,-0.0507361,0.0507361,0.998712,0.0793359,80.2483)">
                <path d="M32.788,206.914C32.788,206.914 40.454,200.079 51.166,195.627C57.511,192.989 64.911,191.187 72.428,192.106C72.459,192.111 72.488,192.089 72.493,192.057C72.498,192.026 72.476,191.996 72.444,191.992C64.877,190.682 57.291,192.148 50.73,194.5C39.509,198.522 31.3,205.159 31.3,205.159C30.816,205.57 30.756,206.296 31.167,206.78C31.577,207.264 32.304,207.324 32.788,206.914Z" style="fill:rgb(145,191,251);fill-opacity:0.54;"/>
            </g>
            <g transform="matrix(1,0,0,1,28.3302,0.248502)">
                <path d="M34.138,202.028C34.138,202.028 31.883,192.161 25.186,181.554C21.589,175.855 16.714,169.941 10.207,165.245C10.186,165.23 10.156,165.234 10.141,165.255C10.125,165.276 10.129,165.305 10.15,165.321C16.406,170.232 21.003,176.279 24.336,182.066C30.457,192.693 32.287,202.415 32.287,202.415C32.394,202.925 32.895,203.253 33.406,203.147C33.917,203.04 34.245,202.539 34.138,202.028Z" style="fill:rgb(145,191,251);fill-opacity:0.54;"/>
            </g>
            <g transform="matrix(0.998712,-0.0507361,0.0507361,0.998712,0.0793359,80.2483)">
                <path d="M34.338,201.986C34.338,201.986 32.038,192.104 25.278,181.498C21.652,175.809 16.748,169.91 10.213,165.237C10.188,165.218 10.152,165.223 10.132,165.248C10.113,165.274 10.118,165.31 10.144,165.329C16.373,170.264 20.939,176.325 24.244,182.122C30.305,192.751 32.087,202.456 32.087,202.456C32.217,203.078 32.827,203.477 33.448,203.347C34.069,203.217 34.468,202.607 34.338,201.986Z" style="fill:rgb(145,191,251);fill-opacity:0.54;"/>
            </g>
            <g transform="matrix(1,0,0,1,28.3302,0.248502)">
                <path d="M63.874,131.28C63.874,131.28 71.448,126.462 83.024,125.181C88.907,124.529 95.807,124.787 103.275,127.023C103.3,127.031 103.327,127.018 103.335,126.993C103.343,126.968 103.329,126.941 103.304,126.933C95.862,124.346 88.905,123.793 82.936,124.192C70.922,124.993 62.892,129.664 62.892,129.664C62.446,129.935 62.304,130.517 62.575,130.963C62.845,131.409 63.428,131.551 63.874,131.28Z" style="fill:rgb(145,191,251);fill-opacity:0.54;"/>
            </g>
            <g transform="matrix(1,0,0,1,28.3302,0.248502)">
                <path d="M82.772,102.065C82.772,102.065 84.472,92.382 82.419,79.351C81.381,72.759 79.385,65.309 75.707,57.828C75.696,57.804 75.668,57.794 75.644,57.805C75.62,57.816 75.61,57.844 75.621,57.868C78.974,65.436 80.666,72.905 81.435,79.486C82.934,92.304 80.916,101.704 80.916,101.704C80.816,102.216 81.151,102.713 81.663,102.813C82.176,102.913 82.672,102.577 82.772,102.065Z" style="fill:rgb(145,191,251);fill-opacity:0.54;"/>
            </g>
            <g transform="matrix(1,0,0,1,28.3302,0.248502)">
                <path d="M107.133,74.256C107.133,74.256 109.62,65.035 109.808,53.868C109.918,47.315 109.241,40.093 106.795,33.679C106.788,33.66 106.766,33.65 106.747,33.657C106.727,33.664 106.717,33.686 106.724,33.705C108.929,40.153 109.357,47.342 109.021,53.841C108.452,64.839 105.692,73.841 105.692,73.841C105.577,74.239 105.807,74.655 106.205,74.769C106.603,74.884 107.019,74.653 107.133,74.256Z" style="fill:rgb(145,191,251);fill-opacity:0.54;"/>
            </g>
            <g transform="matrix(1,0,0,1,28.3302,0.248502)">
                <path d="M136.272,49.518C136.272,49.518 141.612,41.549 144.371,30.778C145.945,24.633 146.681,17.576 145.091,10.571C145.087,10.555 145.071,10.544 145.055,10.548C145.039,10.551 145.028,10.567 145.032,10.583C146.415,17.578 145.495,24.56 143.763,30.613C140.751,41.138 135.284,48.836 135.284,48.836C135.096,49.109 135.165,49.483 135.438,49.671C135.71,49.859 136.084,49.79 136.272,49.518Z" style="fill:rgb(145,191,251);fill-opacity:0.54;"/>
            </g>
            <g transform="matrix(1,0,0,1,28.3302,0.248502)">
                <path d="M138.289,48.114C138.289,48.114 150.792,46.341 161.891,47.148C168.07,47.597 173.811,48.844 176.714,51.645C176.726,51.657 176.745,51.657 176.757,51.645C176.769,51.633 176.768,51.614 176.757,51.602C173.91,48.692 168.155,47.266 161.936,46.633C150.781,45.499 138.137,46.924 138.137,46.924C137.809,46.966 137.576,47.266 137.618,47.595C137.659,47.923 137.96,48.156 138.289,48.114Z" style="fill:rgb(145,191,251);fill-opacity:0.54;"/>
            </g>
            <g transform="matrix(1,0,0,1,26.1718,13.1446)">
                <path d="M26.187,230.493C26.187,230.493 38.192,222.747 50.167,218.917C56.603,216.859 63.022,215.93 67.564,217.948C67.593,217.962 67.628,217.949 67.641,217.92C67.655,217.891 67.643,217.856 67.614,217.842C63.099,215.564 56.529,216.187 49.886,217.956C37.542,221.243 24.975,228.507 24.975,228.507C24.427,228.842 24.254,229.558 24.588,230.106C24.923,230.654 25.639,230.828 26.187,230.493Z" style="fill:rgb(145,191,251);fill-opacity:0.54;"/>
            </g>
            <g transform="matrix(1,0,0,1,28.3302,0.248502)">
                <path d="M24.487,237.959C24.487,237.959 19.574,227.617 12.382,217.714C9.27,213.43 5.739,209.232 1.992,205.994C1.968,205.972 1.931,205.973 1.909,205.997C1.887,206.021 1.889,206.058 1.913,206.08C5.446,209.5 8.712,213.858 11.556,218.279C18.09,228.437 22.359,238.899 22.359,238.899C22.618,239.487 23.305,239.753 23.893,239.494C24.48,239.234 24.746,238.547 24.487,237.959Z" style="fill:rgb(145,191,251);fill-opacity:0.54;"/>
            </g>
        </g>
        <g>
            <g transform="matrix(1,0,0,1,28.3302,0.248502)">
                <path d="M38.874,200.848C38.874,200.848 77.8,167.935 82.605,192.392C85.842,208.867 58.092,202.386 38.874,200.848Z" style="fill:rgb(208,228,255);fill-opacity:0.54;"/>
            </g>
            <g transform="matrix(1,0,0,1,17.9874,38.603)">
                <path d="M38.874,200.848C38.874,200.848 82.583,166.354 84.718,191.145C86.159,207.873 58.092,202.386 38.874,200.848Z" style="fill:rgb(208,228,255);fill-opacity:0.54;"/>
            </g>
            <g transform="matrix(1,0,0,1,8.60384,78.2226)">
                <path d="M38.874,200.848C42.497,193.857 82.432,164.61 84.718,191.145C86.159,207.873 58.092,202.386 38.874,200.848Z" style="fill:rgb(208,228,255);fill-opacity:0.54;"/>
            </g>
            <g transform="matrix(1,0,0,1,41.4249,-34.8746)">
                <path d="M38.943,196.475C38.943,196.475 77.8,167.935 82.605,192.392C85.842,208.867 58.16,198.012 38.943,196.475Z" style="fill:rgb(208,228,255);fill-opacity:0.54;"/>
            </g>
            <g transform="matrix(1,0,0,1,54.8721,-65.363)">
                <path d="M40.416,194.317C42.046,191.291 90.168,170.865 89.985,196.055C89.996,214.005 59.633,195.854 40.416,194.317Z" style="fill:rgb(208,228,255);fill-opacity:0.54;"/>
            </g>
            <g transform="matrix(1,0,0,1,75.8833,-95.855)">
                <path d="M40.307,193.879C42.921,189.597 88.2,172.341 88.017,197.531C88.028,215.481 59.524,195.417 40.307,193.879Z" style="fill:rgb(208,228,255);fill-opacity:0.54;"/>
            </g>
            <g transform="matrix(1,0,0,1,99.7387,-121.762)">
                <path d="M40.307,193.879C42.921,189.597 85.467,172.511 85.284,197.702C85.295,215.652 59.524,195.417 40.307,193.879Z" style="fill:rgb(208,228,255);fill-opacity:0.54;"/>
            </g>
            <g transform="matrix(1,0,0,1,131.168,-144.501)">
                <path d="M40.962,192.09C43.577,187.807 85.066,175.981 79.945,200.638C76.259,218.385 60.18,193.627 40.962,192.09Z" style="fill:rgb(208,228,255);fill-opacity:0.54;"/>
            </g>
            <g transform="matrix(1,0,0,1,171.952,-166.459)">
                <path d="M32.671,196.848C35.286,192.565 82.419,172.622 80.776,197.751C79.802,216.461 48.775,199.994 32.671,196.848Z" style="fill:rgb(208,228,255);fill-opacity:0.54;"/>
            </g>
            <g transform="matrix(-0.740003,-0.672603,-0.672603,0.740003,225.401,76.441)">
                <path d="M39.501,201.534C39.501,201.534 77.8,167.935 82.605,192.392C85.842,208.867 58.719,203.071 39.501,201.534Z" style="fill:rgb(208,228,255);fill-opacity:0.54;"/>
            </g>
            <g transform="matrix(-0.740003,-0.672603,-0.672603,0.740003,215.281,113.475)">
                <path d="M39.501,201.534C39.501,201.534 79.476,168.406 84.281,192.863C87.517,209.338 58.719,203.071 39.501,201.534Z" style="fill:rgb(208,228,255);fill-opacity:0.54;"/>
            </g>
            <g transform="matrix(-0.740003,-0.672603,-0.672603,0.740003,206.419,152.709)">
                <path d="M39.501,201.534C39.501,201.534 79.476,168.406 84.281,192.863C87.517,209.338 58.719,203.071 39.501,201.534Z" style="fill:rgb(208,228,255);fill-opacity:0.54;"/>
            </g>
            <g transform="matrix(-0.740003,-0.672603,-0.672603,0.740003,242.083,38.3286)">
                <path d="M42.499,205.551C43.227,200.04 77.888,167.428 82.605,192.392C85.842,208.867 59.762,199.587 42.499,205.551Z" style="fill:rgb(208,228,255);fill-opacity:0.54;"/>
            </g>
            <g transform="matrix(-0.740003,-0.672603,-0.672603,0.740003,262.86,-3.06727)">
                <path d="M38.987,209.008C42.556,200.169 76.072,165.87 80.789,190.834C84.026,207.309 58.402,200.474 38.987,209.008Z" style="fill:rgb(208,228,255);fill-opacity:0.54;"/>
            </g>
            <g transform="matrix(-0.740003,-0.672603,-0.672603,0.740003,283.926,-33.8154)">
                <path d="M41.251,212.104C44.82,203.265 69.913,163.503 79.02,187.956C84.762,203.374 60.666,203.571 41.251,212.104Z" style="fill:rgb(208,228,255);fill-opacity:0.54;"/>
            </g>
            <g transform="matrix(-0.740003,-0.672603,-0.672603,0.740003,309.107,-57.8856)">
                <path d="M41.251,212.104C44.82,203.265 63.564,159.695 78.341,178.798C88.407,191.812 60.666,203.571 41.251,212.104Z" style="fill:rgb(208,228,255);fill-opacity:0.54;"/>
            </g>
            <g transform="matrix(-0.740003,-0.672603,-0.672603,0.740003,347.111,-79.0939)">
                <path d="M49.288,214.373C48.001,200.4 63.564,159.695 78.341,178.798C88.407,191.812 60.924,199.636 49.288,214.373Z" style="fill:rgb(208,228,255);fill-opacity:0.54;"/>
            </g>
        </g>
    </g>
    <g transform="matrix(1,0,0,1,28.3302,0.248502)">
        <path d="M17.993,302.983C27.362,300.016 2.847,258.036 11.486,251.124C18.328,245.651 36.724,279.053 46.432,276.701C50.31,275.762 57.872,217.197 67.256,220.742C76.639,224.287 59.332,270.58 67.881,276.001C76.431,281.423 101.454,190.298 114.101,193.009C126.749,195.719 111.88,255.983 115.978,257.443C122.996,259.737 146.286,182.165 158.232,183.625C170.178,185.085 165.054,199.473 154.836,231.586C144.618,263.698 155.044,249.31 165.683,232.628C176.322,215.946 195.498,195.928 197.584,213.027C199.669,230.126 187.402,254.356 187.402,254.356C187.402,254.356 177.893,269.036 199.079,261.696C220.265,254.356 244.788,260.909 233.777,290.663C229.774,301.566 180.729,322.085 192.406,334.429C204.084,346.774 231.442,362.288 223.935,377.969C216.428,393.65 159.591,366.459 158.232,375.133C156.873,383.808 200.58,417.886 188.903,433.02C177.226,448.154 156.201,420.128 150.782,419.461C145.363,418.793 139.278,416.912 148.219,442.769C157.16,468.626 151.155,482.472 143.815,484.14C136.475,485.808 119.216,444.151 109.953,442.692C100.69,441.232 88.174,434.571 89.647,462.265C91.119,489.96 77.087,494.351 69.451,478.06C61.815,461.769 41.451,433.26 35.851,453.115C30.251,472.969 22.813,455.823 13.957,444.394C12.358,442.33 4.902,445.821 2.483,436.238C0.822,429.659 9.706,435.083 10.427,428.567C11.941,414.902 -22.506,410.664 -18.217,399.949C-12.765,386.333 2.394,409.094 8.879,398.326C10.077,396.337 -21.756,378.964 -20.134,369.638C-18.378,359.538 -0.517,376.768 0,364.75C0.869,344.552 -29.528,351.054 -25.855,339.366C-21.645,325.966 1.761,340.403 4.654,331.372C7.664,321.975 -20.532,312.044 -17.204,300.027C-13.804,287.744 8.54,305.976 17.993,302.983Z" style="fill:rgb(208,228,255);fill-opacity:0.54;"/>
        <g>
            <path d="M148.943,316.274L165.597,273.169C165.613,273.122 165.665,273.096 165.713,273.113C165.76,273.129 165.786,273.181 165.769,273.229L153.704,313.043C175.839,298.233 198.722,285.903 219.825,280.006C219.974,279.962 220.131,280.046 220.175,280.195C220.22,280.343 220.135,280.5 219.987,280.545C195.435,288.401 168.734,305.306 143.825,324.587C141.167,326.644 138.53,328.729 135.915,330.835L169.443,349.545C169.493,349.57 169.514,349.631 169.489,349.682C169.464,349.732 169.402,349.753 169.352,349.728L132.633,333.498C115.003,347.916 98.649,363.051 85.098,376.33C91.611,379.513 105.275,385.698 120.287,389.534C129.544,391.899 139.291,393.375 148.206,392.717C148.274,392.71 148.335,392.759 148.342,392.827C148.35,392.895 148.3,392.956 148.232,392.963C139.274,394.224 129.334,393.378 119.829,391.609C102.952,388.467 87.509,382.39 81.516,379.861C64.841,396.396 52.968,409.528 49.075,413.901C52.961,417.093 59.885,422.149 69.597,426.842C77.366,430.597 86.821,434.111 97.923,436.313C98.02,436.327 98.088,436.417 98.075,436.515C98.061,436.612 97.97,436.68 97.873,436.667C86.398,435.702 76.444,433.206 68.162,430.294C57.096,426.402 49.073,421.731 44.63,418.791L4.052,462.872C1.915,465.108 -1.635,465.188 -3.872,463.052C-6.108,460.915 -6.188,457.365 -4.052,455.128C-4.052,455.128 41.24,409.462 41.159,409.549C41.159,409.549 42.983,407.607 46.328,404.19C43.883,399.172 39.349,388.741 37.176,376.509C35.373,366.361 35.143,355.022 39.176,344.553C39.206,344.46 39.307,344.408 39.401,344.439C39.495,344.469 39.546,344.57 39.516,344.664C37.281,353.006 37.665,361.595 39.307,369.6C41.914,382.311 47.743,393.415 51.223,399.243C60.043,390.417 74.114,376.778 91.234,361.742C89.549,356.635 85.747,343.683 84.48,327.51C83.598,316.25 83.933,303.438 87.104,290.637C87.119,290.57 87.185,290.527 87.252,290.542C87.318,290.556 87.361,290.622 87.347,290.689C85.022,303.515 85.482,316.173 87.059,327.226C89.072,341.334 92.919,352.762 95.067,358.397C109.091,346.238 124.946,333.357 141.518,321.488C143.979,319.726 146.455,317.986 148.943,316.274Z" style="fill:rgb(145,191,251);fill-opacity:0.54;"/>
        </g>
    </g>
</svg>
