<?xml version="1.0" encoding="UTF-8" standalone="no"?>
<!DOCTYPE svg PUBLIC "-//W3C//DTD SVG 1.1//EN" "http://www.w3.org/Graphics/SVG/1.1/DTD/svg11.dtd">
<svg width="100%" height="100%" viewBox="0 0 123 314" version="1.1" xmlns="http://www.w3.org/2000/svg" xmlns:xlink="http://www.w3.org/1999/xlink" xml:space="preserve" xmlns:serif="http://www.serif.com/" style="fill-rule:evenodd;clip-rule:evenodd;stroke-linejoin:round;stroke-miterlimit:2;">
    <g id="Cień" transform="matrix(1.59671,-0.88265,1.51225,0.982329,-481.89,39.3341)">
        <path d="M86.245,291.66C86.245,286.797 82.801,282.848 78.559,282.848L36.849,282.848C32.607,282.848 29.163,286.797 29.163,291.66L29.498,301.841C29.498,306.704 36.444,312.222 40.686,312.222L78.559,312.222C84.434,312.222 86.245,309.737 86.245,303.41L86.245,291.66Z" style="fill:rgb(67,170,248);fill-opacity:0.35;"/>
    </g>
    <g id="Człowiek">
        <g id="Nogi">
            <g>
                <g>
                    <path d="M39.074,275.415L39.138,275.718C38.825,276.178 38.463,277.111 38.136,278.725C37.723,280.976 36.207,285.247 32.717,285.017C29.226,284.788 28.519,277.935 26.048,277.94C26.048,277.94 25.703,277.989 25.215,278.344L25.537,275.909C26.622,276.765 28.469,277.4 31.406,277.255C34.826,277.085 37.327,276.676 39.074,275.415Z" style="fill:rgb(255,163,148);"/>
                    <g id="But-2" serif:id="But 2">
                        <path d="M63.213,283.081L63.214,283.081C63.719,285.516 60.044,289.477 51.41,291.911C32.717,296.044 35.63,298.181 30.075,298.122C27,297.926 21.922,294.644 22.014,291.181C22.013,290.893 22.015,290.612 22.019,290.337C22.223,293.685 27.091,296.779 30.075,296.97C35.63,297.029 32.717,294.892 51.41,290.759C59.52,288.472 63.214,285.456 63.213,283.081Z" style="fill:rgb(253,254,254);"/>
                        <path d="M26.048,277.94C26.048,277.94 21.984,278.523 22.014,290.028C21.922,293.492 27,296.773 30.075,296.97C35.63,297.029 32.717,294.892 51.41,290.759C60.044,288.324 63.673,285.063 63.167,282.629C62.662,280.195 63.305,278.955 54.854,279.047C46.403,279.139 39.744,280.011 39.928,276.199C40.019,274.913 38.963,274.638 38.136,278.725C37.723,280.976 36.207,285.247 32.717,285.017C29.226,284.788 28.519,277.935 26.048,277.94Z" style="fill:rgb(24,48,96);"/>
                    </g>
                </g>
                <g>
                    <path d="M71.278,257.064L72.264,258.948C72.253,259.531 72.332,260.359 72.553,261.485C73.034,263.722 73.271,268.248 69.959,269.374C66.647,270.5 63.367,264.442 61.087,265.394C61.087,265.394 60.685,265.632 60.323,266.356L59.73,262.26C61.424,262.888 64.232,263.023 66.691,261.234C68.615,259.833 70.355,259.149 71.278,257.064Z" style="fill:rgb(255,163,148);"/>
                    <g id="But-1" serif:id="But 1" transform="matrix(0.923608,-0.383337,0.383337,0.923608,-69.516,18.6713)">
                        <g transform="matrix(0.923608,0.383337,-0.383337,0.923608,71.363,9.40313)">
                            <path d="M97.384,255.895L97.384,255.896C98.784,257.95 96.909,263.017 89.867,268.575C74.186,279.559 77.696,280.415 72.543,282.491C69.627,283.488 63.679,282.404 62.436,279.17C62.325,278.904 62.219,278.644 62.118,278.389C63.591,281.403 69.272,282.394 72.101,281.426C77.255,279.351 73.745,278.495 89.425,267.511C96.04,262.29 98.295,258.088 97.384,255.895Z" style="fill:rgb(253,254,254);"/>
                        </g>
                        <path d="M26.048,277.94C26.048,277.94 21.984,278.523 22.014,290.028C21.922,293.492 27,296.773 30.075,296.97C35.63,297.029 32.717,294.892 51.41,290.759C60.044,288.324 63.673,285.063 63.167,282.629C62.662,280.195 63.305,278.955 54.854,279.047C46.403,279.139 39.744,280.011 39.928,276.199C40.019,274.913 38.963,274.638 38.136,278.725C37.723,280.976 36.207,285.247 32.717,285.017C29.226,284.788 28.519,277.935 26.048,277.94Z" style="fill:rgb(24,48,96);"/>
                    </g>
                </g>
            </g>
            <g>
                <g transform="matrix(1,0,0,1,0,0.362012)">
                    <path d="M39.089,124.14C39.089,124.14 35.505,133.986 39.754,147.707C44.002,161.428 49.732,174.313 49.732,179.516C49.732,184.719 49.104,195.932 47.4,199.43C45.426,201.404 33.902,208.852 27.42,255.632C26.719,260.537 24.631,270.75 24.229,272.931C24.057,274.424 25.607,277.18 31.406,276.893C37.204,276.606 40.362,275.63 41.682,270.979C43.003,266.329 51.227,243.465 54.241,237.006C57.255,230.548 77.474,180.798 79.995,176.671C81.619,172.993 78.834,133.871 78.834,133.871L39.089,124.14Z" style="fill:url(#_Linear1);"/>
                    <clipPath id="_clip2">
                        <path d="M39.089,124.14C39.089,124.14 35.505,133.986 39.754,147.707C44.002,161.428 49.732,174.313 49.732,179.516C49.732,184.719 49.104,195.932 47.4,199.43C45.426,201.404 33.902,208.852 27.42,255.632C26.719,260.537 24.631,270.75 24.229,272.931C24.057,274.424 25.607,277.18 31.406,276.893C37.204,276.606 40.362,275.63 41.682,270.979C43.003,266.329 51.227,243.465 54.241,237.006C57.255,230.548 77.474,180.798 79.995,176.671C81.619,172.993 78.834,133.871 78.834,133.871L39.089,124.14Z"/>
                    </clipPath>
                    <g clip-path="url(#_clip2)">
                        <path d="M49.441,145.728C46.425,152.023 52.081,166.754 48.006,171.994C48.437,175.439 49.444,178.407 49.995,179.739C51.052,174.089 53.187,168.176 53.073,163.755C52.509,156.105 48.796,155.718 49.441,145.728Z" style="fill:rgb(38,81,147);"/>
                    </g>
                </g>
                <path d="M73.99,190.068C73.952,198.376 73.095,211.685 71.588,222.234C70.081,232.783 71.819,246.139 71.966,252.385C72.113,258.632 69.614,259.106 66.691,261.234C62.936,263.966 58.367,262.212 58.194,261.064C57.792,257.504 54.306,236.866 54.306,236.866L54.306,236.866C56.569,231.955 67.061,206.342 73.99,190.068Z" style="fill:url(#_Linear3);"/>
                <clipPath id="_clip4">
                    <path d="M73.99,190.068C73.952,198.376 73.095,211.685 71.588,222.234C70.081,232.783 71.819,246.139 71.966,252.385C72.113,258.632 69.614,259.106 66.691,261.234C62.936,263.966 58.367,262.212 58.194,261.064C57.792,257.504 54.306,236.866 54.306,236.866L54.306,236.866C56.569,231.955 67.061,206.342 73.99,190.068Z"/>
                </clipPath>
                <g clip-path="url(#_clip4)">
                    <path d="M73.081,192.208C73.081,192.208 61.806,233.317 55.419,246.383C54.845,243.446 55.129,241.928 54.021,237.486C52.913,233.044 70.926,190.057 70.926,190.057L73.081,192.208Z" style="fill:rgb(26,51,99);"/>
                </g>
            </g>
        </g>
        <g id="Głowa">
            <path d="M55.062,42.733L55.06,37.374C55.06,37.374 55.095,37.39 55.295,37.678C57.251,40.125 58.962,40.024 58.962,40.024C58.962,40.024 62.145,40.469 68.965,31.015C69.905,29.581 70.775,28.969 72.116,28.969C73.456,28.969 74.185,29.007 73.997,38.658C73.997,41.16 78.465,41.983 78.465,41.983L78.748,42.048L72.988,41.991L73.671,49.085C70.338,49.021 59.359,48.378 55.091,42.772L55.062,42.733Z" style="fill:url(#_Linear5);"/>
            <path d="M80.858,11.727C80.858,11.727 82.015,10.065 82.015,7.864C82.015,5.663 81.582,0 73.079,0C64.576,0 63.914,1.732 62.15,2.085C60.386,2.438 47.041,3.82 47.041,19.81C47.041,26.41 51.633,31.132 53.846,35.406C56.319,40.179 58.962,40.024 58.962,40.024C58.962,40.024 62.145,40.469 68.965,31.015C69.905,29.581 70.775,28.969 72.116,28.969C73.456,28.969 74.185,29.007 73.997,38.658C73.997,41.16 78.465,41.983 78.465,41.983L81.727,42.733C82.924,42.997 83.285,42.134 83.229,41.134C83.154,38.826 83.109,37.09 83.003,37.092C83.003,37.092 81.992,37.021 81.992,36.08C81.992,35.14 81.663,32.976 83.074,32.976L83.074,31.025C83.074,31.025 79.98,30.601 80.01,35.869C80.01,36.551 80.081,37.041 78.838,37.041C77.595,37.041 76.019,36.692 76.019,32.153C76.019,32.153 75.712,24.947 77.723,22.937C79.733,20.926 77.111,19.151 77.111,15.882C77.111,12.613 79.761,12.679 80.858,11.727Z" style="fill:url(#_Linear6);"/>
            <path d="M83.051,32.977L83.003,37.092C83.003,37.092 81.992,37.021 81.992,36.08C81.992,35.145 81.667,33 83.051,32.977ZM80.579,11.931L80.579,11.931C80.579,11.931 83.261,15.443 83.235,19.412C83.208,23.38 82.121,20.823 82.091,22.233C82.062,23.644 81.759,25.098 82.948,25.173C83.16,25.201 83.085,30.32 83.075,30.959L83.074,31.025C83.074,31.025 79.98,30.601 80.01,35.869C80.01,36.551 80.081,37.041 78.838,37.041C77.595,37.041 76.019,36.692 76.019,32.153C76.019,32.153 75.712,24.947 77.723,22.937C79.733,20.926 77.111,19.151 77.111,15.882C77.111,12.865 79.369,12.689 80.579,11.931Z" style="fill:rgb(255,184,158);"/>
        </g>
        <g id="Tłów">
            <path d="M55.062,42.733C55.062,42.733 51.167,44.643 51.608,46.444C52.049,48.244 57.23,54.748 69.281,55.005C76.336,55.115 80.01,54.931 80.01,54.931L74.646,49.089C74.646,49.089 60.095,49.42 55.062,42.733" style="fill:rgb(106,210,169);"/>
            <path d="M44.473,41.499C38.761,43.374 35.944,51.72 35.944,51.72C35.944,51.72 33.226,56.09 36.487,77.309C36.743,78.575 37,80.121 37.23,82.112C35.494,83.322 32.674,85.333 30.03,87.414C25.823,90.726 37.999,100.829 38.047,100.869C38.048,101.842 38.045,102.852 38.037,103.902C38.037,107.549 38.598,116.663 38.901,121.314C29.123,117.585 4.332,95.262 7.335,89.574C18.009,67.15 34.258,44.516 44.473,41.499L44.473,41.499Z" style="fill:url(#_Linear7);"/>
            <path d="M37.185,48.886C36.356,50.499 35.944,51.72 35.944,51.72C35.944,51.72 33.226,56.09 36.487,77.309C36.739,78.555 36.992,80.072 37.219,82.017C35.713,82.942 34.009,84.089 32.405,85.393C27.454,53.298 37.185,48.886 37.185,48.886L37.185,48.886Z" style="fill:rgb(80,192,153);"/>
            <path d="M80.086,54.968C80.826,55.329 86.835,58.266 89.463,59.948L89.462,59.948C84.89,59.302 75.22,61.247 74.084,78.173C72.469,95.575 68.702,111.632 70.944,122.666C71.714,126.454 73.073,131.822 74.548,137.346C72.581,138.795 70.355,139.906 63.929,139.138C44.194,136.841 39.089,124.14 39.089,124.14C39.089,124.14 38.037,108.897 38.037,103.902C38.152,88.401 37.314,81.397 36.487,77.309C33.226,56.09 35.944,51.72 35.944,51.72C35.944,51.72 39.519,41.129 46.78,41.129C54.042,41.129 54.761,42.89 54.761,42.89L54.761,42.89C53.857,43.382 51.242,44.951 51.608,46.444C52.049,48.244 57.23,54.748 69.281,55.005C76.336,55.115 80.01,54.931 80.01,54.931L80.086,54.968Z" style="fill:url(#_Linear8);"/>
            <path d="M84.376,60.389C79.883,61.793 74.881,66.293 74.084,78.173C72.598,94.187 69.289,109.061 70.518,119.93L70.518,119.93C67.567,119.584 65.719,115.338 65.948,106.592C67.506,86.848 72.848,62.906 84.376,60.389Z" style="fill:url(#_Linear9);"/>
            <path d="M89.865,60.013C85.485,59.198 75.255,60.733 74.084,78.173C72.469,95.575 68.702,111.632 70.944,122.666C73.187,133.7 80.43,158.144 80.945,160.716C82.231,160.827 88.881,161.598 93.143,156.234C92.298,149.877 88.821,125.81 87.655,118.724C88.171,114.081 94.742,85.981 96.424,78.469C97.259,73.579 97.414,62.105 89.865,60.013Z" style="fill:url(#_Linear10);"/>
        </g>
        <g id="Dłoń--inna-" serif:id="Dłoń (inna)">
            <path d="M80.945,160.716C80.945,160.716 78.428,165.659 81.588,170.179C82.616,171.538 84.454,175.479 80.522,175.934C79.934,176.131 80.669,178.005 82.69,177.454C84.711,176.903 85.055,176.508 86.077,175.934C87.099,175.36 87.062,164.41 87.062,164.41C87.062,164.41 84.932,157.647 80.945,160.716Z" style="fill:rgb(239,176,133);"/>
            <path d="M83.532,160.817C83.532,160.817 86.824,172.719 86.077,175.934C89.12,174.498 97.961,175.405 97.445,166.863C97.611,160.444 95.215,161.221 93.143,156.234C88.201,155.668 83.532,160.817 83.532,160.817Z" style="fill:rgb(231,162,118);"/>
        </g>
        <path id="Dłoń" d="M84.132,160.214C85.547,158.872 89.261,155.789 93.143,156.234C95.215,161.221 97.611,160.444 97.445,166.863C97.959,175.372 89.189,174.505 86.113,175.917L86.077,175.934C85.055,176.508 84.711,176.903 82.69,177.454C80.669,178.005 79.934,176.131 80.522,175.934C84.454,175.479 82.616,171.538 81.588,170.179C78.428,165.659 80.945,160.716 80.945,160.716C82.191,159.757 83.257,159.758 84.132,160.214Z" style="fill:url(#_Linear11);"/>
    </g>
    <defs>
        <linearGradient id="_Linear1" x1="0" y1="0" x2="1" y2="0" gradientUnits="userSpaceOnUse" gradientTransform="matrix(-21.0245,104.027,-104.027,-21.0245,56.9165,147.462)"><stop offset="0" style="stop-color:rgb(55,115,194);stop-opacity:1"/><stop offset="1" style="stop-color:rgb(33,64,117);stop-opacity:1"/></linearGradient>
        <linearGradient id="_Linear3" x1="0" y1="0" x2="1" y2="0" gradientUnits="userSpaceOnUse" gradientTransform="matrix(0.458743,56.1109,-56.1109,0.458743,66.2427,201.187)"><stop offset="0" style="stop-color:rgb(43,88,154);stop-opacity:1"/><stop offset="1" style="stop-color:rgb(33,64,117);stop-opacity:1"/></linearGradient>
        <linearGradient id="_Linear5" x1="0" y1="0" x2="1" y2="0" gradientUnits="userSpaceOnUse" gradientTransform="matrix(11.0248,-9.5238,9.5238,11.0248,61.5,43.8141)"><stop offset="0" style="stop-color:rgb(255,167,153);stop-opacity:1"/><stop offset="1" style="stop-color:rgb(255,184,158);stop-opacity:1"/></linearGradient>
        <linearGradient id="_Linear6" x1="0" y1="0" x2="1" y2="0" gradientUnits="userSpaceOnUse" gradientTransform="matrix(18.6012,-29.4519,29.4519,18.6012,58.3063,36.6859)"><stop offset="0" style="stop-color:rgb(34,4,61);stop-opacity:1"/><stop offset="1" style="stop-color:rgb(127,66,136);stop-opacity:1"/></linearGradient>
        <linearGradient id="_Linear7" x1="0" y1="0" x2="1" y2="0" gradientUnits="userSpaceOnUse" gradientTransform="matrix(8.01101,44.8825,-44.8825,8.01101,18.0101,59.8441)"><stop offset="0" style="stop-color:rgb(148,230,154);stop-opacity:1"/><stop offset="1" style="stop-color:rgb(23,173,201);stop-opacity:1"/></linearGradient>
        <linearGradient id="_Linear8" x1="0" y1="0" x2="1" y2="0" gradientUnits="userSpaceOnUse" gradientTransform="matrix(-4.80782,58.1679,-58.1679,-4.80782,60.944,66.0998)"><stop offset="0" style="stop-color:rgb(148,230,154);stop-opacity:1"/><stop offset="1" style="stop-color:rgb(23,173,201);stop-opacity:1"/></linearGradient>
        <linearGradient id="_Linear9" x1="0" y1="0" x2="1" y2="0" gradientUnits="userSpaceOnUse" gradientTransform="matrix(-5.11419,33.2765,-33.2765,-5.11419,76.341,79.6682)"><stop offset="0" style="stop-color:rgb(80,192,153);stop-opacity:1"/><stop offset="1" style="stop-color:rgb(32,163,177);stop-opacity:1"/></linearGradient>
        <linearGradient id="_Linear10" x1="0" y1="0" x2="1" y2="0" gradientUnits="userSpaceOnUse" gradientTransform="matrix(4.7284e-15,77.2206,-77.2206,4.7284e-15,86.0285,67.8341)"><stop offset="0" style="stop-color:rgb(148,230,154);stop-opacity:1"/><stop offset="1" style="stop-color:rgb(23,173,201);stop-opacity:1"/></linearGradient>
        <linearGradient id="_Linear11" x1="0" y1="0" x2="1" y2="0" gradientUnits="userSpaceOnUse" gradientTransform="matrix(-3.36195,0.825723,-0.825723,-3.36195,87.8698,167.91)"><stop offset="0" style="stop-color:rgb(231,162,118);stop-opacity:1"/><stop offset="1" style="stop-color:rgb(239,176,133);stop-opacity:1"/></linearGradient>
    </defs>
</svg>
