<?xml version="1.0" encoding="UTF-8" standalone="no"?>
<!DOCTYPE svg PUBLIC "-//W3C//DTD SVG 1.1//EN" "http://www.w3.org/Graphics/SVG/1.1/DTD/svg11.dtd">
<svg width="100%" height="100%" viewBox="0 0 539 637" version="1.1" xmlns="http://www.w3.org/2000/svg" xmlns:xlink="http://www.w3.org/1999/xlink" xml:space="preserve" xmlns:serif="http://www.serif.com/" style="fill-rule:evenodd;clip-rule:evenodd;stroke-linejoin:round;stroke-miterlimit:2;">
    <g id="Background">
        <g>
            <path d="M539,599.602C539,630.23 520.322,644.345 497.317,631.103L354.954,549.159L354.954,444.459L539,550.396L539,599.602ZM463.301,381.056L87.054,162.725L87.054,37.282C87.054,6.654 105.732,-7.461 128.737,5.781L463.301,199.276L463.301,198.356L511.069,225.851C526.485,234.725 539,258.591 539,279.114L539,550.396L463.301,506.823L463.301,381.056ZM237.328,428.39L237.328,481.453L114.985,411.033C99.57,402.16 87.054,378.294 87.054,357.771L87.054,341.892L237.328,428.39Z" style="fill:rgb(208,231,255);"/>
            <g transform="matrix(0.951209,0.547516,0,0.646003,17.482,-49.5879)">
                <path d="M539,62.615C539,28.057 524.687,0 507.058,0L105.083,0C87.454,0 73.141,28.057 73.141,62.615L73.141,563.539C73.141,598.097 87.454,626.154 105.083,626.154L507.058,626.154C524.687,626.154 539,598.097 539,563.539L539,62.615Z" style="fill:rgb(219,235,255);"/>
            </g>
            <path d="M88.049,21.188C91.472,5.811 103.34,-0.168 117.438,7.947L499.801,228.035C513.898,236.149 525.766,255.791 529.189,275.108L88.049,21.188Z" style="fill:rgb(241,244,255);"/>
            <clipPath id="_clip1">
                <path d="M88.049,21.188C91.472,5.811 103.34,-0.168 117.438,7.947L499.801,228.035C513.898,236.149 525.766,255.791 529.189,275.108L88.049,21.188Z"/>
            </clipPath>
            <g clip-path="url(#_clip1)">
                <g transform="matrix(0.951209,0.547516,0,0.0481622,17.482,-49.5879)">
                    <rect x="73.141" y="0" width="465.859" height="626.154" style="fill:rgb(241,244,255);"/>
                </g>
            </g>
            <g transform="matrix(1.72121,0,0,1.72121,-597.329,-423.347)">
                <g transform="matrix(0.382217,0,0.123874,0.490009,221.798,117.676)">
                    <circle cx="418.268" cy="295.97" r="6.991" style="fill:rgb(121,128,255);"/>
                </g>
                <g transform="matrix(0.382217,0,0.123874,0.490009,230.405,123.014)">
                    <circle cx="418.268" cy="295.97" r="6.991" style="fill:rgb(121,128,255);"/>
                </g>
                <g transform="matrix(0.382217,0,0.123874,0.490009,213.575,112.322)">
                    <circle cx="418.268" cy="295.97" r="6.991" style="fill:rgb(121,128,255);"/>
                </g>
            </g>
        </g>
        <g transform="matrix(5.59483,3.2036,-0.306787,0.209661,-1015.3,-457.916)">
            <path d="M302.376,560.702C302.376,553.823 302.087,548.237 301.73,548.237L228.425,548.237C228.068,548.237 227.778,553.823 227.778,560.702L227.778,595.129C227.778,602.009 228.068,607.594 228.425,607.594L301.73,607.594C302.087,607.594 302.376,602.009 302.376,595.129L302.376,560.702Z" style="fill:rgb(97,181,200);fill-opacity:0.6;"/>
        </g>
    </g>
    <g id="Windows">
        <g id="Window6">
            <path d="M346.404,533.927C344.582,531.399 341.512,522.662 340.656,519.69C340.656,519.69 402.789,409.819 402.885,409.882L487.632,459.629C490.895,461.545 492.854,466.257 492.002,470.146L464.222,596.961C463.741,599.16 462.463,600.627 460.854,601.141C459.44,601.516 457.98,601.233 456.765,600.535L349.817,537.756C348.386,536.915 347.205,535.537 346.404,533.927Z" style="fill:rgb(194,220,246);"/>
            <path d="M481.073,455.676C481.073,455.676 466.595,530.331 466.12,524.879C465.583,494.999 453.183,484.495 453.183,484.495C453.183,484.495 452.918,497.032 453.01,512.35L366.381,418.632L368.752,396.377L371.787,391.765L481.073,455.676Z" style="fill:url(#_Linear2);"/>
            <path d="M335.675,380.216L335.675,422.087L450.421,568.025L450.297,446.595L335.675,380.216" style="fill:white;"/>
            <path d="M309.222,411.321L341.014,520.924C341.014,520.924 341.885,523.755 344.92,525.273C347.954,526.79 451.354,586.995 451.354,586.995L424.3,492.052L368.103,459.751C368.103,459.751 358.177,454.302 351.659,443.194C345.07,429.645 343.126,432.36 309.222,411.321Z" style="fill:url(#_Linear3);"/>
            <path d="M309.222,411.321L312.474,407.133L346.668,427.336C346.668,427.336 350.674,431.098 356.985,441.294C363.297,451.49 370.337,455.192 377.316,459.076C384.296,462.96 428.049,488.681 428.049,488.681L424.3,492.052L368.103,459.751C368.103,459.751 358.177,454.302 351.659,443.194C345.173,429.857 343.188,432.279 310.788,412.29L309.222,411.321Z" style="fill:rgb(250,132,182);"/>
            <path d="M428.049,488.681L450.707,568.039C450.707,568.039 453.122,570.07 453.183,567.157C453.244,564.244 453.183,484.495 453.183,484.495C453.183,484.495 465.583,494.999 466.12,524.879C466.595,530.331 481.073,455.676 481.073,455.676L484.063,457.422L457.58,582.563C457.58,582.563 456.213,590.724 451.354,586.995C450.069,582.529 424.3,492.052 424.3,492.052L428.049,488.681Z" style="fill:rgb(225,58,146);"/>
            <g>
                <g transform="matrix(1.28599,0.741801,0,0.758424,-161.848,-196.91)">
                    <rect x="389.99" y="395.258" width="83.199" height="9.164" style="fill:rgb(218,235,252);"/>
                </g>
                <path d="M438.808,526.363L446.668,530.897L446.668,537.847L441.184,534.683L438.808,526.363Z" style="fill:rgb(218,235,252);"/>
                <path d="M339.675,423.204L339.675,417.572L446.668,479.289L446.668,486.239L348.955,429.875C347.483,428.101 346.668,427.336 346.668,427.336L339.675,423.204Z" style="fill:rgb(218,235,252);"/>
                <path d="M446.668,466.633L339.675,404.916L339.675,411.867L446.668,473.584L446.668,466.633Z" style="fill:rgb(218,235,252);"/>
                <path d="M355.638,439.16L446.668,491.669L446.668,498.619L367.171,452.762C363.656,450.049 360.225,446.527 356.985,441.294C356.524,440.549 356.075,439.838 355.638,439.16Z" style="fill:rgb(218,235,252);"/>
                <path d="M429.796,494.798L446.668,504.53L446.668,511.48L432.172,503.118L429.796,494.798Z" style="fill:rgb(218,235,252);"/>
                <path d="M434.302,510.58L446.668,517.713L446.668,524.664L436.678,518.901L434.302,510.58Z" style="fill:rgb(218,235,252);"/>
                <path d="M442.985,540.99L446.668,543.115L446.668,550.065L445.36,549.311L442.985,540.99Z" style="fill:rgb(218,235,252);"/>
            </g>
            <path d="M450.173,566.166L450.297,446.595L335.675,380.216L337.453,378.794L453.183,445.363L453.183,567.157C453.122,570.07 450.707,568.039 450.707,568.039L450.173,566.166Z" style="fill:rgb(241,244,255);"/>
            <g>
                <g transform="matrix(0.834424,0,0.423687,1.08497,-150.653,-38.5089)">
                    <circle cx="372.857" cy="499.558" r="19.064" style="fill:url(#_Linear4);"/>
                </g>
                <path d="M365.033,500.46L365.033,500.46L365.033,492.901C365.033,492.901 365.103,489.049 368.663,490.732C372.224,492.415 375.849,494.778 375.849,494.778C375.849,494.778 377.953,496.17 377.953,499.666L377.953,503.671L377.953,503.671C379.066,505.354 379.846,507.26 380.108,509.162C380.776,514.028 377.797,517.044 373.459,515.894C369.121,514.743 365.056,509.859 364.388,504.993C364.14,503.188 364.394,501.637 365.033,500.46ZM374.957,500.343L374.957,500.343L374.957,497.206C374.957,497.206 375.011,496.583 374.405,496.172C373.222,495.369 370.186,493.101 367.97,492.898C367.479,492.858 367.195,493.007 367.076,493.409C366.763,494.467 366.98,496.764 366.994,498.527L366.994,498.527C368.096,497.973 369.478,497.848 371.037,498.262C372.403,498.624 373.743,499.357 374.957,500.343Z" style="fill:url(#_Linear5);"/>
                <path d="M371.069,506.595C370.467,506.251 370.045,505.657 370.002,504.983C369.935,503.922 370.831,503.06 372.003,503.06C373.175,503.06 374.181,503.922 374.249,504.983C374.301,505.801 373.78,506.5 373.003,506.778L372.971,510.842L371.036,510.842L371.069,506.595Z" style="fill:rgb(32,56,155);"/>
            </g>
        </g>
        <g id="Window2">
            <g transform="matrix(1,0,0,1,-238.572,-137.739)">
                <path d="M346.404,533.927C344.582,531.399 341.512,522.662 340.656,519.69C340.656,519.69 402.789,409.819 402.885,409.882L487.632,459.629C490.895,461.545 492.854,466.257 492.002,470.146L464.222,596.961C463.741,599.16 462.463,600.627 460.854,601.141C460.222,601.886 459.155,601.929 457.741,601.098L457.053,600.695C456.957,600.645 456.861,600.591 456.765,600.535L349.817,537.756C348.386,536.915 347.205,535.537 346.404,533.927Z" style="fill:rgb(194,220,246);fill-opacity:0.1;"/>
            </g>
            <path d="M154.83,279.637L233.64,322.946L217.92,445.055L132.769,386.063L154.83,279.637Z" style="fill:rgb(150,92,242);"/>
            <path d="M100.653,269.015L99.55,170.522C99.476,163.955 103.352,160.938 108.199,163.788L221.155,230.206C226.002,233.056 229.997,240.702 230.071,247.269L231.708,393.445C231.782,400.012 227.906,403.029 223.058,400.179L211.619,393.453L208.999,354.484L212.235,349.427L152.066,315.785C152.066,315.785 141.354,310.956 136.788,295.152C134.869,288.394 129.213,285.713 129.213,285.713L100.653,269.015Z" style="fill:rgb(241,244,255);"/>
            <path d="M100.783,269.091L99.723,174.464C99.651,168.058 103.432,165.114 108.161,167.895L217.749,232.332C222.478,235.113 226.376,242.571 226.447,248.978L228.045,391.58C228.116,397.986 224.335,400.93 219.606,398.149L211.619,393.453L208.999,354.484L212.235,349.427L152.066,315.785C152.066,315.785 141.354,310.956 136.788,295.152C134.869,288.394 129.213,285.713 129.213,285.713L100.783,269.091Z" style="fill:white;"/>
            <clipPath id="_clip6">
                <path d="M100.783,269.091L99.723,174.464C99.651,168.058 103.432,165.114 108.161,167.895L217.749,232.332C222.478,235.113 226.376,242.571 226.447,248.978L228.045,391.58C228.116,397.986 224.335,400.93 219.606,398.149L211.619,393.453L208.999,354.484L212.235,349.427L152.066,315.785C152.066,315.785 141.354,310.956 136.788,295.152C134.869,288.394 129.213,285.713 129.213,285.713L100.783,269.091Z"/>
            </clipPath>
            <g clip-path="url(#_clip6)">
                <g transform="matrix(5.81067,3.21639,-1.11022e-16,7.94745,-580.903,-1777.87)">
                    <path d="M145.281,206.134C145.281,205.266 144.543,204.561 143.634,204.561L137.239,204.561C136.329,204.561 135.591,205.266 135.591,206.134L135.591,212.777C135.591,213.646 136.329,214.351 137.239,214.351L143.634,214.351C144.543,214.351 145.281,213.646 145.281,212.777L145.281,206.134Z" style="fill:rgb(219,235,254);"/>
                </g>
            </g>
            <path d="M107.835,273.214L107.835,238.288C107.835,233.271 110.973,230.911 114.838,233.021L188.368,273.172C192.233,275.282 195.371,281.069 195.371,286.086L195.371,339.998L152.066,315.785C152.066,315.785 141.354,310.956 136.788,295.152C134.869,288.394 129.213,285.713 129.213,285.713L107.835,273.214Z" style="fill:rgb(250,225,238);"/>
            <g transform="matrix(3.94928,2.18605,0,0.806298,-405.38,-260.668)">
                <path d="M145.281,206.127C145.281,205.263 145.172,204.561 145.037,204.561L135.836,204.561C135.701,204.561 135.591,205.263 135.591,206.127L135.591,212.784C135.591,213.649 135.701,214.351 135.836,214.351L145.037,214.351C145.172,214.351 145.281,213.649 145.281,212.784L145.281,206.127Z" style="fill:rgb(250,225,238);fill-opacity:0.4;"/>
            </g>
            <g transform="matrix(2.35818,1.30533,-1.16922e-18,0.457379,-189.64,-59.2607)">
                <path d="M145.281,207.008C145.281,205.658 145.119,204.561 144.918,204.561L135.955,204.561C135.754,204.561 135.591,205.658 135.591,207.008L135.591,211.903C135.591,213.254 135.754,214.351 135.955,214.351L144.918,214.351C145.119,214.351 145.281,213.254 145.281,211.903L145.281,207.008Z" style="fill:rgb(250,225,238);fill-opacity:0.4;"/>
            </g>
            <g transform="matrix(2.24181,0.443939,0.0721548,2.45281,-159.445,-344.379)">
                <circle cx="117.287" cy="201.503" r="4.356" style="fill:rgb(226,225,254);"/>
            </g>
            <g transform="matrix(1.31944,0.261284,0.0424673,1.44362,-45.2803,-119.601)">
                <circle cx="117.287" cy="201.503" r="4.356" style="fill:url(#_Linear7);"/>
            </g>
            <path d="M128.31,285.185L141.503,264.259L153.459,303.771L164.392,290.408L177.609,330.067L152.066,315.785C152.066,315.785 141.354,310.956 136.788,295.152C134.869,288.394 129.213,285.713 129.213,285.713L128.31,285.185Z" style="fill:url(#_Linear8);"/>
            <g transform="matrix(2.32857,0,0.628382,2.88231,-388.415,-516.758)">
                <circle cx="161.775" cy="274.087" r="2.348" style="fill:rgb(249,198,105);"/>
            </g>
            <path d="M87.054,266.926L90.945,263.34L129.213,285.713C129.213,285.713 134.869,288.394 136.788,295.152C141.354,310.956 152.066,315.785 152.066,315.785L212.235,349.427L208.999,354.484L150.984,321.794C150.984,321.794 139.833,318.106 132.282,296.946C130.263,290.975 121.834,286.936 121.834,286.936L87.054,266.926Z" style="fill:rgb(211,119,227);"/>
            <path d="M215.347,448.915L97.092,379.375L87.054,266.926L121.834,286.936C121.834,286.936 130.263,290.975 132.282,296.946C139.833,318.106 150.984,321.794 150.984,321.794L208.999,354.484L215.347,448.915Z" style="fill:url(#_Linear9);"/>
            <g>
                <path d="M208.999,354.484L215.347,448.915C215.347,448.915 218.9,450.404 219.743,446.33C220.586,442.256 218.766,435.827 218.766,435.827C218.766,435.827 217.463,438.075 217.283,434.838C217.103,431.602 212.235,349.427 212.235,349.427L208.999,354.484Z" style="fill:rgb(133,77,225);"/>
                <path d="M223.436,400.39C224.309,400.854 225.147,401.125 225.931,401.217C222.8,424.632 220.082,444.692 219.743,446.33C218.9,450.404 215.347,448.915 215.347,448.915L218.766,435.827L223.436,400.39ZM231.132,341.983L233.64,322.946L236.153,324.185C236.153,324.185 234.046,340.166 231.34,360.575L231.132,341.983Z" style="fill:rgb(133,77,225);"/>
            </g>
        </g>
        <g id="Window4">
            <g transform="matrix(0.919024,0.531053,9.43535e-19,1.58489,-30.6899,-498.199)">
                <path d="M519.651,247.332C519.651,244.371 516.542,241.967 512.714,241.967L407.292,241.967C403.463,241.967 400.355,244.371 400.355,247.332L400.355,326.03C400.355,328.991 403.463,331.396 407.292,331.396L512.714,331.396C516.542,331.396 519.651,328.991 519.651,326.03L519.651,247.332Z" style="fill:rgb(194,220,246);"/>
            </g>
            <g transform="matrix(0.879073,0.507967,0,1.50661,-14.6954,-470.015)">
                <path d="M519.651,247.332C519.651,244.371 516.562,241.967 512.757,241.967L407.249,241.967C403.444,241.967 400.355,244.371 400.355,247.332L400.355,326.03C400.355,328.991 403.444,331.396 407.249,331.396L512.757,331.396C516.562,331.396 519.651,328.991 519.651,326.03L519.651,247.332Z" style="fill:white;"/>
                <clipPath id="_clip10">
                    <path d="M519.651,247.332C519.651,244.371 516.562,241.967 512.757,241.967L407.249,241.967C403.444,241.967 400.355,244.371 400.355,247.332L400.355,326.03C400.355,328.991 403.444,331.396 407.249,331.396L512.757,331.396C516.562,331.396 519.651,328.991 519.651,326.03L519.651,247.332Z"/>
                </clipPath>
                <g clip-path="url(#_clip10)">
                    <g transform="matrix(1.13756,-0.38354,0,0.663743,16.7169,306.333)">
                        <path d="M334.418,200.027L334.418,105.985C334.418,101.524 337.133,99.47 340.478,101.403L433.227,154.998C436.572,156.93 439.288,162.122 439.288,166.584L439.288,260.625L334.418,200.027Z" style="fill:url(#_Linear11);"/>
                    </g>
                </g>
            </g>
            <g transform="matrix(0.260943,0.150785,0,0.0858238,241.458,131.553)">
                <path d="M519.651,263.43C519.651,251.584 517.279,241.967 514.359,241.967L405.647,241.967C402.726,241.967 400.355,251.584 400.355,263.43L400.355,309.933C400.355,321.779 402.726,331.396 405.647,331.396L514.359,331.396C517.279,331.396 519.651,321.779 519.651,309.933L519.651,263.43Z" style="fill:rgb(212,236,253);"/>
            </g>
            <g transform="matrix(0.541167,0.31271,0,0.0819259,128.117,78.9041)">
                <path d="M519.651,263.43C519.651,251.584 518.559,241.967 517.215,241.967L402.791,241.967C401.446,241.967 400.355,251.584 400.355,263.43L400.355,309.933C400.355,321.779 401.446,331.396 402.791,331.396L517.215,331.396C518.559,331.396 519.651,321.779 519.651,309.933L519.651,263.43Z" style="fill:rgb(212,236,253);"/>
            </g>
            <path d="M433.006,242.096C433.22,239.965 425.689,212.545 418.459,212.413C411.355,212.413 412.05,221.16 407.416,221.16C402.783,221.16 395.138,182.219 384.945,182.219C374.751,182.219 377.763,200.83 372.512,200.83C367.261,200.83 355.354,156.07 354.582,152.054C358.44,153.516 361.492,154.265 361.492,154.265L349.302,132.195L342.225,149.094L347.973,150.79C347.973,150.79 359.992,207.203 372.637,207.589C385.282,207.975 379.876,189.056 385.185,189.249C390.494,189.442 394.645,226.412 407.58,227.184C413.207,227.52 415.61,220.035 418.022,220.035C420.434,220.035 423.549,228.717 425.985,238.206C428.642,239.439 433.006,242.096 433.006,242.096Z" style="fill:url(#_Linear12);"/>
        </g>
        <g id="Window3">
            <path d="M208.664,222.861L208.664,117.148C208.664,112.222 211.662,109.955 215.355,112.089L316.219,170.373C319.912,172.507 322.91,178.239 322.91,183.165L322.91,314.077C322.91,319.003 319.912,321.27 316.219,319.136L230.32,269.5L230.071,247.269C229.997,240.702 226.002,233.056 221.155,230.206L208.664,222.861Z" style="fill:rgb(194,220,246);"/>
            <path d="M208.664,222.861L208.664,118.651C208.664,113.97 211.513,111.816 215.022,113.844L310.376,168.943C313.885,170.971 316.734,176.418 316.734,181.098L316.734,305.487C316.734,310.168 313.885,312.322 310.376,310.294L230.258,263.999L230.071,247.269C229.997,240.702 226.002,233.056 221.155,230.206L208.664,222.861Z" style="fill:white;"/>
            <clipPath id="_clip13">
                <path d="M208.664,222.861L208.664,118.651C208.664,113.97 211.513,111.816 215.022,113.844L310.376,168.943C313.885,170.971 316.734,176.418 316.734,181.098L316.734,305.487C316.734,310.168 313.885,312.322 310.376,310.294L230.258,263.999L230.071,247.269C229.997,240.702 226.002,233.056 221.155,230.206L208.664,222.861Z"/>
            </clipPath>
            <g clip-path="url(#_clip13)">
                <g transform="matrix(1.03052,-0.0130289,1.78685e-18,1.0491,-138.874,11.8485)">
                    <path d="M334.418,200.027L334.418,105.985C334.418,101.524 337.133,99.47 340.478,101.403L433.926,155.206C437.271,157.139 439.986,162.33 439.986,166.792L439.986,259.69L334.418,200.027Z" style="fill:url(#_Linear14);"/>
                </g>
            </g>
            <path d="M230.089,248.845L278.71,276.941C279.474,277.382 280.093,278.567 280.093,279.585L280.093,283.582C280.093,284.6 279.474,285.068 278.71,284.627L230.175,256.582L230.089,248.845Z" style="fill:rgb(192,241,246);"/>
            <path d="M224.629,233.205L248.981,247.276C249.781,247.739 250.43,248.98 250.43,250.046L250.43,254.233C250.43,255.3 249.781,255.791 248.981,255.329L229.779,244.232C229.07,240.211 227.138,236.123 224.629,233.205Z" style="fill:rgb(192,241,246);"/>
            <g>
                <g transform="matrix(0.987925,0.572623,0,1,2.88803,-136.951)">
                    <rect x="239.165" y="149.828" width="17.778" height="83.858" style="fill:rgb(3,199,222);"/>
                </g>
                <g transform="matrix(0.987925,0.572623,0,0.81824,29.1859,-80.3079)">
                    <rect x="239.165" y="149.828" width="17.778" height="83.858" style="fill:rgb(3,199,222);"/>
                </g>
                <g transform="matrix(0.987925,0.572623,0,0.738008,55.3765,-48.1414)">
                    <rect x="239.165" y="149.828" width="17.778" height="83.858" style="fill:rgb(3,199,222);"/>
                </g>
                <g transform="matrix(0.987925,0.572623,0,0.738008,-23.3025,-91.9355)">
                    <rect x="239.165" y="149.828" width="17.778" height="83.858" style="fill:rgb(3,199,222);"/>
                </g>
            </g>
            <g>
                <path d="M255.877,193.285L267.281,183.442C267.832,182.966 268.658,183 269.168,183.519L293.41,208.186L307.11,211.835C307.847,212.032 308.286,212.789 308.089,213.526C307.893,214.262 307.136,214.701 306.399,214.505L292.334,210.758C292.095,210.695 291.878,210.568 291.705,210.392L268.106,186.379L257.416,195.606C257.242,195.756 257.032,195.861 256.807,195.91L239.303,199.718C238.953,199.794 238.587,199.731 238.283,199.543L221.133,188.942C220.484,188.541 220.283,187.689 220.684,187.041C221.085,186.392 221.937,186.191 222.585,186.592L239.261,196.9L255.877,193.285Z" style="fill:rgb(2,168,217);fill-opacity:0.9;"/>
                <path d="M268.112,186.488L258.335,198.585C258.143,198.822 257.879,198.989 257.583,199.06L239.402,203.421C239.069,203.501 238.719,203.454 238.418,203.29L230.434,198.929C230.306,198.859 230.189,198.769 230.089,198.663L212.83,180.299C212.308,179.743 212.335,178.868 212.891,178.346C213.446,177.824 214.321,177.851 214.843,178.407L231.951,196.611L239.275,200.611L256.482,196.484L267.058,183.398C267.322,183.07 267.723,182.881 268.144,182.885C268.565,182.889 268.962,183.085 269.221,183.417L292.21,212.918L309.019,212.505C309.781,212.486 310.415,213.09 310.433,213.852C310.452,214.614 309.848,215.248 309.086,215.267L291.582,215.697C291.144,215.707 290.728,215.51 290.458,215.165L268.112,186.488Z" style="fill:white;"/>
            </g>
        </g>
        <g id="Shadow">
            <path d="M110.418,165.093C112.027,163.571 114.367,163.398 116.959,164.938L228.707,231.356C233.503,234.206 237.359,241.852 237.314,248.418L236.294,394.595C236.248,401.162 232.318,404.179 227.522,401.329L227.293,401.193C229.972,400.751 231.758,397.924 231.708,393.445L230.071,247.269C229.997,240.702 226.002,233.056 221.155,230.206L110.418,165.093Z" style="fill:rgb(213,229,250);"/>
            <path d="M215.435,448.948L216.114,449.123L216.596,449.176L216.864,449.179C216.939,449.178 217.014,449.173 217.09,449.166L217.354,449.13C217.424,449.118 217.494,449.102 217.564,449.084C217.641,449.064 217.718,449.041 217.794,449.014L217.935,448.959L218.305,448.764L218.593,448.55C218.641,448.509 218.687,448.467 218.732,448.421C218.799,448.355 218.864,448.284 218.927,448.207L219.024,448.081L219.17,447.865L219.393,447.441L219.527,447.109L219.644,446.739L219.743,446.33L219.841,445.769C220.442,442.03 223.007,423.087 225.931,401.217L225.941,401.218L226.003,401.225L226.091,401.233C226.141,401.238 226.19,401.241 226.239,401.244L226.249,401.245L226.257,401.245C226.306,401.248 226.354,401.25 226.402,401.251L226.479,401.253L226.561,401.253C226.609,401.253 226.657,401.252 226.705,401.25L226.721,401.25C226.769,401.248 226.816,401.245 226.864,401.242L226.94,401.237L227.016,401.229C227.063,401.225 227.11,401.219 227.156,401.213L227.17,401.211C227.265,401.198 227.358,401.182 227.45,401.164L227.456,401.163C227.501,401.153 227.546,401.143 227.591,401.133L227.604,401.13C227.695,401.108 227.784,401.083 227.872,401.056L227.88,401.053C227.924,401.04 227.967,401.025 228.01,401.01L228.021,401.006C228.108,400.976 228.194,400.942 228.278,400.906L228.287,400.902C228.329,400.884 228.37,400.866 228.411,400.847L228.421,400.842C228.504,400.803 228.585,400.761 228.665,400.717L228.676,400.71C228.716,400.688 228.755,400.666 228.793,400.643L228.803,400.637C228.881,400.589 228.958,400.539 229.034,400.487L229.046,400.478C229.083,400.452 229.12,400.426 229.156,400.399L229.165,400.392C229.239,400.336 229.312,400.278 229.383,400.218L229.39,400.212L229.396,400.207C229.431,400.177 229.465,400.146 229.5,400.115L229.554,400.065L229.609,400.013L229.613,400.009C229.646,399.977 229.679,399.944 229.712,399.91L229.719,399.903L229.725,399.896C229.758,399.862 229.79,399.828 229.822,399.794L229.875,399.734L229.921,399.681L229.928,399.674C229.959,399.638 229.989,399.601 230.019,399.564L230.026,399.556L230.033,399.547C230.063,399.51 230.092,399.472 230.122,399.434L230.173,399.365L230.212,399.313L230.221,399.3C230.249,399.261 230.276,399.221 230.304,399.181L230.31,399.172L230.317,399.162C230.344,399.121 230.372,399.079 230.399,399.037L230.448,398.959L230.48,398.907L230.486,398.896L230.49,398.89C230.515,398.848 230.54,398.805 230.565,398.761L230.571,398.752L230.577,398.739C230.603,398.695 230.627,398.65 230.652,398.604L230.698,398.516L230.724,398.465L230.731,398.452L230.735,398.443C230.758,398.398 230.78,398.352 230.802,398.305L230.807,398.296L230.813,398.282C230.858,398.186 230.902,398.088 230.944,397.987L230.95,397.972L230.955,397.962C230.975,397.913 230.995,397.864 231.014,397.814L231.018,397.805L231.024,397.789L231.045,397.733L231.06,397.692L231.082,397.633L231.106,397.567L231.122,397.523L231.131,397.494L231.144,397.458L231.178,397.354L231.194,397.308L231.198,397.294C231.219,397.228 231.239,397.16 231.26,397.092L231.261,397.087L231.27,397.055L231.311,396.91L231.318,396.882L231.324,396.861L231.337,396.809L231.36,396.72L231.373,396.667L231.382,396.629L231.392,396.586L231.406,396.526L231.425,396.443L231.436,396.392L231.442,396.364L231.45,396.329L231.476,396.195L231.486,396.149L231.487,396.14C231.502,396.064 231.515,395.988 231.528,395.912L231.53,395.902L231.537,395.855L231.56,395.716L231.565,395.678L231.57,395.649L231.577,395.594L231.59,395.504L231.598,395.437L231.605,395.391L231.609,395.348L231.617,395.289L231.628,395.186L231.635,395.128L231.637,395.103L231.64,395.07L231.656,394.895L231.66,394.86L231.66,394.855C231.667,394.772 231.673,394.688 231.678,394.603L231.68,394.587L231.683,394.529L231.691,394.394L231.693,394.345L231.695,394.309L231.697,394.252L231.7,394.162L231.702,394.08L231.704,394.026L231.705,393.984L231.707,393.926L231.708,393.801L231.709,393.738L231.709,393.716C231.71,393.627 231.709,393.536 231.708,393.445L231.34,360.575C233.485,344.397 235.254,331.001 235.895,326.142L241.803,329.642C245.353,331.745 247.662,337.007 246.955,341.384L228.174,457.719C227.914,459.33 227.281,460.599 226.408,461.453C225.604,463.312 223.868,463.847 221.708,462.568L220.791,462.024C220.681,461.966 220.571,461.905 220.461,461.84L116.851,400.46C116.741,400.395 116.632,400.326 116.524,400.255L104.109,392.9C100.837,390.962 97.825,385.589 97.385,380.909L97.25,379.468L215.347,448.915L215.435,448.948ZM144.102,316.952L143.983,316.834L144.217,317.065L144.102,316.952ZM143.795,316.645L143.559,316.404L143.795,316.645ZM141.8,314.447L141.992,314.675L141.8,314.447ZM146.667,311.9L147.036,312.239L146.667,311.9ZM145.833,311.091C145.889,311.147 145.944,311.202 146,311.257L145.756,311.013L145.833,311.091ZM145.291,310.53L145.345,310.587L145.255,310.493L145.291,310.53ZM142.991,307.809L143.103,307.956L142.991,307.809ZM142.197,306.715C142.311,306.879 142.426,307.041 142.541,307.2L142.118,306.601L142.197,306.715ZM141.568,305.78C141.659,305.92 141.75,306.059 141.842,306.195L141.49,305.659L141.568,305.78ZM140.871,304.663C140.939,304.777 141.008,304.89 141.076,305.002L140.795,304.535L140.871,304.663ZM140.491,304.012L140.525,304.072L140.451,303.942L140.491,304.012ZM133.737,300.712L134.237,301.88L133.903,301.106C133.903,301.106 133.737,300.712 133.737,300.712ZM139.102,301.335L139.119,301.371L139.067,301.26L139.102,301.335ZM138.478,299.935C138.478,299.935 138.478,299.935 138.478,299.935ZM137.868,298.408C137.931,298.575 137.994,298.74 138.059,298.905L137.837,298.325L137.868,298.408ZM137.499,297.389C137.526,297.465 137.552,297.54 137.579,297.616L137.469,297.302L137.499,297.389ZM132.219,296.767L132.209,296.737L132.239,296.822L132.219,296.767ZM137.263,296.69L137.278,296.737L137.234,296.601L137.263,296.69ZM136.068,293.148C136.297,293.67 136.506,294.222 136.686,294.807L136.762,295.059C136.565,294.381 136.33,293.745 136.068,293.148L136.037,293.079L136.068,293.148ZM130.043,293.148L130.095,293.21L130.043,293.148ZM130.014,293.113L129.965,293.056L129.918,293.001L130.014,293.113ZM135.944,292.874L135.975,292.942L135.912,292.806L135.944,292.874ZM129.491,292.525L129.523,292.558L129.478,292.51L129.491,292.525ZM135.751,292.473L135.776,292.525L135.718,292.407L135.751,292.473ZM135.407,291.825C135.433,291.872 135.459,291.918 135.485,291.965C135.51,292.011 135.536,292.059 135.561,292.106L135.636,292.249C135.536,292.057 135.434,291.871 135.329,291.688L135.407,291.825ZM128.476,291.508L128.53,291.559L128.421,291.457L128.476,291.508ZM135.163,291.406L135.178,291.431L135.14,291.368L135.163,291.406ZM127.922,291.008L128.008,291.084C127.961,291.042 127.914,291 127.866,290.959L127.922,291.008ZM134.758,290.77C134.789,290.817 134.82,290.864 134.851,290.911L134.944,291.054L134.72,290.714L134.758,290.77ZM127.642,290.767L127.754,290.862L127.642,290.767ZM134.298,290.122L134.337,290.175L134.259,290.071L134.298,290.122ZM134.024,289.767L134.048,289.798L134,289.736L134.024,289.767ZM133.469,289.105L133.607,289.263L133.429,289.06L133.469,289.105ZM130.877,286.75L130.969,286.817L130.877,286.75ZM130.142,286.247L130.284,286.339C130.235,286.307 130.188,286.277 130.142,286.247C130.096,286.218 130.051,286.19 130.008,286.163L130.142,286.247ZM129.927,286.113L129.956,286.131L129.886,286.088L129.927,286.113Z" style="fill:rgb(212,228,250);"/>
            <path d="M224.629,233.205L235.227,239.329C236.546,242.212 237.334,245.427 237.314,248.418L237.312,248.586L229.779,244.233C229.07,240.211 227.138,236.123 224.629,233.205Z" style="fill:rgb(193,230,246);"/>
            <path d="M230.089,248.845L237.282,253.002L237.228,260.657L230.175,256.582L230.089,248.845Z" style="fill:rgb(193,230,246);"/>
        </g>
        <g id="Window5">
            <g transform="matrix(0.995672,0.575343,0,0.899219,0.879575,-211.076)">
                <path d="M519.651,263.43C519.651,251.584 513.139,241.967 505.119,241.967L414.887,241.967C406.866,241.967 400.355,251.584 400.355,263.43L400.355,309.933C400.355,321.779 406.866,331.396 414.887,331.396L505.119,331.396C513.139,331.396 519.651,321.779 519.651,309.933L519.651,263.43Z" style="fill:rgb(194,220,246);"/>
            </g>
            <g transform="matrix(0.955651,0.552217,0,0.8072,16.902,-179.552)">
                <path d="M519.651,263.43C519.651,251.584 513.561,241.967 506.06,241.967L413.946,241.967C406.445,241.967 400.355,251.584 400.355,263.43L400.355,309.933C400.355,321.779 406.445,331.396 413.946,331.396L506.06,331.396C513.561,331.396 519.651,321.779 519.651,309.933L519.651,263.43Z" style="fill:white;"/>
                <clipPath id="_clip15">
                    <path d="M519.651,263.43C519.651,251.584 513.561,241.967 506.06,241.967L413.946,241.967C406.445,241.967 400.355,251.584 400.355,263.43L400.355,309.933C400.355,321.779 406.445,331.396 413.946,331.396L506.06,331.396C513.561,331.396 519.651,321.779 519.651,309.933L519.651,263.43Z"/>
                </clipPath>
                <g clip-path="url(#_clip15)">
                    <g transform="matrix(1.04641,-0.715862,0,1.23885,-17.6864,234.537)">
                        <path d="M397.283,260.247L397.283,255.171C397.283,245.61 403.103,241.209 410.271,245.352L498.3,296.219C505.468,300.361 511.288,311.487 511.288,321.049L511.288,326.124L397.283,260.247Z" style="fill:url(#_Linear16);"/>
                    </g>
                </g>
            </g>
            <g>
                <g transform="matrix(0.309492,0.178838,0,0.0858238,315.094,219.428)">
                    <path d="M519.651,263.43C519.651,251.584 517.651,241.967 515.189,241.967L404.817,241.967C402.354,241.967 400.355,251.584 400.355,263.43L400.355,309.933C400.355,321.779 402.354,331.396 404.817,331.396L515.189,331.396C517.651,331.396 519.651,321.779 519.651,309.933L519.651,263.43Z" style="fill:rgb(226,225,254);"/>
                </g>
                <g transform="matrix(0.518054,0.299354,0,0.130822,231.596,143.106)">
                    <path d="M519.651,263.43C519.651,251.584 517.83,241.967 515.588,241.967L404.418,241.967C402.176,241.967 400.355,251.584 400.355,263.43L400.355,309.933C400.355,321.779 402.176,331.396 404.418,331.396L515.588,331.396C517.83,331.396 519.651,321.779 519.651,309.933L519.651,263.43Z" style="fill:rgb(226,225,254);"/>
                </g>
            </g>
            <g transform="matrix(0.114508,0.0661679,0,0.0722794,441.298,255.298)">
                <path d="M519.651,263.43C519.651,251.584 515.1,241.967 509.494,241.967L410.511,241.967C404.906,241.967 400.355,251.584 400.355,263.43L400.355,309.933C400.355,321.779 404.906,331.396 410.511,331.396L509.494,331.396C515.1,331.396 519.651,321.779 519.651,309.933L519.651,263.43Z" style="fill:rgb(159,216,251);"/>
            </g>
            <g>
                <g transform="matrix(2.09508,0,0.679002,2.68593,-658.872,-498.645)">
                    <circle cx="418.268" cy="295.97" r="6.991" style="fill:rgb(226,225,254);"/>
                </g>
                <g transform="matrix(1.19904,0,0.388601,1.53719,-198.137,-158.653)">
                    <circle cx="418.268" cy="295.97" r="6.991" style="fill:url(#_Linear17);"/>
                </g>
            </g>
            <g>
                <g transform="matrix(0.382217,0,0.123874,0.490009,221.798,117.676)">
                    <circle cx="418.268" cy="295.97" r="6.991" style="fill:white;"/>
                </g>
                <g transform="matrix(0.382217,0,0.123874,0.490009,230.405,123.014)">
                    <circle cx="418.268" cy="295.97" r="6.991" style="fill:white;"/>
                </g>
                <g transform="matrix(0.382217,0,0.123874,0.490009,213.575,112.322)">
                    <circle cx="418.268" cy="295.97" r="6.991" style="fill:white;"/>
                </g>
            </g>
        </g>
        <g id="Window1">
            <g transform="matrix(1.06398,0.448103,-0.0280808,0.777574,1.50278,-2.94473)">
                <path d="M126.443,48.955C126.443,35.314 119.465,24.24 110.869,24.24L20.403,24.24C11.808,24.24 4.829,35.314 4.829,48.955L4.829,164.291C4.829,177.931 11.808,189.006 20.403,189.006L110.869,189.006C119.465,189.006 126.443,177.931 126.443,164.291L126.443,48.955Z" style="fill:rgb(209,231,255);"/>
            </g>
            <g transform="matrix(1.03845,0.437353,-0.0272382,0.754242,0.894925,1.07381)">
                <path d="M126.443,48.955C126.443,35.314 119.508,24.24 110.965,24.24L20.307,24.24C11.764,24.24 4.829,35.314 4.829,48.955L4.829,164.291C4.829,177.931 11.764,189.006 20.307,189.006L110.965,189.006C119.508,189.006 126.443,177.931 126.443,164.291L126.443,48.955Z" style="fill:url(#_Linear18);"/>
            </g>
            <g>
                <g transform="matrix(0.836223,0.352182,-0.00332239,0.0919989,11.6186,37.7186)">
                    <path d="M126.443,72.022C126.443,45.65 124.412,24.24 121.91,24.24L9.362,24.24C6.86,24.24 4.829,45.65 4.829,72.022L4.829,141.223C4.829,167.595 6.86,189.006 9.362,189.006L121.91,189.006C124.412,189.006 126.443,167.595 126.443,141.223L126.443,72.022Z" style="fill:rgb(255,253,241);"/>
                </g>
                <g transform="matrix(0.835422,0.351845,-0.00202755,0.0561439,9.88235,72.2947)">
                    <path d="M126.443,104.975C126.443,60.416 124.347,24.24 121.765,24.24L9.507,24.24C6.925,24.24 4.829,60.416 4.829,104.975L4.829,108.27C4.829,152.829 6.925,189.006 9.507,189.006L121.765,189.006C124.347,189.006 126.443,152.829 126.443,108.27L126.443,104.975Z" style="fill:rgb(255,253,241);"/>
                </g>
                <g transform="matrix(0.835422,0.351845,-0.00202755,0.0561439,8.11935,97.9435)">
                    <path d="M126.443,104.975C126.443,60.416 124.347,24.24 121.765,24.24L9.507,24.24C6.925,24.24 4.829,60.416 4.829,104.975L4.829,108.27C4.829,152.829 6.925,189.006 9.507,189.006L121.765,189.006C124.347,189.006 126.443,152.829 126.443,108.27L126.443,104.975Z" style="fill:rgb(255,253,241);"/>
                </g>
                <g transform="matrix(0.835422,0.351845,-0.00202755,0.0561439,7.35056,124.39)">
                    <path d="M126.443,104.975C126.443,60.416 124.347,24.24 121.765,24.24L9.507,24.24C6.925,24.24 4.829,60.416 4.829,104.975L4.829,108.27C4.829,152.829 6.925,189.006 9.507,189.006L121.765,189.006C124.347,189.006 126.443,152.829 126.443,108.27L126.443,104.975Z" style="fill:rgb(255,253,241);"/>
                </g>
            </g>
        </g>
    </g>
    <g id="Człowiek">
        <g transform="matrix(1.15375,0.621813,-0.662492,0.452753,351.617,129.201)">
            <path d="M302.376,560.702C302.376,553.823 299.338,548.237 295.597,548.237L234.558,548.237C230.816,548.237 227.778,553.823 227.778,560.702L227.778,595.129C227.778,602.009 230.816,607.594 234.558,607.594L295.597,607.594C299.338,607.594 302.376,602.009 302.376,595.129L302.376,560.702Z" style="fill:rgb(97,181,200);fill-opacity:0.6;"/>
        </g>
        <g id="Człowiek1" serif:id="Człowiek">
            <path d="M288.145,546.855C288.145,546.855 289.796,559.43 288.825,565.693C287.854,571.957 288.097,573.996 289.747,575.986C291.398,577.977 295.622,581.036 301.982,571.568C302.905,570.549 303.099,568.038 299.555,546.321C297.176,544.754 289.796,544.102 288.145,546.855Z" style="fill:rgb(21,24,58);"/>
            <path d="M266.924,527.789C266.924,527.789 270.627,533.401 266.199,536.741C261.771,540.082 262.393,539.499 258.858,545.092C255.324,550.685 248.915,551.074 244.137,551.152C239.36,551.229 240.525,547.151 243.283,543.344C246.041,539.538 253.459,534.023 253.654,526.06C259.635,525.555 266.211,526.682 266.924,527.789Z" style="fill:rgb(21,24,58);"/>
            <path d="M289.989,409.667C289.989,409.667 296.19,420.435 296.19,434.166C296.19,447.897 294.265,470.457 294.265,476.81C294.265,483.163 298.721,482.12 300.239,503.172C301.756,524.224 301.471,545.37 300.239,546.413C299.006,547.456 290.858,550.392 287.41,546.168C286.488,545.003 287.31,536.919 281.241,509.685C275.172,482.45 269.022,455.011 269.117,459.847C269.212,464.683 271.701,483.411 270.397,496.45C270.041,501.429 267.197,524.069 267.197,526.558C267.197,529.047 264.748,530.02 260.257,530.02C255.766,530.02 253.035,528.745 253.035,523.708C253.035,518.671 252.948,490.904 250.221,468.62C247.495,446.336 247.116,413.326 246.206,404.602C250.53,402.023 286.056,408.207 289.989,409.667Z" style="fill:url(#_Linear19);"/>
            <clipPath id="_clip20">
                <path d="M289.989,409.667C289.989,409.667 296.19,420.435 296.19,434.166C296.19,447.897 294.265,470.457 294.265,476.81C294.265,483.163 298.721,482.12 300.239,503.172C301.756,524.224 301.471,545.37 300.239,546.413C299.006,547.456 290.858,550.392 287.41,546.168C286.488,545.003 287.31,536.919 281.241,509.685C275.172,482.45 269.022,455.011 269.117,459.847C269.212,464.683 271.701,483.411 270.397,496.45C270.041,501.429 267.197,524.069 267.197,526.558C267.197,529.047 264.748,530.02 260.257,530.02C255.766,530.02 253.035,528.745 253.035,523.708C253.035,518.671 252.948,490.904 250.221,468.62C247.495,446.336 247.116,413.326 246.206,404.602C250.53,402.023 286.056,408.207 289.989,409.667Z"/>
            </clipPath>
            <g clip-path="url(#_clip20)">
                <path d="M258.533,420.493L261.022,466.84C261.022,466.84 260.903,471.699 269.675,496.118C271.927,495.169 271.097,481.301 270.505,476.085C269.912,470.87 269.905,460.955 269.905,460.955C269.905,460.955 259.918,427.496 258.533,420.493Z" style="fill:url(#_Linear21);"/>
            </g>
            <path d="M289.671,404.873L289.989,409.667C289.989,409.667 283.92,415.886 271.236,415.037C258.552,414.187 246.13,407.523 245.705,404.003C245.28,400.483 245.38,401.122 245.169,396.913C244.957,392.703 288.508,402.733 289.671,404.873Z" style="fill:rgb(68,73,203);"/>
            <g>
                <g>
                    <path d="M200.203,345.725C200.203,345.725 199.138,342.138 196.225,341.983C193.311,341.827 189.971,340.079 188.728,337.438C187.485,334.797 184.223,339.497 185.932,341.711C187.641,343.925 188.922,344.818 186.631,344.818C184.339,344.818 183.174,345.051 183.096,349.052C183.019,353.052 182.552,360.821 189.233,360.51C195.914,360.199 193.816,358.374 195.564,357.597C197.312,356.82 197.273,357.053 198.244,356.82C199.215,356.587 204.88,352.07 200.203,345.725Z" style="fill:rgb(255,166,151);"/>
                    <path d="M189.171,347.856C189.171,347.856 194.977,348.715 194.977,351.452L194.977,358.77C194.977,358.77 204.316,357.476 201.421,350.481C196.593,349.697 194.276,347.464 191.843,347.034C188.98,347.05 188.661,347.66 189.171,347.856Z" style="fill:url(#_Linear22);"/>
                </g>
            </g>
            <g>
                <path d="M254.845,322.859C247.213,322.588 238.832,347.07 232.83,356.562C232.402,357.183 232.325,357.261 221.255,352.911C210.185,348.56 200.203,345.725 200.203,345.725C200.203,345.725 203.232,353.377 197.795,356.601C198.96,357.805 208.347,368.992 227.768,375.061C234.614,377.003 239.276,376.76 244.859,368.894C250.442,361.029 259.129,337.004 254.845,322.859Z" style="fill:url(#_Linear23);"/>
                <clipPath id="_clip24">
                    <path d="M254.845,322.859C247.213,322.588 238.832,347.07 232.83,356.562C232.402,357.183 232.325,357.261 221.255,352.911C210.185,348.56 200.203,345.725 200.203,345.725C200.203,345.725 203.232,353.377 197.795,356.601C198.96,357.805 208.347,368.992 227.768,375.061C234.614,377.003 239.276,376.76 244.859,368.894C250.442,361.029 259.129,337.004 254.845,322.859Z"/>
                </clipPath>
                <g clip-path="url(#_clip24)">
                    <path d="M249.506,330.566C249.506,330.566 233.956,363.032 232.402,375.469C233.655,380.471 245.075,373.47 245.235,368.671C245.396,363.873 249.293,336.405 249.506,330.566Z" style="fill:url(#_Linear25);"/>
                </g>
                <path d="M281.98,325.899C281.98,325.899 306.604,337.066 307.363,349.583C308.122,362.1 308.425,390.473 308.425,390.473C308.425,390.473 308.816,395.404 294.017,402.687C279.218,409.969 280.485,410.095 271.988,410.171C271.648,410.247 270.52,405.338 267.801,404.27C264.306,406.212 263.801,403.765 260.159,403.182C256.518,402.599 245.235,401.347 245.138,396.54C245.041,391.733 245.235,368.671 245.235,368.671C245.235,368.671 242.938,342.957 249.69,330.212C253.104,324.674 252.939,325.029 254.845,322.859C260.199,321.994 262.996,325.661 263.99,328.737C264.984,331.813 266.14,335.01 271.41,335.01C276.68,335.01 281.98,331.127 281.98,325.899Z" style="fill:url(#_Linear26);"/>
                <path d="M286.518,357.264C286.518,357.264 283.241,386.941 282.634,390.218C286.336,388.337 292.83,386.516 292.405,383.3C291.98,380.083 287.732,362.18 286.518,357.264Z" style="fill:rgb(90,81,214);"/>
            </g>
            <g>
                <path d="M202.15,373.453L231.274,389.945L265.98,421.333L237.058,405.592L202.15,373.453Z" style="fill:rgb(159,210,250);"/>
            </g>
            <path d="M266.81,419.286L266.759,419.335C266.247,419.836 265.722,420.275 265.191,420.619C263.991,421.398 262.765,421.694 261.607,421.143C256.606,418.764 254.276,418.764 246.653,408.908C245.876,407.694 246.847,407.354 252.722,409.879C253.328,410.136 254.272,410.279 254.91,410.208C255.486,410.206 256.036,410.141 256.411,409.996L253.005,406.952C254.146,405.989 257.288,404.388 259.68,403.858C262.966,403.13 268.987,401.673 269.958,402.984C270.929,404.295 274.044,408.665 272.879,410.121C272.879,410.121 270.124,416.008 266.81,419.286Z" style="fill:url(#_Linear27);"/>
            <path d="M266.81,419.286L267.529,419.928L265.98,421.333L265.191,420.619L265.243,420.586L265.294,420.551L265.345,420.517L265.397,420.481L265.448,420.445L265.489,420.416L265.539,420.38L265.588,420.344L265.638,420.307L265.687,420.27L265.736,420.232L265.786,420.194L265.805,420.179L265.835,420.155L265.856,420.138L265.884,420.116L265.907,420.098L265.933,420.076L265.957,420.057L265.982,420.036L266.008,420.015L266.031,419.995L266.059,419.973L266.08,419.954L266.109,419.93L266.129,419.913L266.16,419.887L266.178,419.871L266.21,419.843L266.261,419.799L266.311,419.755L266.361,419.71L266.411,419.664L266.461,419.618L266.519,419.565L266.567,419.52L266.615,419.474L266.663,419.428L266.711,419.382L266.76,419.334L266.81,419.286ZM253.594,410.131L231.274,389.945L202.15,373.453L204.229,372.129L232.571,388.697L256.411,409.996C256.036,410.141 255.486,410.206 254.91,410.208C254.533,410.25 254.051,410.217 253.594,410.131Z" style="fill:rgb(215,255,247);"/>
            <path d="M277.956,312.7C278.019,312.702 278.066,312.718 278.097,312.748C278.964,313.604 279.343,312.981 278.969,316.966C278.663,320.226 281.98,325.899 281.98,325.899C281.98,331.127 276.68,335.01 271.41,335.01C266.14,335.01 264.984,331.813 263.99,328.737C263.678,327.77 263.187,326.746 262.496,325.822L262.496,325.821C262.571,322.566 276.106,312.706 277.934,312.699L277.956,312.7Z" style="fill:url(#_Linear28);"/>
            <g>
                <path d="M275.443,315.52C275.443,315.52 276.57,318.588 270.472,322.628C264.374,326.667 264.49,327.133 260.723,327.133C256.955,327.133 254.353,322.568 252.605,318.5C250.857,314.432 251.711,312.179 251.983,310.626C252.255,309.072 250.585,306.858 250.663,305.188C250.74,303.518 251.051,300.876 250.973,299.672C250.896,298.468 261.965,297.303 261.965,297.303L271.287,297.264L278.667,305.576L279.755,307.984L278.667,312.568C278.667,312.568 277.347,312.568 275.443,315.52Z" style="fill:url(#_Linear29);"/>
                <path d="M247.973,293.622C247.973,293.622 248.478,299.876 254.576,300.963C260.674,302.051 263.937,301.08 265.724,299.72C267.511,298.361 269.569,297.196 269.103,300.031C268.637,302.867 268.421,303.138 269.5,307.566C270.579,311.994 271.705,314.811 272.443,312.199C273.181,309.586 273.259,305.08 276.211,305.935C279.163,306.79 278.542,310.305 278.153,312.199C277.765,314.092 278.969,316.966 278.969,316.966C278.969,316.966 282.892,310.13 283.086,305.236C283.28,300.342 284.037,293.312 279.755,288.689C275.473,284.067 273.197,282.747 266.217,282.747C259.237,282.747 257.723,284.844 254.46,286.514C251.896,288.34 248.284,288.884 247.973,293.622Z" style="fill:rgb(85,45,100);"/>
            </g>
        </g>
    </g>
    <defs>
        <linearGradient id="_Linear2" x1="0" y1="0" x2="1" y2="0" gradientUnits="userSpaceOnUse" gradientTransform="matrix(96.753,62.6746,-62.6746,96.753,377.007,397.654)"><stop offset="0" style="stop-color:rgb(254,191,191);stop-opacity:1"/><stop offset="1" style="stop-color:rgb(250,102,178);stop-opacity:1"/></linearGradient>
        <linearGradient id="_Linear3" x1="0" y1="0" x2="1" y2="0" gradientUnits="userSpaceOnUse" gradientTransform="matrix(91.5235,113.748,-113.748,91.5235,333.611,444.045)"><stop offset="0" style="stop-color:rgb(254,191,191);stop-opacity:1"/><stop offset="1" style="stop-color:rgb(250,93,177);stop-opacity:1"/></linearGradient>
        <linearGradient id="_Linear4" x1="0" y1="0" x2="1" y2="0" gradientUnits="userSpaceOnUse" gradientTransform="matrix(15.4662,28.4778,-48.7149,23.0153,365.112,485.347)"><stop offset="0" style="stop-color:rgb(254,207,221);stop-opacity:1"/><stop offset="1" style="stop-color:rgb(254,194,219);stop-opacity:1"/></linearGradient>
        <linearGradient id="_Linear5" x1="0" y1="0" x2="1" y2="0" gradientUnits="userSpaceOnUse" gradientTransform="matrix(11.5746,20.3785,-20.3785,11.5746,366.678,491.805)"><stop offset="0" style="stop-color:rgb(255,138,220);stop-opacity:1"/><stop offset="1" style="stop-color:rgb(155,94,241);stop-opacity:1"/></linearGradient>
        <linearGradient id="_Linear7" x1="0" y1="0" x2="1" y2="0" gradientUnits="userSpaceOnUse" gradientTransform="matrix(-0.221701,6.88815,-7.53645,1.36404,116.448,197.8)"><stop offset="0" style="stop-color:rgb(66,171,247);stop-opacity:1"/><stop offset="1" style="stop-color:rgb(106,111,254);stop-opacity:1"/></linearGradient>
        <linearGradient id="_Linear8" x1="0" y1="0" x2="1" y2="0" gradientUnits="userSpaceOnUse" gradientTransform="matrix(-7.14849,31.3093,-31.3093,-7.14849,142.618,277.089)"><stop offset="0" style="stop-color:rgb(225,112,172);stop-opacity:1"/><stop offset="1" style="stop-color:rgb(243,168,162);stop-opacity:1"/></linearGradient>
        <linearGradient id="_Linear9" x1="0" y1="0" x2="1" y2="0" gradientUnits="userSpaceOnUse" gradientTransform="matrix(80.75,46.5,-46.5,80.75,110.782,334.592)"><stop offset="0" style="stop-color:rgb(255,138,220);stop-opacity:1"/><stop offset="1" style="stop-color:rgb(150,92,242);stop-opacity:1"/></linearGradient>
        <linearGradient id="_Linear11" x1="0" y1="0" x2="1" y2="0" gradientUnits="userSpaceOnUse" gradientTransform="matrix(9.82076,-65.4525,65.4525,9.82076,389.681,224.526)"><stop offset="0" style="stop-color:rgb(109,106,254);stop-opacity:1"/><stop offset="1" style="stop-color:rgb(63,176,247);stop-opacity:1"/></linearGradient>
        <linearGradient id="_Linear12" x1="0" y1="0" x2="1" y2="0" gradientUnits="userSpaceOnUse" gradientTransform="matrix(8.82587,-82.2414,82.2414,8.82587,430.462,238.369)"><stop offset="0" style="stop-color:rgb(182,181,255);stop-opacity:1"/><stop offset="1" style="stop-color:rgb(166,206,252);stop-opacity:1"/></linearGradient>
        <linearGradient id="_Linear14" x1="0" y1="0" x2="1" y2="0" gradientUnits="userSpaceOnUse" gradientTransform="matrix(3.99896e-15,65.9863,-67.1766,-0.834273,396.281,149.161)"><stop offset="0" style="stop-color:rgb(28,142,244);stop-opacity:1"/><stop offset="1" style="stop-color:rgb(0,207,221);stop-opacity:1"/></linearGradient>
        <linearGradient id="_Linear16" x1="0" y1="0" x2="1" y2="0" gradientUnits="userSpaceOnUse" gradientTransform="matrix(91.3994,34.8369,-26.1152,68.5168,407.298,267.592)"><stop offset="0" style="stop-color:rgb(109,106,254);stop-opacity:1"/><stop offset="1" style="stop-color:rgb(63,176,247);stop-opacity:1"/></linearGradient>
        <linearGradient id="_Linear17" x1="0" y1="0" x2="1" y2="0" gradientUnits="userSpaceOnUse" gradientTransform="matrix(7.35694,-7.66171,8.59034,3.80169,416.935,300.084)"><stop offset="0" style="stop-color:rgb(109,106,254);stop-opacity:1"/><stop offset="1" style="stop-color:rgb(63,176,247);stop-opacity:1"/></linearGradient>
        <linearGradient id="_Linear18" x1="0" y1="0" x2="1" y2="0" gradientUnits="userSpaceOnUse" gradientTransform="matrix(62.9637,85.4921,-85.1241,132.962,35.9109,69.0538)"><stop offset="0" style="stop-color:rgb(107,107,255);stop-opacity:1"/><stop offset="1" style="stop-color:rgb(104,186,247);stop-opacity:1"/></linearGradient>
        <linearGradient id="_Linear19" x1="0" y1="0" x2="1" y2="0" gradientUnits="userSpaceOnUse" gradientTransform="matrix(15.2798,115.525,-115.525,15.2798,277.961,415.263)"><stop offset="0" style="stop-color:rgb(59,65,132);stop-opacity:1"/><stop offset="1" style="stop-color:rgb(27,33,83);stop-opacity:1"/></linearGradient>
        <linearGradient id="_Linear21" x1="0" y1="0" x2="1" y2="0" gradientUnits="userSpaceOnUse" gradientTransform="matrix(-5.94757,-48.0054,48.0054,-5.94757,268.706,489.302)"><stop offset="0" style="stop-color:rgb(23,27,71);stop-opacity:1"/><stop offset="1" style="stop-color:rgb(40,44,96);stop-opacity:1"/></linearGradient>
        <linearGradient id="_Linear22" x1="0" y1="0" x2="1" y2="0" gradientUnits="userSpaceOnUse" gradientTransform="matrix(9.40687,4.55171,-4.55171,9.40687,190.67,347.566)"><stop offset="0" style="stop-color:rgb(255,144,127);stop-opacity:1"/><stop offset="1" style="stop-color:rgb(255,142,124);stop-opacity:1"/></linearGradient>
        <linearGradient id="_Linear23" x1="0" y1="0" x2="1" y2="0" gradientUnits="userSpaceOnUse" gradientTransform="matrix(-32.469,24.1241,-24.1241,-32.469,247.625,339.539)"><stop offset="0" style="stop-color:rgb(159,115,247);stop-opacity:1"/><stop offset="1" style="stop-color:rgb(84,88,212);stop-opacity:1"/></linearGradient>
        <linearGradient id="_Linear25" x1="0" y1="0" x2="1" y2="0" gradientUnits="userSpaceOnUse" gradientTransform="matrix(11.9103,-31.4889,31.4889,11.9103,234.927,373.741)"><stop offset="0" style="stop-color:rgb(68,73,202);stop-opacity:1"/><stop offset="1" style="stop-color:rgb(124,91,233);stop-opacity:1"/></linearGradient>
        <linearGradient id="_Linear26" x1="0" y1="0" x2="1" y2="0" gradientUnits="userSpaceOnUse" gradientTransform="matrix(3.47484e-15,56.7484,-56.7484,3.47484e-15,269.5,340.898)"><stop offset="0" style="stop-color:rgb(159,115,247);stop-opacity:1"/><stop offset="1" style="stop-color:rgb(84,88,212);stop-opacity:1"/></linearGradient>
        <linearGradient id="_Linear27" x1="0" y1="0" x2="1" y2="0" gradientUnits="userSpaceOnUse" gradientTransform="matrix(-5.24358,13.4974,-13.4974,-5.24358,267.287,405.703)"><stop offset="0" style="stop-color:rgb(255,184,158);stop-opacity:1"/><stop offset="1" style="stop-color:rgb(255,167,153);stop-opacity:1"/></linearGradient>
        <linearGradient id="_Linear28" x1="0" y1="0" x2="1" y2="0" gradientUnits="userSpaceOnUse" gradientTransform="matrix(-5.96604,-9.50838,9.50838,-5.96604,278.535,329.947)"><stop offset="0" style="stop-color:rgb(255,166,151);stop-opacity:1"/><stop offset="1" style="stop-color:rgb(255,152,136);stop-opacity:1"/></linearGradient>
        <linearGradient id="_Linear29" x1="0" y1="0" x2="1" y2="0" gradientUnits="userSpaceOnUse" gradientTransform="matrix(20.5471,13.1284,-13.1284,20.5471,252.294,302.275)"><stop offset="0" style="stop-color:rgb(255,184,158);stop-opacity:1"/><stop offset="1" style="stop-color:rgb(255,166,151);stop-opacity:1"/></linearGradient>
    </defs>
</svg>
