<?xml version="1.0" encoding="UTF-8" standalone="no"?>
<!DOCTYPE svg PUBLIC "-//W3C//DTD SVG 1.1//EN" "http://www.w3.org/Graphics/SVG/1.1/DTD/svg11.dtd">
<svg width="100%" height="100%" viewBox="0 0 297 234" version="1.1" xmlns="http://www.w3.org/2000/svg" xmlns:xlink="http://www.w3.org/1999/xlink" xml:space="preserve" xmlns:serif="http://www.serif.com/" style="fill-rule:evenodd;clip-rule:evenodd;stroke-linecap:round;stroke-linejoin:round;stroke-miterlimit:1.5;">
    <g id="Background">
        <g>
            <g transform="matrix(0.639866,0,0,0.640983,120.69,28.2776)">
                <path d="M36.773,23.058C36.731,22.632 36.71,22.201 36.71,21.766C36.71,14.502 42.607,8.606 49.87,8.606C56.044,8.606 61.231,12.866 62.647,18.604C64.397,16.697 66.911,15.5 69.701,15.5C74.253,15.5 78.067,18.684 79.036,22.944C80.388,20.811 82.771,19.394 85.481,19.394C89.69,19.394 93.107,22.811 93.107,27.02L99.218,27.02C101.399,27.02 103.17,28.791 103.17,30.973C103.17,33.155 101.399,34.926 99.218,34.926L17.901,34.926C15.719,34.926 13.948,33.155 13.948,30.973C13.948,28.791 15.719,27.02 17.901,27.02L22.026,27.02C22.026,22.657 25.568,19.114 29.931,19.114C32.851,19.114 35.404,20.701 36.773,23.058Z" style="fill:rgb(226,238,246);"/>
            </g>
            <path d="M36.773,23.058C36.731,22.632 36.71,22.201 36.71,21.766C36.71,14.502 42.607,8.606 49.87,8.606C56.044,8.606 61.231,12.866 62.647,18.604C64.397,16.697 66.911,15.5 69.701,15.5C74.253,15.5 78.067,18.684 79.036,22.944C80.388,20.811 82.771,19.394 85.481,19.394C89.69,19.394 93.107,22.811 93.107,27.02L99.218,27.02C101.399,27.02 103.17,28.791 103.17,30.973C103.17,33.155 101.399,34.926 99.218,34.926L17.901,34.926C15.719,34.926 13.948,33.155 13.948,30.973C13.948,28.791 15.719,27.02 17.901,27.02L22.026,27.02C22.026,22.657 25.568,19.114 29.931,19.114C32.851,19.114 35.404,20.701 36.773,23.058Z" style="fill:rgb(226,238,246);"/>
            <g transform="matrix(1,0,0,1,188.786,5.4108)">
                <path d="M36.773,23.058C36.731,22.632 36.71,22.201 36.71,21.766C36.71,14.502 42.607,8.606 49.87,8.606C56.044,8.606 61.231,12.866 62.647,18.604C64.397,16.697 66.911,15.5 69.701,15.5C74.253,15.5 78.067,18.684 79.036,22.944C80.388,20.811 82.771,19.394 85.481,19.394C89.69,19.394 93.107,22.811 93.107,27.02L99.218,27.02C101.399,27.02 103.17,28.791 103.17,30.973C103.17,33.155 101.399,34.926 99.218,34.926L17.901,34.926C15.719,34.926 13.948,33.155 13.948,30.973C13.948,28.791 15.719,27.02 17.901,27.02L22.026,27.02C22.026,22.657 25.568,19.114 29.931,19.114C32.851,19.114 35.404,20.701 36.773,23.058Z" style="fill:rgb(226,238,246);"/>
            </g>
        </g>
        <path d="M75.752,77.154C75.752,77.154 87.362,57.314 123.096,58.667C158.83,60.02 193.775,90.906 210.458,92.372C227.141,93.837 263.807,95.272 271.724,104.941C276.985,111.366 282.311,125.057 276.393,141.121C270.475,157.184 240.584,201.462 226.07,205.407C211.557,209.352 197.044,209.916 166.044,209.916C135.045,209.916 99.36,212.135 67.304,154.364C49.867,113.325 75.752,77.154 75.752,77.154Z" style="fill:rgb(226,238,246);"/>
        <clipPath id="_clip1">
            <path d="M75.752,77.154C75.752,77.154 87.362,57.314 123.096,58.667C158.83,60.02 193.775,90.906 210.458,92.372C227.141,93.837 263.807,95.272 271.724,104.941C276.985,111.366 282.311,125.057 276.393,141.121C270.475,157.184 240.584,201.462 226.07,205.407C211.557,209.352 197.044,209.916 166.044,209.916C135.045,209.916 99.36,212.135 67.304,154.364C49.867,113.325 75.752,77.154 75.752,77.154Z"/>
        </clipPath>
        <g clip-path="url(#_clip1)">
            <path d="M257.298,98.019C257.298,98.019 241.136,113.954 206.507,112.601C171.878,111.249 151.632,107.01 141.712,108.025C131.793,109.039 91.268,118.103 63.397,106.357C61.903,85.48 74.19,76.124 74.19,76.124C74.19,76.124 94.03,72.855 117.251,81.196C122.211,83.113 152.597,94.044 189.233,94.416C202.091,94.61 212.307,94.847 218.491,93.007C224.675,91.167 257.298,98.019 257.298,98.019Z" style="fill:rgb(240,245,253);"/>
            <path d="M252.641,152.825C252.641,152.825 224.63,156.865 182.498,146.861C155.564,140.32 137.72,133.659 95.155,140.994C83.612,143.639 79.269,143.704 63.405,142.65L63.146,191.253C63.146,191.253 88.036,180.803 112.084,174.671C136.132,168.539 150.409,162.286 200.701,169.982C250.992,177.677 260.764,171.905 269.06,169.621C277.357,167.336 282.029,149.18 282.029,149.18C282.029,149.18 274.61,151.06 252.641,152.825Z" style="fill:rgb(240,245,253);"/>
        </g>
        <ellipse cx="161.185" cy="221.035" rx="127.366" ry="6.935" style="fill:rgb(226,238,246);"/>
        <g>
            <g transform="matrix(0.89454,0,0,0.89454,25.0642,7.68181)">
                <path d="M234.356,64.621C235.423,64.16 236.599,63.904 237.834,63.904L238.125,60.101L241.537,60.524L241.817,64.859C242.532,65.225 243.191,65.685 243.776,66.223L246.839,63.595L248.953,66.308L246.085,69.571L245.998,69.452C246.362,70.371 246.575,71.365 246.608,72.405L250.392,72.694L249.968,76.107L245.799,76.376C245.393,77.249 244.848,78.044 244.192,78.733L246.663,81.613L243.95,83.726L240.791,80.95C240.111,81.193 239.394,81.355 238.649,81.424L238.331,85.581L234.918,85.157L234.641,80.862C233.592,80.451 232.641,79.845 231.833,79.087L231.844,79.106L228.949,81.59L226.835,78.877L229.6,75.731C229.326,74.993 229.149,74.207 229.084,73.39L224.939,73.073L225.363,69.66L229.698,69.381L229.698,69.382C230.048,68.521 230.531,67.728 231.121,67.029L231.105,67.041L228.39,63.876L231.103,61.762L234.356,64.621ZM237.665,69.157C239.699,69.157 241.349,70.808 241.349,72.841C241.349,74.874 239.699,76.525 237.665,76.525C235.632,76.525 233.982,74.874 233.982,72.841C233.982,70.808 235.632,69.157 237.665,69.157Z" style="fill:rgb(205,220,227);"/>
            </g>
            <g transform="matrix(0.859113,0,0,0.859113,-148.817,14.0823)">
                <path d="M234.356,64.621C235.423,64.16 236.599,63.904 237.834,63.904L238.125,60.101L241.537,60.524L241.817,64.859C242.532,65.225 243.191,65.685 243.776,66.223L246.839,63.595L248.953,66.308L246.085,69.571L245.998,69.452C246.362,70.371 246.575,71.365 246.608,72.405L250.392,72.694L249.968,76.107L245.799,76.376C245.393,77.249 244.848,78.044 244.192,78.733L246.663,81.613L243.95,83.726L240.791,80.95C240.111,81.193 239.394,81.355 238.649,81.424L238.331,85.581L234.918,85.157L234.641,80.862C233.592,80.451 232.641,79.845 231.833,79.087L231.844,79.106L228.949,81.59L226.835,78.877L229.6,75.731C229.326,74.993 229.149,74.207 229.084,73.39L224.939,73.073L225.363,69.66L229.698,69.381L229.698,69.382C230.048,68.521 230.531,67.728 231.121,67.029L231.105,67.041L228.39,63.876L231.103,61.762L234.356,64.621ZM237.665,69.157C239.699,69.157 241.349,70.808 241.349,72.841C241.349,74.874 239.699,76.525 237.665,76.525C235.632,76.525 233.982,74.874 233.982,72.841C233.982,70.808 235.632,69.157 237.665,69.157Z" style="fill:rgb(205,220,227);"/>
            </g>
            <g transform="matrix(0.461321,0,0,0.461321,151.587,44.7571)">
                <path d="M234.356,64.621C235.423,64.16 236.599,63.904 237.834,63.904L238.125,60.101L241.537,60.524L241.817,64.859C242.532,65.225 243.191,65.685 243.776,66.223L246.839,63.595L248.953,66.308L246.085,69.571L245.998,69.452C246.362,70.371 246.575,71.365 246.608,72.405L250.392,72.694L249.968,76.107L245.799,76.376C245.393,77.249 244.848,78.044 244.192,78.733L246.663,81.613L243.95,83.726L240.791,80.95C240.111,81.193 239.394,81.355 238.649,81.424L238.331,85.581L234.918,85.157L234.641,80.862C233.592,80.451 232.641,79.845 231.833,79.087L231.844,79.106L228.949,81.59L226.835,78.877L229.6,75.731C229.326,74.993 229.149,74.207 229.084,73.39L224.939,73.073L225.363,69.66L229.698,69.381L229.698,69.382C230.048,68.521 230.531,67.728 231.121,67.029L231.105,67.041L228.39,63.876L231.103,61.762L234.356,64.621ZM237.665,69.157C239.699,69.157 241.349,70.808 241.349,72.841C241.349,74.874 239.699,76.525 237.665,76.525C235.632,76.525 233.982,74.874 233.982,72.841C233.982,70.808 235.632,69.157 237.665,69.157Z" style="fill:rgb(205,220,227);"/>
            </g>
        </g>
        <g>
            <g id="_1111" serif:id="1111" transform="matrix(0.966734,0,0,0.966734,-132.876,77.7403)">
                <path d="M218.784,24.997C218.784,21.362 215.833,18.411 212.199,18.411L206.554,18.411C202.919,18.411 199.968,21.362 199.968,24.997L199.968,30.642C199.968,34.277 202.919,37.228 206.554,37.228L212.199,37.228C215.833,37.228 218.784,34.277 218.784,30.642L218.784,24.997Z" style="fill:rgb(241,166,12);"/>
            </g>
            <g transform="matrix(14.1176,0,0,14.1176,64.9332,109.639)">
                <path d="M0.615,-0.206C0.615,-0.168 0.605,-0.133 0.585,-0.102C0.564,-0.07 0.535,-0.044 0.496,-0.025C0.457,-0.006 0.41,0.005 0.355,0.007L0.355,0.087L0.292,0.087L0.292,0.005C0.219,-0.002 0.159,-0.024 0.113,-0.062C0.066,-0.1 0.042,-0.152 0.039,-0.217L0.248,-0.217C0.251,-0.183 0.265,-0.161 0.292,-0.15L0.292,-0.278C0.236,-0.293 0.192,-0.308 0.16,-0.321C0.128,-0.334 0.1,-0.355 0.075,-0.384C0.05,-0.413 0.037,-0.453 0.037,-0.504C0.037,-0.546 0.048,-0.583 0.07,-0.614C0.093,-0.645 0.123,-0.669 0.162,-0.686C0.201,-0.703 0.244,-0.712 0.292,-0.715L0.292,-0.796L0.355,-0.796L0.355,-0.715C0.429,-0.71 0.488,-0.688 0.532,-0.651C0.575,-0.614 0.599,-0.562 0.604,-0.497L0.393,-0.497C0.39,-0.528 0.378,-0.548 0.355,-0.558L0.355,-0.431L0.38,-0.423C0.428,-0.41 0.468,-0.396 0.5,-0.382C0.531,-0.367 0.558,-0.346 0.581,-0.318C0.604,-0.289 0.615,-0.252 0.615,-0.206ZM0.246,-0.513C0.246,-0.489 0.261,-0.469 0.292,-0.454L0.292,-0.564C0.261,-0.559 0.246,-0.542 0.246,-0.513ZM0.355,-0.145C0.371,-0.148 0.384,-0.155 0.393,-0.165C0.402,-0.174 0.407,-0.186 0.407,-0.201C0.407,-0.224 0.39,-0.243 0.355,-0.258L0.355,-0.145Z" style="fill:white;fill-rule:nonzero;"/>
            </g>
        </g>
        <g>
            <g transform="matrix(0.966734,0,0,0.966734,6.65213,1.23841)">
                <path d="M218.784,24.997C218.784,21.362 215.833,18.411 212.199,18.411L206.554,18.411C202.919,18.411 199.968,21.362 199.968,24.997L199.968,30.642C199.968,34.277 202.919,37.228 206.554,37.228L212.199,37.228C215.833,37.228 218.784,34.277 218.784,30.642L218.784,24.997Z" style="fill:rgb(241,166,12);"/>
            </g>
            <g transform="matrix(11.9256,0,0,11.9256,203.673,32.3482)">
                <path d="M0.026,-0.543C0.026,-0.6 0.042,-0.643 0.074,-0.673C0.106,-0.703 0.148,-0.718 0.2,-0.718C0.251,-0.718 0.293,-0.703 0.325,-0.673C0.357,-0.643 0.373,-0.6 0.373,-0.543C0.373,-0.487 0.357,-0.444 0.325,-0.413C0.293,-0.383 0.251,-0.368 0.2,-0.368C0.149,-0.368 0.107,-0.383 0.075,-0.413C0.042,-0.444 0.026,-0.487 0.026,-0.543ZM0.736,-0.707L0.357,-0L0.169,-0L0.548,-0.707L0.736,-0.707ZM0.199,-0.603C0.172,-0.603 0.158,-0.583 0.158,-0.543C0.158,-0.503 0.172,-0.483 0.199,-0.483C0.212,-0.483 0.223,-0.488 0.231,-0.498C0.238,-0.508 0.242,-0.523 0.242,-0.543C0.242,-0.563 0.238,-0.578 0.231,-0.588C0.223,-0.598 0.212,-0.603 0.199,-0.603ZM0.532,-0.165C0.532,-0.221 0.548,-0.264 0.581,-0.295C0.613,-0.325 0.655,-0.34 0.706,-0.34C0.757,-0.34 0.799,-0.325 0.831,-0.295C0.862,-0.264 0.878,-0.221 0.878,-0.165C0.878,-0.108 0.862,-0.065 0.831,-0.035C0.799,-0.004 0.757,0.011 0.706,0.011C0.655,0.011 0.613,-0.004 0.581,-0.035C0.548,-0.065 0.532,-0.108 0.532,-0.165ZM0.705,-0.225C0.677,-0.225 0.663,-0.205 0.663,-0.165C0.663,-0.124 0.677,-0.104 0.705,-0.104C0.718,-0.104 0.728,-0.109 0.736,-0.119C0.743,-0.13 0.747,-0.145 0.747,-0.165C0.747,-0.184 0.743,-0.199 0.736,-0.21C0.728,-0.22 0.718,-0.225 0.705,-0.225Z" style="fill:white;fill-rule:nonzero;"/>
            </g>
        </g>
    </g>
    <g id="Leaves">
        <g>
            <path d="M252.051,201.906C252.051,201.906 253.263,197.559 248.06,193.924C246.492,192.998 248.773,177.533 243.499,177.319C238.226,177.105 239.223,185.677 236.586,187.876C233.949,190.076 227.322,195.991 232.595,203.902C233.593,205.755 224.471,211.883 226.752,217.086C229.032,222.288 229.531,221.85 229.531,221.85L251.624,221.85L252.051,201.906Z" style="fill:rgb(25,64,187);stroke:rgb(13,45,141);stroke-width:0.52px;"/>
            <path d="M236.936,221.85C236.936,221.85 240.186,193.94 241.497,189.721" style="fill:none;stroke:rgb(13,45,141);stroke-width:0.7px;"/>
        </g>
        <g>
            <path d="M261.8,221.85C261.8,221.85 262.067,215.37 264.561,212.965C267.056,210.559 276.142,211.985 278.28,206.996C280.418,202.007 274.093,196.573 277.567,190.872C281.042,185.171 283.803,178.667 279.616,174.748C275.429,170.828 269.194,179.38 266.521,182.854C263.849,186.329 257.791,185.349 255.386,188.823C252.98,192.297 254.673,197.821 252.446,202.007C250.931,205.125 241.934,202.898 240.152,211.272C240.108,211.482 240.07,211.688 240.024,211.888C239.239,215.341 239.714,220.872 239.974,221.85L261.8,221.85Z" style="fill:rgb(4,104,200);stroke:rgb(0,82,183);stroke-width:0.76px;"/>
            <path d="M249.291,221.85C249.291,221.85 263.56,196.848 271.339,188.944" style="fill:none;stroke:rgb(0,82,183);stroke-width:0.7px;"/>
        </g>
        <g>
            <path d="M92.772,186.95C92.772,186.95 95.398,181.987 102.003,179.689C101.966,181.769 100.937,191.288 93.515,191.253C93.145,188.628 92.772,186.95 92.772,186.95" style="fill:rgb(4,104,200);stroke:rgb(13,45,141);stroke-width:0.7px;"/>
            <path d="M88.673,169.83C88.673,169.83 91.635,164.694 98.24,162.395C98.203,164.475 97.174,173.994 89.752,173.96C89.242,171.335 88.673,169.83 88.673,169.83Z" style="fill:rgb(4,104,200);stroke:rgb(13,45,141);stroke-width:0.7px;"/>
            <g transform="matrix(-1,0,0,1,179.834,8.80107)">
                <path d="M88.813,169.815C88.813,169.815 94.908,164.543 101.684,165.489C101.648,167.569 96.941,176.82 87.914,173.837C88.542,170.979 88.813,169.815 88.813,169.815Z" style="fill:rgb(4,104,200);stroke:rgb(13,45,141);stroke-width:0.7px;"/>
            </g>
            <g transform="matrix(-1,0,0,1,173.544,-10.0704)">
                <path d="M89.52,166.953C89.52,166.953 94.908,164.543 101.684,165.489C101.648,167.569 97.029,173.681 88.002,170.699C89.039,167.957 89.52,166.953 89.52,166.953Z" style="fill:rgb(4,104,200);stroke:rgb(13,45,141);stroke-width:0.7px;"/>
            </g>
            <path d="M76.053,142.134C76.053,142.134 76.152,135.037 65.096,134.015C65.315,136.789 68.292,144.743 76.053,142.134Z" style="fill:rgb(4,104,200);stroke:rgb(13,45,141);stroke-width:0.7px;"/>
            <g transform="matrix(1,0,0,1,-7.12669,-20.261)">
                <path d="M87.885,170.241C87.885,170.241 88.658,162.651 95.262,160.352C95.226,162.432 97.174,173.994 89.752,173.96C88.453,171.335 87.885,170.241 87.885,170.241Z" style="fill:rgb(4,104,200);stroke:rgb(13,45,141);stroke-width:0.7px;"/>
            </g>
            <path d="M95.206,205.786C95.206,205.786 93.202,167.078 76.053,142.134" style="fill:none;stroke:rgb(13,45,141);stroke-width:0.7px;"/>
        </g>
        <g>
            <path d="M66.992,194.06C66.992,194.06 46.756,188.146 48.519,183.889C50.283,179.632 64.97,191.885 66.992,194.06Z" style="fill:rgb(21,63,194);stroke:rgb(13,45,141);stroke-width:0.7px;"/>
            <path d="M75.085,214.774C75.085,214.774 50.195,189.099 45.269,199.772C42.578,206.385 73.11,215.045 75.085,214.774Z" style="fill:rgb(21,63,194);stroke:rgb(13,45,141);stroke-width:0.7px;"/>
            <path d="M68.564,198.24C68.564,198.24 72.001,178.013 76.053,179.899C80.106,181.784 71.394,195.812 68.564,198.24Z" style="fill:rgb(21,63,194);stroke:rgb(13,45,141);stroke-width:0.7px;"/>
            <path d="M76.053,217.164C76.053,217.164 67.518,196.23 65.096,188.657" style="fill:rgb(13,43,124);stroke:rgb(13,45,141);stroke-width:0.7px;"/>
            <path d="M65.096,188.657C59.815,183.692 54.563,162.168 61.051,161.342C66.144,160.582 65.096,188.657 65.096,188.657Z" style="fill:rgb(21,63,194);stroke:rgb(13,45,141);stroke-width:0.7px;"/>
        </g>
    </g>
    <g id="Human">
        <g>
            <path d="M211.228,159.455L213.448,162.344L217.511,159.999L215.074,156.255C215.074,156.255 211.09,158.387 211.228,159.455Z" style="fill:rgb(253,158,136);"/>
            <g transform="matrix(-0.0134308,0.99991,-0.99991,-0.0134308,291.189,-41.4877)">
                <path d="M211.306,159.537L213.448,162.344L217.511,159.999L215.006,156.079C215.006,156.079 211.168,158.468 211.306,159.537Z" style="fill:rgb(253,158,136);"/>
            </g>
            <path d="M214.764,161.068C213.788,161.799 211.797,163.207 213.585,165.377C216.261,168.552 216.379,168.952 222.058,165.94C227.737,162.928 232.272,160.978 230.912,158.71C229.551,156.442 224.607,160.343 221.568,159.526C218.529,158.71 216.229,160.161 214.764,161.068Z" style="fill:rgb(4,104,200);"/>
            <g transform="matrix(-0.258819,0.965926,-0.965926,-0.258819,339.346,5.68557)">
                <path d="M214.764,161.068C213.788,161.799 211.797,163.207 213.585,165.377C216.261,168.552 216.379,168.952 222.058,165.94C227.737,162.928 232.272,160.978 230.912,158.71C229.551,156.442 224.607,160.343 221.568,159.526C218.529,158.71 216.229,160.161 214.764,161.068Z" style="fill:rgb(4,104,200);"/>
            </g>
            <g>
                <path d="M150.203,115.299L151.819,145.686C151.819,145.686 152.529,147.918 148.5,150.476C144.471,153.034 129.286,165.834 129.286,165.834C129.286,165.834 126.777,168.068 129.251,170.576C131.724,173.084 131.724,172.875 134.929,170.611C138.134,168.347 159.237,157.238 159.237,157.238C159.237,157.238 163.434,154.321 163.761,147.79C164.087,141.258 165.049,126.612 165.049,126.612C165.049,126.612 155.151,114.105 150.203,115.299Z" style="fill:url(#_Linear2);"/>
                <path d="M149.807,111.085C149.807,111.085 148.582,126.189 166.203,126.665C183.825,127.142 190.628,128.026 190.628,128.026C190.628,128.026 190.22,134.354 200.766,144.355C203.38,146.834 209.678,159.595 209.678,159.595C209.678,159.595 210.399,160.748 213.011,158.867C215.624,156.986 216.495,155.628 213.882,151.656C211.27,147.685 200.998,126.984 200.998,126.984C200.998,126.984 197.66,121.732 193.41,119.468C189.161,117.203 178.223,112.257 176.899,111.909C175.575,111.56 171.534,108.837 166.379,108.944C161.223,109.052 159.236,111.085 149.807,111.085Z" style="fill:rgb(4,52,87);"/>
            </g>
        </g>
        <g>
            <path d="M170.174,50.048C170.174,50.048 169.96,52.008 168.915,53.018C167.925,53.976 178.044,63.21 176.374,55.538C176.281,55.113 175.985,54.586 175.818,54.054C175.423,52.604 175.469,52.103 176.619,52.138C177.768,52.172 180.52,52.416 180.764,51.476C181.008,50.535 181.426,49.281 179.301,48.306C178.43,47.783 178.57,46.39 179.928,46.703C181.287,47.017 182.123,47.644 182.053,46.634C181.983,45.624 181.67,45.171 182.088,45.066C182.506,44.962 183.899,45.519 183.272,44.126C182.645,42.732 181.914,42.523 181.74,40.747C181.565,38.97 182.192,37.159 181.74,36.323C181.287,35.487 178.221,33.327 175.678,33.884C173.135,34.442 167.875,34.267 167.98,39.005C168.084,43.742 167.562,44.056 168.642,45.658C169.722,47.261 170.418,48.689 170.174,50.048Z" style="fill:rgb(253,158,136);"/>
            <path d="M178.002,41.558C178.029,41.203 178.505,41.032 179.229,41.032C179.954,41.032 181.01,41.055 181.005,41.558C181.004,41.769 180.941,42.031 180.012,42.02C179.083,42.008 177.955,42.16 178.002,41.558Z" style="fill:white;"/>
            <clipPath id="_clip3">
                <path d="M178.002,41.558C178.029,41.203 178.505,41.032 179.229,41.032C179.954,41.032 181.01,41.055 181.005,41.558C181.004,41.769 180.941,42.031 180.012,42.02C179.083,42.008 177.955,42.16 178.002,41.558Z"/>
            </clipPath>
            <g clip-path="url(#_clip3)">
                <g transform="matrix(2.05852,0,0,2.05852,-190.822,-44.4166)">
                    <circle cx="180.238" cy="41.752" r="0.339"/>
                </g>
            </g>
            <path d="M175.109,42.968C175.109,42.968 175.979,40.042 175.979,38.44C175.979,36.837 174.426,35.618 176.516,35.618C178.606,35.618 178.871,36.141 180.264,36.141C181.657,36.141 184.026,35.096 184.026,33.11C184.026,31.124 179.637,28.965 173.541,28.965C170.545,28.965 163.996,33.911 163.996,38.509C163.996,43.108 168.42,49.97 169.988,49.97C171.555,49.97 173.071,49.482 173.071,46.783C173.071,44.083 169.047,45.546 169.047,42.167C169.047,40.53 169.814,40.007 171.486,40.007C173.158,40.007 174.133,44.571 175.109,42.968Z" style="fill:rgb(31,47,46);"/>
            <path d="M182.006,38.968C182.006,38.968 180.608,39.034 179.331,39.242C178.62,39.357 177.956,39.511 177.583,39.721C177.53,39.745 177.506,39.808 177.53,39.861C177.554,39.914 177.617,39.937 177.67,39.913C178.05,39.781 178.691,39.755 179.369,39.767C180.622,39.789 181.967,39.967 181.967,39.967C182.243,39.978 182.475,39.763 182.486,39.487C182.497,39.211 182.282,38.979 182.006,38.968Z" style="fill:rgb(31,47,46);"/>
        </g>
        <g>
            <path d="M116.642,101.279L115.035,100.537C114.54,100.308 114.324,99.72 114.552,99.225L117.49,92.864C117.718,92.369 118.306,92.152 118.801,92.381L130.696,97.879C131.191,98.108 131.407,98.695 131.178,99.191L128.241,105.552C128.012,106.047 127.424,106.263 126.929,106.034L125.325,105.293L127.266,101.089C127.462,100.665 127.276,100.16 126.852,99.964L119.708,96.662C119.283,96.466 118.779,96.651 118.583,97.076L116.642,101.279Z" style="fill:rgb(241,166,12);"/>
            <g transform="matrix(3.73567,1.72666,-1.8093,3.91804,-151.814,-501.36)">
                <path d="M127.835,101.096C127.835,100.647 127.452,100.282 126.981,100.282L116.497,100.282C116.025,100.282 115.643,100.647 115.643,101.096L115.643,106.87C115.643,107.32 116.025,107.685 116.497,107.685L126.981,107.685C127.452,107.685 127.835,107.32 127.835,106.87L127.835,101.096Z" style="fill:rgb(5,54,85);"/>
                <clipPath id="_clip4">
                    <path d="M127.835,101.096C127.835,100.647 127.452,100.282 126.981,100.282L116.497,100.282C116.025,100.282 115.643,100.647 115.643,101.096L115.643,106.87C115.643,107.32 116.025,107.685 116.497,107.685L126.981,107.685C127.452,107.685 127.835,107.32 127.835,106.87L127.835,101.096Z"/>
                </clipPath>
                <g clip-path="url(#_clip4)">
                    <g transform="matrix(1.09368,5.55112e-17,5.55112e-17,0.622592,-11.5121,41.5976)">
                        <rect x="115.643" y="100.282" width="12.192" height="7.402" style="fill:rgb(3,27,46);"/>
                    </g>
                </g>
                <path d="M127.835,101.096C127.835,100.647 127.452,100.282 126.981,100.282L116.497,100.282C116.025,100.282 115.643,100.647 115.643,101.096L115.643,106.87C115.643,107.32 116.025,107.685 116.497,107.685L126.981,107.685C127.452,107.685 127.835,107.32 127.835,106.87L127.835,101.096Z" style="fill:none;stroke:rgb(3,27,46);stroke-width:0.12px;"/>
            </g>
            <g transform="matrix(0.357422,0.165204,-0.412485,0.893235,126.574,10.3533)">
                <path d="M127.835,102.722C127.835,101.375 125.103,100.282 121.739,100.282C118.374,100.282 115.643,101.375 115.643,102.722L115.643,105.245C115.643,106.591 118.374,107.685 121.739,107.685C125.103,107.685 127.835,106.591 127.835,105.245L127.835,102.722Z" style="fill:rgb(241,166,12);stroke:rgb(3,27,46);stroke-width:0.7px;"/>
            </g>
            <g transform="matrix(0.357422,0.165204,-0.412485,0.893235,100.763,-1.53686)">
                <path d="M127.835,102.722C127.835,101.375 125.103,100.282 121.739,100.282C118.374,100.282 115.643,101.375 115.643,102.722L115.643,105.245C115.643,106.591 118.374,107.685 121.739,107.685C125.103,107.685 127.835,106.591 127.835,105.245L127.835,102.722Z" style="fill:rgb(241,166,12);stroke:rgb(3,27,46);stroke-width:0.7px;"/>
            </g>
        </g>
        <g>
            <path d="M215.922,58.036C215.922,58.036 217.173,53.832 218.345,52.961C219.517,52.09 220.408,52.977 220.127,54.006C221.52,53.179 225.168,49.96 225.762,50.965C226.416,52.071 224.099,53.445 223.854,53.691C223.608,53.936 224.09,54.287 224.491,54.666C224.893,55.045 227.902,57.029 225.45,58.746C222.998,60.463 220.413,60.91 218.306,61.344C216.198,61.778 215.922,58.036 215.922,58.036Z" style="fill:rgb(253,158,136);"/>
            <path d="M128.004,90.518C128.004,90.518 128.765,96.581 127.711,98.433C126.656,100.284 121.43,98.813 120.644,97.443C119.858,96.074 120.923,94.409 121.938,92.375C122.952,90.341 123.676,89.121 124.303,88.805C124.931,88.489 128.004,90.518 128.004,90.518Z" style="fill:rgb(253,158,136);"/>
            <g>
                <path d="M176.899,111.909L179.279,68.692C179.279,68.692 178.91,67.362 181.342,68.16C183.773,68.958 199.82,71.888 205.989,68.895C212.157,65.901 218.099,61.91 218.099,61.91C218.099,61.91 218.861,61.81 217.7,60.322C216.539,58.834 215.922,58.036 215.922,58.036C215.922,58.036 215.632,57.492 214.108,58.181C212.584,58.871 204.347,62.935 200.501,62.935C196.654,62.935 184.752,61.991 176.516,55.786C175.79,55.133 175.205,56.965 173.496,56.92C171.787,56.876 169.141,54.869 169.081,53.175C169.037,52.075 167.521,52.937 165.856,53.873C164.192,54.81 140.557,66.69 140.557,66.69C140.557,66.69 132.883,73.649 128.834,80.123C124.786,86.596 124.828,86.596 124.828,86.596C124.828,86.596 123.16,88.599 125.105,89.499C127.05,90.399 127.543,90.486 127.543,90.486C127.543,90.486 128.716,91.076 130.824,88.077C133.378,84.651 138.342,75.856 141.361,75.246C144.38,74.636 156.195,70.079 155.73,72.546C155.266,75.014 149.494,102.856 149.807,111.085C153.379,114.211 172.637,117.331 176.899,111.909Z" style="fill:rgb(4,104,200);"/>
                <clipPath id="_clip5">
                    <path d="M176.899,111.909L179.279,68.692C179.279,68.692 178.91,67.362 181.342,68.16C183.773,68.958 199.82,71.888 205.989,68.895C212.157,65.901 218.099,61.91 218.099,61.91C218.099,61.91 218.861,61.81 217.7,60.322C216.539,58.834 215.922,58.036 215.922,58.036C215.922,58.036 215.632,57.492 214.108,58.181C212.584,58.871 204.347,62.935 200.501,62.935C196.654,62.935 184.752,61.991 176.516,55.786C175.79,55.133 175.205,56.965 173.496,56.92C171.787,56.876 169.141,54.869 169.081,53.175C169.037,52.075 167.521,52.937 165.856,53.873C164.192,54.81 140.557,66.69 140.557,66.69C140.557,66.69 132.883,73.649 128.834,80.123C124.786,86.596 124.828,86.596 124.828,86.596C124.828,86.596 123.16,88.599 125.105,89.499C127.05,90.399 127.543,90.486 127.543,90.486C127.543,90.486 128.716,91.076 130.824,88.077C133.378,84.651 138.342,75.856 141.361,75.246C144.38,74.636 156.195,70.079 155.73,72.546C155.266,75.014 149.494,102.856 149.807,111.085C153.379,114.211 172.637,117.331 176.899,111.909Z"/>
                </clipPath>
                <g clip-path="url(#_clip5)">
                    <path d="M186.148,69.168C186.148,69.168 182.635,67.781 180.903,65.969C180.546,65.596 179.551,65.076 179.278,65.38C178.853,65.853 178.764,67.645 178.796,69.088" style="fill:rgb(0,82,147);"/>
                    <path d="M153.815,71.871C153.815,71.871 161.631,68.203 162.589,67.985C162.987,67.878 163.163,68.109 162.353,69.01C160.591,70.968 155.884,73.806 155.215,75.149C154.229,77.129 155.218,75.144 155.218,75.144C155.218,75.144 155.588,71.218 153.815,71.871Z" style="fill:rgb(0,82,147);"/>
                </g>
                <path d="M176.899,111.909L179.279,68.692C179.279,68.692 178.91,67.362 181.342,68.16C183.773,68.958 199.82,71.888 205.989,68.895C212.157,65.901 218.099,61.91 218.099,61.91C218.099,61.91 218.861,61.81 217.7,60.322C216.539,58.834 215.922,58.036 215.922,58.036C215.922,58.036 215.632,57.492 214.108,58.181C212.584,58.871 204.347,62.935 200.501,62.935C196.654,62.935 184.752,61.991 176.516,55.786C175.79,55.133 175.205,56.965 173.496,56.92C171.787,56.876 169.141,54.869 169.081,53.175C169.037,52.075 167.521,52.937 165.856,53.873C164.192,54.81 140.557,66.69 140.557,66.69C140.557,66.69 132.883,73.649 128.834,80.123C124.786,86.596 124.828,86.596 124.828,86.596C124.828,86.596 123.16,88.599 125.105,89.499C127.05,90.399 127.543,90.486 127.543,90.486C127.543,90.486 128.716,91.076 130.824,88.077C133.378,84.651 138.342,75.856 141.361,75.246C144.38,74.636 156.195,70.079 155.73,72.546C155.266,75.014 149.494,102.856 149.807,111.085C153.379,114.211 172.637,117.331 176.899,111.909Z" style="fill:none;stroke:rgb(0,82,147);stroke-width:1px;"/>
                <path d="M156.171,102.412C156.171,102.412 157.226,102.467 158.622,102.536C158.884,102.549 159.154,102.56 159.434,102.568C159.7,102.575 159.97,102.583 160.243,102.581C160.512,102.578 160.781,102.569 161.048,102.554C161.322,102.539 161.589,102.513 161.852,102.493C162.19,102.466 162.51,102.439 162.817,102.42C163.393,102.383 163.883,102.36 164.257,102.408C164.32,102.425 164.384,102.389 164.402,102.327C164.419,102.264 164.382,102.2 164.32,102.182C163.858,101.981 163.175,101.801 162.364,101.677C161.944,101.613 161.5,101.564 161.042,101.542C160.779,101.53 160.513,101.53 160.25,101.541C159.847,101.559 159.45,101.604 159.069,101.649C158.76,101.687 158.467,101.73 158.188,101.777C156.995,101.977 156.15,102.179 156.15,102.179C156.086,102.184 156.038,102.241 156.044,102.306C156.05,102.37 156.107,102.418 156.171,102.412Z" style="fill:rgb(0,82,147);"/>
            </g>
            <path d="M173.62,100.004C173.62,100.004 169.193,93.586 169.402,91.751C169.611,89.916 172.446,61.747 172.446,61.747C172.446,61.747 171.126,60.783 171.28,59.677C171.435,58.571 173.016,57.026 173.504,57.002C173.991,56.978 175.025,59.095 175.025,59.653C175.025,60.212 174.015,61.853 174.015,61.853L177.364,91.63C177.364,91.63 177.757,93.083 173.62,100.004Z" style="fill:white;stroke:rgb(0,82,147);stroke-width:0.7px;"/>
        </g>
    </g>
    <g id="Particles-" serif:id="Particles ">
        <g transform="matrix(0.721682,0,0,0.721682,60.8916,24.0814)">
            <circle cx="218.784" cy="86.525" r="4.146" style="fill:none;stroke:rgb(4,104,200);stroke-width:1.39px;"/>
        </g>
        <g transform="matrix(0.721682,0,0,0.721682,-59.129,-21.6306)">
            <circle cx="218.784" cy="86.525" r="4.146" style="fill:none;stroke:rgb(4,104,200);stroke-width:1.39px;"/>
        </g>
        <g transform="matrix(0.721682,0,0,0.721682,72.4578,35.6476)">
            <circle cx="218.784" cy="86.525" r="4.146" style="fill:none;stroke:rgb(252,159,0);stroke-width:1.39px;"/>
        </g>
        <g transform="matrix(0.721682,0,0,0.721682,-47.1375,-10.9148)">
            <circle cx="218.784" cy="86.525" r="4.146" style="fill:none;stroke:rgb(241,166,12);stroke-width:1.39px;"/>
        </g>
        <g>
            <path d="M216.513,95.987L216.513,103.008" style="fill:none;stroke:rgb(254,163,0);stroke-width:1px;"/>
            <g transform="matrix(6.12323e-17,1,-1,6.12323e-17,316.01,-117.015)">
                <path d="M216.513,95.987L216.513,103.008" style="fill:none;stroke:rgb(254,163,0);stroke-width:1px;"/>
            </g>
        </g>
        <g transform="matrix(1,0,0,1,-125.037,-45.9385)">
            <path d="M216.513,95.987L216.513,103.008" style="fill:none;stroke:rgb(254,163,0);stroke-width:1px;"/>
            <g transform="matrix(6.12323e-17,1,-1,6.12323e-17,316.01,-117.015)">
                <path d="M216.513,95.987L216.513,103.008" style="fill:none;stroke:rgb(254,163,0);stroke-width:1px;"/>
            </g>
        </g>
        <g transform="matrix(1,0,0,1,-101.455,-63.53)">
            <path d="M216.513,95.987L216.513,103.008" style="fill:none;stroke:rgb(4,104,200);stroke-width:1px;"/>
            <g transform="matrix(6.12323e-17,1,-1,6.12323e-17,316.01,-117.015)">
                <path d="M216.513,95.987L216.513,103.008" style="fill:none;stroke:rgb(4,104,200);stroke-width:1px;"/>
            </g>
        </g>
        <g transform="matrix(1,0,0,1,18.0188,12.9578)">
            <path d="M216.513,95.987L216.513,103.008" style="fill:none;stroke:rgb(4,104,200);stroke-width:1px;"/>
            <g transform="matrix(6.12323e-17,1,-1,6.12323e-17,316.01,-117.015)">
                <path d="M216.513,95.987L216.513,103.008" style="fill:none;stroke:rgb(4,104,200);stroke-width:1px;"/>
            </g>
        </g>
    </g>
    <g id="Arrow">
        <path d="M64.777,221.85L167.142,165.526L180.154,188.063L248.138,152.171L241.693,140.414L277.357,142.352L260.878,173.798L254.401,162.585L175.683,206.089L162.569,182.956L91.476,221.85L64.777,221.85Z" style="fill:rgb(254,162,2);"/>
        <path d="M277.357,142.352L260.878,173.798L254.401,162.585L175.683,206.089L162.569,182.956L91.476,221.85L77.614,221.85L164.679,174.229L177.436,196.235L277.357,142.352Z" style="fill:rgb(248,129,3);"/>
    </g>
    <defs>
        <linearGradient id="_Linear2" x1="0" y1="0" x2="1" y2="0" gradientUnits="userSpaceOnUse" gradientTransform="matrix(-21.4739,35.719,-35.719,-21.4739,159.118,129.421)"><stop offset="0" style="stop-color:rgb(0,26,47);stop-opacity:1"/><stop offset="1" style="stop-color:rgb(5,31,43);stop-opacity:1"/></linearGradient>
    </defs>
</svg>
