<?xml version="1.0" encoding="UTF-8" standalone="no"?>
<!DOCTYPE svg PUBLIC "-//W3C//DTD SVG 1.1//EN" "http://www.w3.org/Graphics/SVG/1.1/DTD/svg11.dtd">
<svg width="100%" height="100%" viewBox="0 0 297 234" version="1.1" xmlns="http://www.w3.org/2000/svg" xmlns:xlink="http://www.w3.org/1999/xlink" xml:space="preserve" xmlns:serif="http://www.serif.com/" style="fill-rule:evenodd;clip-rule:evenodd;stroke-linecap:round;stroke-linejoin:round;stroke-miterlimit:1.5;">
    <g transform="matrix(2.1273,0,0,2.08071,-237.758,-241.17)">
        <ellipse cx="184.009" cy="220.768" rx="44.777" ry="4.091" style="fill:rgb(247,247,247);"/>
    </g>
    <g>
        <g id="Gear3">
            <path d="M175.006,22.867C175.006,22.867 181.045,20.513 181.045,16.054L198.727,16.054C198.727,20.513 204.766,22.867 204.766,22.867C205.439,23.126 206.105,23.402 206.759,23.694L206.758,23.692C206.758,23.692 212.692,26.298 215.845,23.145L228.348,35.648C225.195,38.801 227.801,44.735 227.801,44.735L227.796,44.733C228.09,45.39 228.366,46.057 228.625,46.73L228.627,46.728C228.627,46.728 230.98,52.766 235.439,52.766L235.439,70.448C230.98,70.448 228.627,76.487 228.627,76.487L228.624,76.48C228.363,77.157 228.086,77.825 227.792,78.483L227.801,78.48C227.801,78.48 225.195,84.414 228.348,87.567L215.845,100.069C212.692,96.916 206.758,99.523 206.758,99.523L206.762,99.511C206.102,99.805 205.433,100.083 204.756,100.343L204.766,100.348C204.766,100.348 198.727,102.701 198.727,107.16L181.045,107.16C181.045,102.701 175.006,100.348 175.006,100.348L175.016,100.343C174.339,100.083 173.67,99.806 173.01,99.511L173.014,99.523C173.014,99.523 167.08,96.916 163.927,100.069L151.424,87.567C154.577,84.414 151.971,78.48 151.971,78.48L151.98,78.483C151.686,77.824 151.409,77.156 151.149,76.48L151.145,76.487C151.145,76.487 148.792,70.448 144.333,70.448L144.333,52.766C148.792,52.766 151.145,46.728 151.145,46.728L151.147,46.73C151.406,46.057 151.682,45.391 151.976,44.733L151.971,44.735C151.971,44.735 154.577,38.801 151.424,35.648L163.927,23.145C167.08,26.298 173.014,23.692 173.014,23.692L173.013,23.694C173.669,23.402 174.334,23.125 175.006,22.867ZM189.908,103.092L189.865,103.092L189.886,103.1L189.908,103.092ZM189.886,28.627C208.086,28.627 222.862,43.403 222.862,61.603C222.862,79.803 208.086,94.58 189.886,94.58C171.686,94.58 156.91,79.803 156.91,61.603C156.91,43.403 171.686,28.627 189.886,28.627ZM160.546,90.947L160.585,90.965L160.555,90.935L160.529,90.908L160.546,90.947ZM219.244,90.908L219.187,90.965L219.226,90.947L219.244,90.908ZM148.393,61.607L148.397,61.618L148.397,61.596L148.393,61.607ZM231.375,61.596L231.375,61.618L231.379,61.607L231.375,61.596ZM160.546,32.267L160.535,32.291L160.57,32.256L160.546,32.267ZM219.202,32.256L219.237,32.291L219.226,32.267L219.202,32.256Z" style="fill:rgb(124,178,253);"/>
            <path d="M189.886,33.602C205.34,33.602 217.887,46.149 217.887,61.603C217.887,77.057 205.34,89.604 189.886,89.604C174.432,89.604 161.885,77.057 161.885,61.603C161.885,46.149 174.432,33.602 189.886,33.602ZM189.886,37.642C203.111,37.642 213.848,48.378 213.848,61.603C213.848,74.828 203.111,85.565 189.886,85.565C176.661,85.565 165.924,74.828 165.924,61.603C165.924,48.378 176.661,37.642 189.886,37.642Z" style="fill:rgb(124,178,253);"/>
        </g>
        <g id="Gear2">
            <path d="M87.281,71.778C87.281,71.778 90.471,70.536 90.471,68.181L99.808,68.181C99.808,70.536 102.997,71.778 102.997,71.778C103.353,71.915 103.704,72.061 104.05,72.216L104.05,72.214C104.05,72.214 107.184,73.591 108.849,71.926L115.451,78.528C113.786,80.193 115.163,83.327 115.163,83.327L115.16,83.326C115.315,83.673 115.461,84.025 115.598,84.381L115.598,84.38C115.598,84.38 116.841,87.569 119.196,87.569L119.196,96.906C116.841,96.906 115.598,100.096 115.598,100.096L115.597,100.092C115.459,100.45 115.313,100.802 115.158,101.15L115.163,101.148C115.163,101.148 113.786,104.282 115.451,105.947L108.849,112.55C107.184,110.884 104.05,112.261 104.05,112.261L104.052,112.255C103.703,112.41 103.35,112.557 102.992,112.694L102.997,112.697C102.997,112.697 99.808,113.939 99.808,116.294L90.471,116.294C90.471,113.939 87.281,112.697 87.281,112.697L87.286,112.694C86.929,112.557 86.576,112.41 86.227,112.255L86.229,112.261C86.229,112.261 83.095,110.884 81.43,112.55L74.827,105.947C76.492,104.282 75.116,101.148 75.116,101.148L75.121,101.15C74.966,100.802 74.819,100.449 74.682,100.092L74.68,100.096C74.68,100.096 73.438,96.906 71.083,96.906L71.083,87.569C73.438,87.569 74.68,84.38 74.68,84.38L74.681,84.381C74.818,84.025 74.964,83.674 75.119,83.326L75.116,83.327C75.116,83.327 76.492,80.193 74.827,78.528L81.43,71.926C83.095,73.591 86.229,72.214 86.229,72.214L86.229,72.216C86.575,72.061 86.926,71.915 87.281,71.778ZM95.151,114.146L95.128,114.146L95.139,114.15L95.151,114.146ZM79.645,107.732L79.665,107.741L79.636,107.712L79.645,107.732ZM110.643,107.712L110.613,107.741L110.634,107.732L110.643,107.712ZM95.139,78.232C102.869,78.232 109.145,84.508 109.145,92.238C109.145,99.967 102.869,106.243 95.139,106.243C87.41,106.243 81.134,99.967 81.134,92.238C81.134,84.508 87.41,78.232 95.139,78.232ZM73.227,92.238L73.229,92.243L73.229,92.232L73.227,92.238ZM117.05,92.232L117.05,92.243L117.052,92.238L117.05,92.232ZM79.645,76.743L79.639,76.756L79.658,76.737L79.645,76.743ZM110.621,76.737L110.64,76.756L110.634,76.743L110.621,76.737Z" style="fill:rgb(255,165,0);"/>
            <g transform="matrix(0.9591,0,0,0.9591,3.89119,3.77251)">
                <circle cx="95.139" cy="92.238" r="4.99" style="fill:rgb(88,82,91);"/>
            </g>
        </g>
        <g id="Gear1">
            <g transform="matrix(0.409617,0,0,0.409617,87.9552,29.6794)">
                <path d="M87.281,71.778C87.281,71.778 90.471,70.536 90.471,68.181L99.808,68.181C99.808,70.536 102.997,71.778 102.997,71.778C103.353,71.915 103.704,72.061 104.05,72.216L104.05,72.214C104.05,72.214 107.184,73.591 108.849,71.926L115.451,78.528C113.786,80.193 115.163,83.327 115.163,83.327L115.16,83.326C115.315,83.673 115.461,84.025 115.598,84.381L115.598,84.38C115.598,84.38 116.841,87.569 119.196,87.569L119.196,96.906C116.841,96.906 115.598,100.096 115.598,100.096L115.597,100.092C115.459,100.45 115.313,100.802 115.158,101.15L115.163,101.148C115.163,101.148 113.786,104.282 115.451,105.947L108.849,112.55C107.184,110.884 104.05,112.261 104.05,112.261L104.052,112.255C103.703,112.41 103.35,112.557 102.992,112.694L102.997,112.697C102.997,112.697 99.808,113.939 99.808,116.294L90.471,116.294C90.471,113.939 87.281,112.697 87.281,112.697L87.286,112.694C86.929,112.557 86.576,112.41 86.227,112.255L86.229,112.261C86.229,112.261 83.095,110.884 81.43,112.55L74.827,105.947C76.492,104.282 75.116,101.148 75.116,101.148L75.121,101.15C74.966,100.802 74.819,100.449 74.682,100.092L74.68,100.096C74.68,100.096 73.438,96.906 71.083,96.906L71.083,87.569C73.438,87.569 74.68,84.38 74.68,84.38L74.681,84.381C74.818,84.025 74.964,83.674 75.119,83.326L75.116,83.327C75.116,83.327 76.492,80.193 74.827,78.528L81.43,71.926C83.095,73.591 86.229,72.214 86.229,72.214L86.229,72.216C86.575,72.061 86.926,71.915 87.281,71.778Z" style="fill:none;stroke:rgb(88,82,91);stroke-width:2.13px;"/>
            </g>
            <g transform="matrix(0.9591,0,0,0.9591,35.6825,-21.0013)">
                <circle cx="95.139" cy="92.238" r="4.99" style="fill:rgb(255,165,0);"/>
            </g>
        </g>
        <path id="Kabel" d="M98.175,68.181L98.175,47.319C98.175,47.319 97.562,40.005 105.489,40.005L152.982,40.005" style="fill:none;stroke:rgb(88,82,91);stroke-width:1.25px;stroke-linejoin:miter;stroke-dasharray:2.49,0.06,0,2.49;stroke-dashoffset:12.46;"/>
    </g>
    <g>
        <g transform="matrix(9.70172,0,0,3.13684,-1661.81,-352.375)">
            <path d="M193.155,164.707C193.155,164.37 193.067,164.097 192.958,164.097L188.127,164.097C188.019,164.097 187.93,164.37 187.93,164.707L187.93,165.926C187.93,166.262 188.019,166.536 188.127,166.536L192.958,166.536C193.067,166.536 193.155,166.262 193.155,165.926L193.155,164.707Z" style="fill:rgb(4,125,246);"/>
        </g>
        <g transform="matrix(11.2855,0,0,2.2483,-1963.59,-208.22)">
            <path d="M193.155,165.316C193.155,164.643 193.047,164.097 192.913,164.097L188.173,164.097C188.039,164.097 187.93,164.643 187.93,165.316C187.93,165.989 188.039,166.536 188.173,166.536L192.913,166.536C193.047,166.536 193.155,165.989 193.155,165.316Z" style="fill:rgb(15,102,212);"/>
        </g>
        <g>
            <g id="_0" serif:id="0" transform="matrix(0.473315,9.95416,-0.655416,4.01327e-17,212.785,-1700.67)">
                <rect x="187.93" y="164.097" width="5.225" height="2.438" style="fill:rgb(4,125,246);"/>
            </g>
            <g id="_01" serif:id="0" transform="matrix(-0.473315,9.95416,0.655416,4.01327e-17,159.885,-1700.67)">
                <rect x="187.93" y="164.097" width="5.225" height="2.438" style="fill:rgb(4,125,246);"/>
            </g>
            <g transform="matrix(0.473315,9.95416,-0.655416,4.01327e-17,225.722,-1700.67)">
                <rect x="187.93" y="164.097" width="5.225" height="2.438" style="fill:rgb(4,125,246);"/>
            </g>
            <g transform="matrix(-0.473315,9.95416,0.655416,4.01327e-17,146.949,-1700.67)">
                <rect x="187.93" y="164.097" width="5.225" height="2.438" style="fill:rgb(4,125,246);"/>
            </g>
        </g>
        <g>
            <g transform="matrix(1,0,0,1.13695,0,-26.0189)">
                <rect x="111.915" y="137.251" width="10.899" height="52.735" style="fill:rgb(232,232,232);"/>
            </g>
            <g transform="matrix(4.74949,0,0,1.13695,-471.39,-26.0189)">
                <rect x="111.915" y="137.251" width="10.899" height="52.735" style="fill:rgb(241,241,241);"/>
            </g>
            <rect x="63.869" y="135.915" width="41.938" height="15.107" style="fill:rgb(232,232,232);"/>
            <g transform="matrix(0.541219,0,0,0.19403,38.9222,109.544)">
                <rect x="63.869" y="135.915" width="41.938" height="15.107" style="fill:white;"/>
            </g>
            <path d="M113.831,128.273C113.831,127.575 113.264,127.009 112.566,127.009L58.954,127.009C58.256,127.009 57.689,127.575 57.689,128.273L57.689,129.577C57.689,130.275 58.256,130.842 58.954,130.842L112.566,130.842C113.264,130.842 113.831,130.275 113.831,129.577L113.831,128.273Z" style="fill:rgb(232,232,232);"/>
            <g transform="matrix(1,0,0,1,0,16.5391)">
                <rect x="63.869" y="135.915" width="41.938" height="15.107" style="fill:rgb(232,232,232);"/>
            </g>
            <g transform="matrix(1,0,0,1,0,33.8206)">
                <rect x="63.869" y="135.915" width="41.938" height="15.107" style="fill:rgb(232,232,232);"/>
            </g>
            <g transform="matrix(0.541219,0,0,0.19403,38.9222,126.083)">
                <rect x="63.869" y="135.915" width="41.938" height="15.107" style="fill:white;"/>
            </g>
            <g transform="matrix(0.541219,0,0,0.19403,38.9222,143.364)">
                <rect x="63.869" y="135.915" width="41.938" height="15.107" style="fill:white;"/>
            </g>
        </g>
    </g>
    <g>
        <path d="M205.886,133.376L205.886,140.876L178.204,140.876L178.204,135.02" style="fill:rgb(1,126,255);"/>
        <path d="M186.958,140.876L178.204,140.876C178.204,140.876 143.171,144.432 143.171,155.808C143.171,167.184 144.773,190.836 145.221,196.241C145.221,200.154 144.942,205.907 146.484,204.259C148.595,203.951 153.082,206.602 155.045,205.252C155.846,204.701 155.162,200.82 155.194,199.492C155.373,192.064 157.565,181.624 157.565,181.624L177.21,151.348L189.627,146.5L186.958,140.876Z" style="fill:url(#_Linear1);"/>
        <path d="M142.495,205.864L139.783,209.933L140.586,212.05L144.215,212.319L146.881,207.833L142.495,205.864Z" style="fill:rgb(201,95,78);"/>
        <g transform="matrix(0.830968,-0.55632,0.55632,0.830968,-83.6544,115.934)">
            <path d="M142.495,205.864L139.783,209.933L144.215,212.319L146.881,207.833L142.495,205.864Z" style="fill:rgb(201,95,78);"/>
        </g>
        <g>
            <g transform="matrix(1,0,0,1,-0.224029,0.224029)">
                <path d="M144.393,212.319C144.393,212.319 141.92,211.576 140.593,210.587C140.151,210.257 140.019,209.563 139.896,209.615C139.309,209.74 137.607,210.843 134.428,209.284C131.249,207.726 130.392,207.054 129.207,208.06C128.023,209.066 129.91,210.784 132.272,212.319C134.635,213.853 138.287,215.704 139.042,216.532C139.797,217.36 142.435,217.555 143.332,215.875C144.229,214.194 144.393,213.632 144.393,212.319Z"/>
            </g>
            <path d="M144.393,212.319C144.393,212.319 141.92,211.576 140.593,210.587C140.151,210.257 140.019,209.563 139.896,209.615C139.309,209.74 137.607,210.843 134.428,209.284C131.249,207.726 130.392,207.054 129.207,208.06C128.023,209.066 129.91,210.784 132.272,212.319C134.635,213.853 138.287,215.704 139.042,216.532C139.797,217.36 142.435,217.555 143.332,215.875C144.229,214.194 144.393,213.632 144.393,212.319Z" style="fill:rgb(11,44,64);"/>
            <g transform="matrix(1.6243,0.243344,-0.243344,1.6243,-33.0286,-164.654)">
                <g transform="matrix(1.22747,0,0,1.22747,-31.0461,-47.1859)">
                    <path d="M137.194,210.046C137.194,210.062 137.193,210.078 137.193,210.093L137.069,210.153C137.069,210.153 136.503,209.4 136.365,208.852C136.29,208.557 136.338,208.318 136.595,208.237C136.716,208.199 136.815,208.206 136.896,208.244C137.012,208.299 137.094,208.423 137.144,208.591C137.26,208.98 137.214,209.615 137.197,209.994C137.215,210.018 137.226,210.031 137.226,210.031L137.194,210.046ZM137.106,209.873C137.116,209.5 137.131,208.967 137.021,208.63C136.981,208.505 136.925,208.409 136.838,208.37C136.784,208.346 136.719,208.348 136.641,208.375C136.465,208.435 136.464,208.609 136.521,208.811C136.623,209.178 136.934,209.637 137.106,209.873Z" style="fill:rgb(104,142,170);"/>
                </g>
                <g transform="matrix(-0.828236,-0.905932,-0.905932,0.828236,441.114,160.888)">
                    <path d="M137.198,209.993C137.215,209.613 137.261,208.979 137.145,208.591C137.095,208.422 137.013,208.298 136.897,208.243C136.816,208.204 136.716,208.197 136.595,208.236C136.337,208.317 136.289,208.557 136.363,208.853C136.501,209.401 137.067,210.154 137.067,210.154L137.193,210.093C137.194,210.078 137.195,210.062 137.195,210.046L137.227,210.03C137.227,210.03 137.216,210.017 137.198,209.993ZM137.106,209.87C136.933,209.632 136.624,209.176 136.522,208.811C136.466,208.61 136.466,208.436 136.641,208.376C136.72,208.349 136.784,208.347 136.838,208.371C136.925,208.41 136.98,208.506 137.02,208.63C137.129,208.966 137.116,209.497 137.106,209.87Z" style="fill:rgb(104,142,170);"/>
                </g>
            </g>
        </g>
        <g transform="matrix(0.866025,-0.5,0.5,0.866025,-76.5459,100.344)">
            <g transform="matrix(1,0,0,1,-0.224029,0.224029)">
                <path d="M144.393,212.319C144.393,212.319 141.92,211.576 140.593,210.587C140.151,210.257 140.019,209.563 139.896,209.615C139.309,209.74 137.607,210.843 134.428,209.284C131.249,207.726 130.392,207.054 129.207,208.06C128.023,209.066 129.91,210.784 132.272,212.319C134.635,213.853 138.287,215.704 139.042,216.532C139.797,217.36 142.435,217.555 143.332,215.875C144.229,214.194 144.393,213.632 144.393,212.319Z"/>
            </g>
            <path d="M144.393,212.319C144.393,212.319 141.92,211.576 140.593,210.587C140.151,210.257 140.019,209.563 139.896,209.615C139.309,209.74 137.607,210.843 134.428,209.284C131.249,207.726 130.392,207.054 129.207,208.06C128.023,209.066 129.91,210.784 132.272,212.319C134.635,213.853 138.287,215.704 139.042,216.532C139.797,217.36 142.435,217.555 143.332,215.875C144.229,214.194 144.393,213.632 144.393,212.319Z" style="fill:rgb(11,44,64);"/>
            <g transform="matrix(1.6243,0.243344,-0.243344,1.6243,-33.0286,-164.654)">
                <g transform="matrix(1.22747,0,0,1.22747,-31.0461,-47.1859)">
                    <path d="M137.194,210.046C137.194,210.062 137.193,210.078 137.193,210.093L137.069,210.153C137.069,210.153 136.503,209.4 136.365,208.852C136.29,208.557 136.338,208.318 136.595,208.237C136.716,208.199 136.815,208.206 136.896,208.244C137.012,208.299 137.094,208.423 137.144,208.591C137.26,208.98 137.214,209.615 137.197,209.994C137.215,210.018 137.226,210.031 137.226,210.031L137.194,210.046ZM137.106,209.873C137.116,209.5 137.131,208.967 137.021,208.63C136.981,208.505 136.925,208.409 136.838,208.37C136.784,208.346 136.719,208.348 136.641,208.375C136.465,208.435 136.464,208.609 136.521,208.811C136.623,209.178 136.934,209.637 137.106,209.873Z" style="fill:rgb(104,142,170);"/>
                </g>
                <g transform="matrix(-0.828236,-0.905932,-0.905932,0.828236,441.114,160.888)">
                    <path d="M137.198,209.993C137.215,209.613 137.261,208.979 137.145,208.591C137.095,208.422 137.013,208.298 136.897,208.243C136.816,208.204 136.716,208.197 136.595,208.236C136.337,208.317 136.289,208.557 136.363,208.853C136.501,209.401 137.067,210.154 137.067,210.154L137.193,210.093C137.194,210.078 137.195,210.062 137.195,210.046L137.227,210.03C137.227,210.03 137.216,210.017 137.198,209.993ZM137.106,209.87C136.933,209.632 136.624,209.176 136.522,208.811C136.466,208.61 136.466,208.436 136.641,208.376C136.72,208.349 136.784,208.347 136.838,208.371C136.925,208.41 136.98,208.506 137.02,208.63C137.129,208.966 137.116,209.497 137.106,209.87Z" style="fill:rgb(104,142,170);"/>
                </g>
            </g>
        </g>
        <path d="M154.354,202.855C154.354,202.855 157.035,202.259 157.035,205.252C157.035,208.245 155.884,207.944 154.096,207.946C152.308,207.948 153.102,207.772 152.453,207.726C151.803,207.68 152.453,203.643 152.453,203.643L154.354,202.855Z" style="fill:rgb(49,125,216);"/>
        <path d="M195.157,95.288C195.157,95.288 192.088,94.063 192.088,88.734C192.088,83.404 194.788,84.563 194.788,81.04C194.788,77.517 186.549,71.038 186.549,71.038L178.014,71.038L178.014,85.39C178.014,85.39 178.445,89.047 185.981,89.047C185.981,92.566 187.105,98.139 182.56,98.139L182.56,100.966L192.673,100.966L195.157,95.288Z" style="fill:rgb(201,95,78);"/>
        <g>
            <path d="M186.244,78.461L190.552,78.461C190.552,78.461 191.318,78.394 191.318,79.227" style="fill:none;stroke:white;stroke-width:0.41px;stroke-linejoin:miter;"/>
            <g transform="matrix(0.849142,0,0,0.849142,27.5557,11.8542)">
                <g transform="matrix(1.21915,0,0,1.21915,-37.6391,-15.553)">
                    <circle cx="182.145" cy="77.211" r="2.019" style="fill:none;stroke:white;stroke-width:0.39px;stroke-linejoin:miter;"/>
                </g>
                <g transform="matrix(1,0,0,1,0.0385272,-0.603496)">
                    <circle cx="184.019" cy="79.182" r="0.821"/>
                </g>
            </g>
            <g transform="matrix(0.849142,0,0,0.849142,22.7534,11.8542)">
                <g transform="matrix(1.21915,0,0,1.21915,-37.6391,-15.553)">
                    <circle cx="182.145" cy="77.211" r="2.019" style="fill:none;stroke:white;stroke-width:0.39px;stroke-linejoin:miter;"/>
                </g>
                <g transform="matrix(1,0,0,1,0.0385272,-0.603496)">
                    <circle cx="184.019" cy="79.182" r="0.821"/>
                </g>
            </g>
            <g transform="matrix(0.849142,0,0,0.849142,28.3713,11.8542)">
                <path d="M180.269,78.461C180.269,78.461 180.653,77.814 181.005,78.45" style="fill:none;stroke:white;stroke-width:0.48px;stroke-linejoin:miter;"/>
            </g>
        </g>
        <path d="M180.486,84.386C180.486,84.386 181.292,84.525 182.461,84.222C182.986,84.086 183.587,83.867 184.22,83.498C184.321,83.447 184.363,83.323 184.312,83.222C184.261,83.121 184.137,83.08 184.036,83.13C183.412,83.395 182.837,83.528 182.339,83.593C181.329,83.723 180.669,83.534 180.669,83.534C180.434,83.484 180.202,83.634 180.152,83.869C180.101,84.104 180.251,84.336 180.486,84.386Z"/>
        <path d="M179.349,74.059C175.268,74.354 174.872,72.913 174.941,72.018C174.941,70.59 178.137,70.694 178.137,68.082C178.137,65.469 179.435,64.041 181.664,64.041C183.894,64.041 186.437,65.991 191.348,65.991C196.26,65.991 194.976,69.022 194.976,71.042C194.976,73.063 197.026,73.934 197.026,76.651C197.026,79.368 194.788,81.04 194.788,81.04C194.015,80.551 193.478,79.846 192.063,79.946C190.718,79.946 188.022,80.079 188.022,78.446C187.956,71.905 187.406,74.236 179.349,74.059Z" style="fill:rgb(28,48,48);stroke:rgb(10,17,19);stroke-width:0.76px;stroke-linejoin:miter;"/>
        <path d="M171.057,117L171.057,123.24C171.057,123.24 171.684,126.026 168.27,126.026L151.479,126.026L151.479,132.21L171.954,132.21C175.406,131.313 176.898,129.267 176.983,126.396L176.983,117.77" style="fill:rgb(190,93,74);"/>
        <path d="M176.983,129.556C176.983,129.556 177.058,121.99 177.058,117.763C177.058,117.763 168.827,118.549 168.827,114.63C168.827,110.711 169.842,98.083 182.382,98.083C183.253,98.083 182.034,100.957 185.735,100.957C189.436,100.957 193.747,94.948 196.403,94.948C199.06,94.948 204.415,94.524 208.465,101.79C210.268,105.026 211.631,107.156 212.08,108.578C212.786,109.967 213.165,110.202 211.433,110.707C210.848,111.02 209.925,111.221 208.596,111.364C208.321,111.428 208.054,111.488 207.793,111.545C205.127,112.13 202.562,112.563 200.913,113.454C200.933,114.106 200.957,114.871 200.984,115.705L200.985,115.768C200.985,115.794 200.986,115.82 200.987,115.846L200.99,115.919C201.144,120.812 201.346,127.851 201.11,128.283C197.147,130.314 185.986,129.489 178.496,129.489C177.944,129.489 177.441,129.512 176.983,129.556Z" style="fill:rgb(1,126,255);"/>
        <path d="M207.793,111.545L207.793,128.423C207.793,128.423 208.054,135.02 201.196,135.02L173.133,135.02C173.133,135.02 170.016,129.489 178.496,129.489C185.986,129.489 197.147,130.314 201.11,128.283C201.39,127.77 201.052,117.944 200.913,113.454C202.562,112.563 205.127,112.13 207.793,111.545Z" style="fill:rgb(201,95,78);"/>
        <path d="M205.886,140.876L205.886,155.926C205.886,155.926 207.381,163.262 186.958,163.262C178.335,163.262 172.807,161.88 172.807,161.88C172.807,161.88 174.894,169.505 152.889,205.252C145.761,204.061 142.805,203.646 143.042,203.138L156.713,159.859C156.713,159.859 157.773,152.313 162.998,149.592C168.223,146.87 180.919,143.741 180.919,143.741C183.362,143.001 185.407,142.062 186.958,140.876L205.886,140.876Z" style="fill:rgb(29,46,54);"/>
        <path d="M142.633,199.744C142.633,199.744 146.346,204.841 153.45,204.338C155.13,204.157 154.235,207.799 151.544,207.962C150.181,208.044 149.433,208.118 147.947,207.993C143.525,207.622 139.661,203.534 139.661,203.534C139.661,203.534 138.918,203.089 140.293,201.082C141.667,199.076 142.15,199.41 142.633,199.744Z" style="fill:rgb(0,128,240);"/>
        <g>
            <path d="M190.225,133.39C190.225,132.639 189.615,132.03 188.865,132.03L81.244,132.03C80.494,132.03 79.885,132.639 79.885,133.39L79.885,134.555C79.885,135.305 80.494,135.914 81.244,135.914L188.865,135.914C189.615,135.914 190.225,135.305 190.225,134.555L190.225,133.39Z" style="fill:rgb(2,21,30);"/>
            <g transform="matrix(4.7484e-17,0.775473,-0.591837,3.62395e-17,178.275,72.6065)">
                <path d="M190.225,133.39C190.225,132.639 189.76,132.03 189.187,132.03L80.922,132.03C80.349,132.03 79.885,132.639 79.885,133.39L79.885,134.555C79.885,135.305 80.349,135.914 80.922,135.914L189.187,135.914C189.76,135.914 190.225,135.305 190.225,134.555L190.225,133.39Z" style="fill:rgb(2,21,30);"/>
            </g>
            <g transform="matrix(4.7484e-17,0.775473,-0.591837,3.62395e-17,249.987,72.6065)">
                <path d="M190.225,133.39C190.225,132.639 189.76,132.03 189.187,132.03L80.922,132.03C80.349,132.03 79.885,132.639 79.885,133.39L79.885,134.555C79.885,135.305 80.349,135.914 80.922,135.914L189.187,135.914C189.76,135.914 190.225,135.305 190.225,134.555L190.225,133.39Z" style="fill:rgb(2,21,30);"/>
            </g>
        </g>
    </g>
    <g>
        <g transform="matrix(0.909376,0,0.21039,1.02759,-12.9418,-3.53245)">
            <path d="M151.636,102.967C151.636,102.298 151.021,101.754 150.264,101.754L102.865,101.754C102.108,101.754 101.493,102.298 101.493,102.967L101.493,130.884C101.493,131.554 102.108,132.098 102.865,132.098L150.264,132.098C151.021,132.098 151.636,131.554 151.636,130.884L151.636,102.967Z" style="fill:rgb(8,78,178);"/>
        </g>
        <g transform="matrix(0.886581,0,0.205248,1.00248,-9.94911,-0.215191)">
            <path d="M151.636,102.967C151.636,102.298 151.021,101.754 150.263,101.754L102.865,101.754C102.108,101.754 101.493,102.298 101.493,102.967L101.493,130.884C101.493,131.554 102.108,132.098 102.865,132.098L150.263,132.098C151.021,132.098 151.636,131.554 151.636,130.884L151.636,102.967Z" style="fill:rgb(1,126,255);"/>
        </g>
        <g transform="matrix(0.864889,0,0.0702439,0.921951,8.68414,9.17051)">
            <ellipse cx="125.077" cy="115.712" rx="4.899" ry="6.695" style="fill:rgb(122,180,255);"/>
        </g>
        <path d="M168.827,131.009C168.827,130.788 168.648,130.609 168.427,130.609L151.897,130.609C151.676,130.609 151.497,130.788 151.497,131.009L151.497,131.81C151.497,132.03 151.676,132.21 151.897,132.21L168.427,132.21C168.648,132.21 168.827,132.03 168.827,131.81L168.827,131.009Z" style="fill:rgb(8,78,178);"/>
    </g>
    <path d="M79.665,28.135L37.955,28.135L37.955,69.213L79.665,69.213L79.665,28.135ZM78.176,29.602L39.444,29.602L39.444,67.746L78.176,67.746L78.176,29.602Z" style="fill:rgb(245,245,245);"/>
    <path d="M51.537,52.272C51.537,52.272 48.896,56.407 52.468,58.809C56.039,61.212 56.061,59.935 58.507,57.965C60.953,55.995 67.944,46.969 67.944,46.969C67.944,46.969 70.022,42.505 68.128,39.204C66.234,35.903 64.151,34.956 62.528,37.256C60.904,39.556 52.544,48.214 52.544,48.214C52.544,48.214 51.921,49.513 52.165,50.487C52.287,51.228 51.537,52.272 51.537,52.272Z" style="fill:rgb(247,247,247);"/>
    <g>
        <path d="M251.958,102.999C252.3,102.767 250.936,86.606 255.893,78.958C261.421,70.453 262.909,70.879 264.823,72.367C266.736,73.855 268.862,81.19 265.354,88.419C262.073,95.172 252.63,102.777 252.508,103.202C251.963,104.696 251.554,113.892 251.234,125.317C251.131,129.002 251.039,132.918 250.956,136.883C252.366,131.358 256.534,115.814 260.687,108.133C265.789,98.693 269.957,91.719 272.253,92.995C274.549,94.27 276.08,107.537 272.848,113.661C269.721,119.586 256.057,126.12 250.939,137.709C250.787,145.179 250.67,152.776 250.583,159.287C251.344,155.394 252.963,150.389 256.398,146.061C263.202,137.489 267.722,138.902 269.516,140.863C271.257,143.435 270.836,149.613 263.896,156.824C261.68,159.041 254.084,162.577 250.507,165.37C250.423,172.491 250.386,177.258 250.386,177.258C250.381,177.61 250.091,177.893 249.739,177.889C249.386,177.884 249.103,177.594 249.108,177.242C249.108,177.242 249.285,166.967 249.595,154.054C246.212,151.402 240.233,149.295 238.006,147.068C231.066,139.856 232.495,133.461 233.312,132.032C234.128,130.603 236.849,128.494 243.653,137.067C247.488,141.899 249.054,146.819 249.69,150.191C249.895,142.015 250.149,133.13 250.441,125.292C250.49,123.986 250.54,122.71 250.591,121.472C247.908,119.8 231.545,109.065 231.545,95.89C231.545,81.539 243.345,99.02 245.365,103.302C247.142,107.07 249.796,112.524 250.697,118.993C251.072,110.522 251.502,104.214 251.958,102.999Z" style="fill:rgb(232,232,232);"/>
        <g>
            <g transform="matrix(0.744898,0,0,1.44678,63.8403,-75.7232)">
                <path d="M266.47,178.838C266.47,178.023 265.183,177.36 263.599,177.36L236.909,177.36C235.324,177.36 234.038,178.023 234.038,178.838L234.038,182.919C234.038,183.735 235.324,184.397 236.909,184.397L263.599,184.397C265.183,184.397 266.47,183.735 266.47,182.919L266.47,178.838Z" style="fill:rgb(234,232,234);"/>
            </g>
            <path d="M266.47,178.838C266.47,178.023 265.807,177.36 264.992,177.36L235.516,177.36C234.701,177.36 234.038,178.023 234.038,178.838L234.038,182.919C234.038,183.735 234.701,184.397 235.516,184.397L264.992,184.397C265.807,184.397 266.47,183.735 266.47,182.919L266.47,178.838Z" style="fill:rgb(244,241,242);"/>
        </g>
    </g>
    <g>
        <path d="M68.925,92.238L39.444,92.238L39.444,122.327L68.925,122.327L68.925,92.238ZM66.848,94.357L41.521,94.357L41.521,120.208L66.848,120.208L66.848,94.357Z" style="fill:rgb(247,247,247);"/>
        <path d="M54.029,102.021C54.029,102.021 50.597,102.754 50.597,105.453C50.597,106.313 48.205,106.647 48.205,107.845C48.205,109.044 48.038,110.451 50.81,110.451C52.19,110.451 50.908,115.175 54.113,115.175C57.318,115.175 61.428,110.716 61.428,107.859C61.428,105.003 56.537,106.034 56.537,104.334C56.537,102.634 55.255,102.021 54.029,102.021Z" style="fill:rgb(246,246,246);"/>
    </g>
    <defs>
        <linearGradient id="_Linear1" x1="0" y1="0" x2="1" y2="0" gradientUnits="userSpaceOnUse" gradientTransform="matrix(-24.0004,34.6904,-34.6904,-24.0004,175.952,145.062)"><stop offset="0" style="stop-color:rgb(31,44,51);stop-opacity:1"/><stop offset="1" style="stop-color:rgb(25,35,43);stop-opacity:1"/></linearGradient>
    </defs>
</svg>
