<?xml version="1.0" encoding="UTF-8" standalone="no"?>
<!DOCTYPE svg PUBLIC "-//W3C//DTD SVG 1.1//EN" "http://www.w3.org/Graphics/SVG/1.1/DTD/svg11.dtd">
<svg width="100%" height="100%" viewBox="0 0 24 24" version="1.1" xmlns="http://www.w3.org/2000/svg" xmlns:xlink="http://www.w3.org/1999/xlink" xml:space="preserve" xmlns:serif="http://www.serif.com/" style="fill-rule:evenodd;clip-rule:evenodd;stroke-linejoin:round;stroke-miterlimit:2;">
    <path d="M12,24C13.013,23.998 14.022,23.867 15.002,23.61L15.002,20.484C16.037,20.118 16.996,19.566 17.832,18.855C17.499,17.62 16.954,16.451 16.223,15.401C14.895,18.113 12.395,20.263 8.996,21.636L8.996,23.602C9.976,23.862 10.986,23.994 12,23.999L12,24Z" style="fill:rgb(25,118,210);"/>
    <path d="M1.607,18C2.116,18.876 2.735,19.684 3.447,20.404L6.153,18.842C6.987,19.556 7.944,20.111 8.978,20.48C9.882,19.573 10.622,18.517 11.166,17.358C8.153,17.564 5.042,16.474 2.153,14.217L0.45,15.2C0.716,16.179 1.104,17.12 1.607,18Z" style="fill:rgb(66,165,245);"/>
    <path d="M22.392,18.001C22.896,17.122 23.286,16.182 23.554,15.205L20.848,13.643C21.05,12.552 21.048,11.445 20.853,10.377C19.616,10.048 18.332,9.935 17.057,10.043C18.741,12.55 19.352,15.789 18.843,19.419L20.546,20.402C21.26,19.683 21.881,18.875 22.392,18L22.392,18.001Z" style="fill:rgb(66,165,245);"/>
    <path d="M14.34,12.001C14.314,13.267 13.265,14.295 11.999,14.295C10.732,14.295 9.683,13.267 9.657,12.001C9.657,10.716 10.714,9.659 11.999,9.659C13.284,9.659 14.341,10.716 14.341,12.001L14.34,12.001Z" style="fill:rgb(38,50,56);"/>
    <path d="M1.607,6C1.102,6.879 0.711,7.819 0.443,8.796L3.15,10.36C2.95,11.439 2.948,12.545 3.145,13.625C4.418,13.957 5.691,14.07 6.941,13.959C5.258,11.452 4.645,8.213 5.156,4.583L3.453,3.6C2.738,4.319 2.118,5.125 1.606,6L1.607,6Z" style="fill:rgb(25,118,210);"/>
    <path d="M22.391,6.001C21.882,5.125 21.264,4.317 20.552,3.596L17.845,5.158C17.011,4.445 16.054,3.89 15.02,3.521C14.117,4.427 13.377,5.483 12.833,6.641C15.845,6.437 18.957,7.526 21.846,9.783L23.549,8.8C23.283,7.821 22.893,6.88 22.39,6L22.391,6.001Z" style="fill:rgb(25,118,210);"/>
    <path d="M11.999,0C10.986,0.004 9.977,0.135 8.997,0.39L8.997,3.515C7.962,3.881 7.003,4.433 6.166,5.144C6.5,6.38 7.044,7.548 7.776,8.598C9.103,5.886 11.603,3.738 15.003,2.363L15.003,0.398C14.023,0.138 13.013,0.006 11.999,0Z" style="fill:rgb(66,165,245);"/>
</svg>
